<svg id="Слой_1" data-name="Слой 1" xmlns="http://www.w3.org/2000/svg" xmlns:xlink="http://www.w3.org/1999/xlink" viewBox="0 0 100 100"><defs><style>.cls-1{fill:url(#Безымянный_градиент_5);}</style><linearGradient id="Безымянный_градиент_5" x1="7.36" y1="58.18" x2="92.64" y2="41.82" gradientUnits="userSpaceOnUse"><stop offset="0" stop-color="#00b6e5"/><stop offset="1" stop-color="#0080be"/></linearGradient></defs><title>Фінанси</title><circle class="cls-1" cx="50" cy="50" r="43.4"/><path d="M50,95A45,45,0,1,1,95,50,45.05,45.05,0,0,1,50,95ZM50,8.19A41.81,41.81,0,1,0,91.81,50,41.86,41.86,0,0,0,50,8.19Z"/><path d="M50,69.54c-6.13,0-11.12-4.67-11.12-10.41h3.19c0,4,3.56,7.22,7.93,7.22A7.8,7.8,0,0,0,57.93,59c.21-3.33-3.24-5.23-8.51-7.75-5-2.37-10.55-5-10.55-10.64s5-10.4,11.12-10.4,11.13,4.66,11.13,10.4H57.93c0-4-3.56-7.21-7.94-7.21s-7.93,3.23-7.93,7.21c0,3.58,4.24,5.61,8.73,7.76,5,2.39,10.68,5.1,10.33,10.83A11,11,0,0,1,50,69.54Z"/><rect x="46.81" y="27.05" width="6.38" height="3.19" transform="translate(21.29 78.6) rotate(-89.93)"/><rect x="46.81" y="69.76" width="6.38" height="3.19" transform="translate(-21.42 121.27) rotate(-89.93)"/></svg>