<svg id="Слой_1" data-name="Слой 1" xmlns="http://www.w3.org/2000/svg" xmlns:xlink="http://www.w3.org/1999/xlink" viewBox="0 0 100 100"><defs><style>.cls-1{fill:url(#Безымянный_градиент_5);}</style><linearGradient id="Безымянный_градиент_5" x1="7.61" y1="75.18" x2="92.39" y2="58.93" gradientUnits="userSpaceOnUse"><stop offset="0" stop-color="#00b6e5"/><stop offset="1" stop-color="#0080be"/></linearGradient></defs><title>Доступи</title><rect class="cls-1" x="10.34" y="38.73" width="79.33" height="56.65" rx="6.61"/><path d="M80.29,96.72H19.71A10.73,10.73,0,0,1,9,86V48.11A10.73,10.73,0,0,1,19.71,37.39H80.29A10.73,10.73,0,0,1,91,48.11V86A10.73,10.73,0,0,1,80.29,96.72ZM19.71,40.07a8,8,0,0,0-8,8V86a8,8,0,0,0,8,8H80.29a8,8,0,0,0,8-8V48.11a8,8,0,0,0-8-8Z"/><circle cx="50" cy="64.46" r="5.93"/><path d="M50,77.81a2.23,2.23,0,0,1-2.23-2.23V64.46a2.23,2.23,0,0,1,4.46,0V75.58A2.23,2.23,0,0,1,50,77.81Z"/><path d="M26.66,39.34a1.78,1.78,0,0,1-1.75-1.43C22,23.31,26.22,7.11,42.37,3.85c14.85-3,25.53,6,29.29,24.63a1.78,1.78,0,1,1-3.49.71c-2-9.66-7.8-25.35-25.1-21.85-13.73,2.78-17.26,17-14.66,29.87a1.79,1.79,0,0,1-1.4,2.1A2.07,2.07,0,0,1,26.66,39.34Z"/></svg>