<svg id="Слой_1" data-name="Слой 1" xmlns="http://www.w3.org/2000/svg" xmlns:xlink="http://www.w3.org/1999/xlink" viewBox="0 0 400 400"><defs><style>.cls-1{fill:url(#Безымянный_градиент_5);}</style><linearGradient id="Безымянный_градиент_5" x1="143.44" y1="284.13" x2="264.69" y2="260.88" gradientUnits="userSpaceOnUse"><stop offset="0" stop-color="#1bb6e4"/><stop offset="1" stop-color="#3d7fbb"/></linearGradient></defs><title>Монтажная область 5 копия 32</title><circle class="cls-1" cx="204.06" cy="272.5" r="61.72"/><path d="M204.07,337.24A64.74,64.74,0,1,1,268.8,272.5,64.82,64.82,0,0,1,204.07,337.24Zm0-123.43a58.69,58.69,0,1,0,58.69,58.69A58.76,58.76,0,0,0,204.07,213.81Z"/><path d="M138.44,168.93c-29.86,0-53.25-11.29-53.25-25.71s23.39-25.7,53.25-25.7,53.25,11.29,53.25,25.7S168.3,168.93,138.44,168.93Zm0-45.36c-27.82,0-47.2,10.36-47.2,19.65s19.38,19.66,47.2,19.66,47.2-10.36,47.2-19.66S166.25,123.57,138.44,123.57Z"/><path d="M138.44,198.85c-29.86,0-53.25-11.29-53.25-25.7a3,3,0,1,1,6,0c0,9.29,19.38,19.65,47.2,19.65s47.2-10.36,47.2-19.65a3,3,0,1,1,6.05,0C191.69,187.56,168.3,198.85,138.44,198.85Z"/><path d="M138.44,229.29c-29.86,0-53.25-11.3-53.25-25.71a3,3,0,0,1,6,0c0,9.3,19.38,19.66,47.2,19.66a3,3,0,0,1,0,6Z"/><path d="M126.38,256.32l-.34,0c-24.43-2.72-40.85-12.78-40.85-25a3,3,0,0,1,6,0c0,8.59,15.25,16.77,35.47,19a3,3,0,0,1-.33,6Z"/><path d="M137.07,287.39c-23.58,0-51.93-15.52-51.93-25.27a3,3,0,0,1,6,0c.4,4.45,22.58,19.24,45.88,19.24a3,3,0,0,1,0,6.05ZM91.19,262.12h0Z"/><path d="M88.22,267a3,3,0,0,1-3-3V168.66a3,3,0,0,1,6,0V264A3,3,0,0,1,88.22,267Z"/><path d="M188.66,197.18a3,3,0,0,1-3-3V143.22a3,3,0,0,1,6.05,0v50.93A3,3,0,0,1,188.66,197.18Z"/><path d="M181.13,305.51a3,3,0,0,1-2.47-4.76l45-64.16a3,3,0,1,1,5,3.48l-45,64.15A3,3,0,0,1,181.13,305.51Z"/><path d="M224.44,308.63a15.83,15.83,0,1,1,15.82-15.82A15.84,15.84,0,0,1,224.44,308.63Zm0-25.6a9.78,9.78,0,1,0,9.78,9.78A9.79,9.79,0,0,0,224.44,283Z"/><path d="M181.14,263.68A15.83,15.83,0,1,1,197,247.86,15.84,15.84,0,0,1,181.14,263.68Zm0-25.6a9.78,9.78,0,1,0,9.77,9.78A9.79,9.79,0,0,0,181.14,238.08Z"/><polygon points="257.91 215.41 200.92 149.6 238.27 149.6 238.27 155.65 214.16 155.65 257.91 206.16 301.63 155.65 276.73 155.65 276.73 149.6 314.86 149.6 257.91 215.41"/><path d="M235.23,81.77a3,3,0,0,1-3-3v-13a3,3,0,0,1,6.05,0v13A3,3,0,0,1,235.23,81.77Z"/><path d="M278,105.53a3,3,0,0,1-3-3V85.66a3,3,0,1,1,6,0v16.85A3,3,0,0,1,278,105.53Z"/><path d="M235.23,119.79a3,3,0,0,1-3-3V92.89a3,3,0,0,1,6.05,0v23.87A3,3,0,0,1,235.23,119.79Z"/><path d="M279.79,153.92a3,3,0,0,1-3-3V118.71a3,3,0,1,1,6.05,0v32.18A3,3,0,0,1,279.79,153.92Z"/><path d="M235.23,153.92a3,3,0,0,1-3-3V132.64a3,3,0,0,1,6.05,0v18.25A3,3,0,0,1,235.23,153.92Z"/></svg>