<svg id="Слой_1" data-name="Слой 1" xmlns="http://www.w3.org/2000/svg" xmlns:xlink="http://www.w3.org/1999/xlink" viewBox="0 0 400 400"><defs><style>.cls-1{fill:url(#Безымянный_градиент_5);}</style><linearGradient id="Безымянный_градиент_5" x1="79.19" y1="233.8" x2="309.32" y2="189.67" gradientUnits="userSpaceOnUse"><stop offset="0" stop-color="#1bb6e4"/><stop offset="1" stop-color="#3d7fbb"/></linearGradient></defs><title>Монтажная область 5 копия 19</title><polygon class="cls-1" points="97.07 125.54 145.43 79.43 288.18 79.43 288.18 335.39 98.67 335.39 97.07 125.54"/><path d="M233.84,76.42v6h51.34v250H101.65l-1.56-205.57,46.55-44.39h87.2v-6H144.23L94.06,124.26l1.63,214.13h195.5V132.19h0V76.42Z"/><path d="M156.74,140.88H123.28a3,3,0,0,1,0-6h27.46v-25.6a3,3,0,1,1,6,0Z"/><path d="M243.73,210.41H142.66a3,3,0,0,1,0-6H243.73a3,3,0,0,1,0,6Z"/><path d="M243.73,247H142.66a3,3,0,0,1,0-6H243.73a3,3,0,0,1,0,6Z"/><path d="M243.73,283.63H142.66a3,3,0,0,1,0-6H243.73a3,3,0,0,1,0,6Z"/><path d="M261.28,150.92a5.73,5.73,0,0,1-5.73-5.73V67.34a5.74,5.74,0,0,1,11.47,0v77.85A5.74,5.74,0,0,1,261.28,150.92Z"/><path d="M300.21,112H222.36a5.74,5.74,0,1,1,0-11.47h77.85a5.74,5.74,0,0,1,0,11.47Z"/></svg>