<svg id="Слой_1" data-name="Слой 1" xmlns="http://www.w3.org/2000/svg" xmlns:xlink="http://www.w3.org/1999/xlink" viewBox="0 0 400 400"><defs><style>.cls-1{fill:url(#Безымянный_градиент_5);}.cls-2{fill:url(#Безымянный_градиент_5-2);}</style><linearGradient id="Безымянный_градиент_5" x1="149.11" y1="175.04" x2="315.64" y2="143.1" gradientUnits="userSpaceOnUse"><stop offset="0" stop-color="#1bb6e4"/><stop offset="1" stop-color="#3d7fbb"/></linearGradient><linearGradient id="Безымянный_градиент_5-2" x1="96.37" y1="335.37" x2="212.42" y2="313.11" xlink:href="#Безымянный_градиент_5"/></defs><title>Монтажная область 5 копия 37</title><path class="cls-1" d="M181.79,190.76a14.31,14.31,0,0,1,13.65,3.08c5.33,4.61,4.16,10.73,2.12,15.2-.1.22-.23.43-.34.66h71.13a2.29,2.29,0,1,1,0,4.57H194.23a32.08,32.08,0,0,1-2.68,2.91l-28.61,30a20.07,20.07,0,0,1,5.85,4.19H299.91V61.07H194.42L159,94.87l.87,114.94,13.25-13.76A18.89,18.89,0,0,1,181.79,190.76Zm86.56-4.36h-77a2.29,2.29,0,0,1,0-4.58h77a2.29,2.29,0,0,1,0,4.58Zm2.29-30.17a2.29,2.29,0,0,1-2.29,2.29h-77a2.29,2.29,0,1,1,0-4.57h77A2.29,2.29,0,0,1,270.64,156.23Zm-94-55.22h20.9V81.51a2.29,2.29,0,1,1,4.58,0v24.07H176.64a2.29,2.29,0,1,1,0-4.57Z"/><path d="M304.49,56.5H192.6L154.39,92.92l.92,120.33c1.35-1.59,2.78-3.63,4.53-5.63L159,94.87l35.44-33.8H299.92V251.39H169a46.25,46.25,0,0,1,2.6,4.58H304.49Z"/><path d="M202.13,105.58H176.65a2.29,2.29,0,1,1,0-4.57h20.9V81.51a2.29,2.29,0,0,1,4.58,0Z"/><path d="M268.36,158.52h-77a2.29,2.29,0,0,1,0-4.57h77a2.29,2.29,0,0,1,0,4.57Z"/><path d="M268.36,186.4h-77a2.29,2.29,0,0,1,0-4.58h77a2.29,2.29,0,0,1,0,4.58Z"/><path d="M268.36,214.27h-77c-1.26,0,1.76-1,1.76-2.29a2.16,2.16,0,0,1,2.13-2.28h73.07a2.29,2.29,0,0,1,0,4.57Z"/><polygon points="110.36 306.88 106.24 306.88 106.24 213.35 155.4 169.8 158.13 172.88 110.36 215.2 110.36 306.88"/><path d="M169.41,284.6l-3.49-2.19c5.6-8.92,7.43-16.65,5.43-23a17.86,17.86,0,0,0-9.2-10.33l-2.75-1.16,30.67-32.18a24.7,24.7,0,0,0,5.63-7.58c2.48-5.42,1.94-9.72-1.6-12.79a12.25,12.25,0,0,0-11.78-2.64,16.85,16.85,0,0,0-7.73,4.73l-46.49,48.3-3-2.86,46.5-48.3a21,21,0,0,1,9.63-5.85,16.38,16.38,0,0,1,15.54,3.51c4.94,4.28,5.88,10.54,2.64,17.61a28.4,28.4,0,0,1-6.47,8.79l-26.69,28a21.65,21.65,0,0,1,9,11.5C177.66,265.72,175.68,274.61,169.41,284.6Z"/><rect class="cls-2" x="97.57" y="306.87" width="113.65" height="34.73"/><path d="M201.72,306.87H197.6V288.1l1.7-.3c1-.18,23.58-4.65,21.25-31.65l4.1-.36c2.27,26.25-17,33.91-22.93,35.63Z"/><polygon points="99.63 343.5 95.51 343.5 95.51 304.82 213.28 304.82 213.28 341.61 209.16 341.61 209.16 308.93 99.63 308.93 99.63 343.5"/><circle cx="119.04" cy="327.29" r="3.99"/></svg>