<svg id="Слой_1" data-name="Слой 1" xmlns="http://www.w3.org/2000/svg" xmlns:xlink="http://www.w3.org/1999/xlink" viewBox="0 0 400 400"><defs><style>.cls-1{fill:url(#Безымянный_градиент_5);}</style><linearGradient id="Безымянный_градиент_5" x1="82.34" y1="236.12" x2="297.16" y2="194.93" gradientUnits="userSpaceOnUse"><stop offset="0" stop-color="#1bb6e4"/><stop offset="1" stop-color="#3d7fbb"/></linearGradient></defs><title>Монтажная область 5 копия 41</title><polygon class="cls-1" points="99.03 135.06 144.18 92.02 277.43 92.02 277.43 330.95 100.53 330.95 99.03 135.06"/><path d="M280.23,333.76H97.74L96.22,133.87l46.83-44.66H280.23Zm-176.92-5.61H274.62V94.82H145.3l-43.45,41.44Z"/><path d="M301,309.64a2.81,2.81,0,0,1-2.81-2.81v-235H170.88a2.81,2.81,0,0,1,0-5.61h132.9V306.83A2.8,2.8,0,0,1,301,309.64Z"/><path d="M154.74,149.39H123.5a2.81,2.81,0,1,1,0-5.61h25.63v-23.9a2.81,2.81,0,1,1,5.61,0Z"/><path d="M217.84,210.14H123.5c-1.55,0-2.81-1.53-2.81-3.41s1.26-3.41,2.81-3.41h94.34c1.55,0,2.8,1.53,2.8,3.41S219.39,210.14,217.84,210.14Z"/><path d="M217.84,293.22H123.5a3.47,3.47,0,0,1,0-6.81h94.34c1.55,0,2.8,1.52,2.8,3.41A3.14,3.14,0,0,1,217.84,293.22Z"/><path d="M217.84,239.12H123.5c-1.55,0-2.81-1.53-2.81-3.41a3.15,3.15,0,0,1,2.81-3.41h94.34c1.55,0,2.8,1.52,2.8,3.41S219.39,239.12,217.84,239.12Z"/><path d="M174.47,280.66H122.7c-.87,0-2-1.53-2-3.41s1.14-3.41,2-3.41h51.77c.87,0,2.26,1.53,2.26,3.41S175.34,280.66,174.47,280.66Z"/><path d="M218.54,280.66H181.15c-.65,0-2.26-1.53-2.26-3.41s1.32-3.41,2-3.41h37.48c.65,0,2.31,1.53,2.31,3.41S219.19,280.66,218.54,280.66Z"/><path d="M166.86,219.2h51.78c.87,0,2,1.52,2,3.41s-1.13,3.41-2,3.41H166.86c-.86,0-2.25-1.53-2.25-3.41S166,219.2,166.86,219.2Z"/><path d="M122.8,219.2h37.39c.65,0,2.26,1.52,2.26,3.41s-1.32,3.41-2,3.41H123c-.65,0-2.32-1.53-2.32-3.41S122.15,219.2,122.8,219.2Z"/><path d="M122.3,246.94h28.56c.5,0,1.73,1.43,1.73,3.21s-1,3.2-1.5,3.2H122.46c-.49,0-1.77-1.43-1.77-3.2S121.81,246.94,122.3,246.94Z"/><path d="M156.94,246.94h28.57c.49,0,1.72,1.43,1.72,3.21s-1,3.2-1.5,3.2H157.1c-.49,0-1.76-1.43-1.76-3.2S156.45,246.94,156.94,246.94Z"/><path d="M190.36,246.94h28.56c.5,0,1.72,1.43,1.72,3.21s-1,3.2-1.5,3.2H190.52c-.5,0-1.77-1.43-1.77-3.2S189.87,246.94,190.36,246.94Z"/><path d="M217.84,268.09H123.5a3.15,3.15,0,0,1-2.81-3.41c0-1.88,1.26-3.41,2.81-3.41h94.34c1.55,0,2.8,1.53,2.8,3.41S219.39,268.09,217.84,268.09Z"/><path d="M217.84,309.64H123.5c-1.55,0-2.81-1.53-2.81-3.41a3.15,3.15,0,0,1,2.81-3.41h94.34c1.55,0,2.8,1.52,2.8,3.41S219.39,309.64,217.84,309.64Z"/><rect x="220.64" y="117.07" width="38.98" height="49.46"/><path d="M261.5,168.4H218.77V115.2H261.5Zm-39-3.74h35.24V118.94H222.52Z"/></svg>