<svg id="Слой_1" data-name="Слой 1" xmlns="http://www.w3.org/2000/svg" xmlns:xlink="http://www.w3.org/1999/xlink" viewBox="0 0 100 100"><defs><style>.cls-1{fill:url(#Безымянный_градиент_5);}.cls-2{fill:url(#Безымянный_градиент_5-2);}.cls-3{fill:url(#Безымянный_градиент_5-3);}</style><linearGradient id="Безымянный_градиент_5" x1="22.36" y1="54.44" x2="35.85" y2="51.86" gradientUnits="userSpaceOnUse"><stop offset="0" stop-color="#00b6e5"/><stop offset="1" stop-color="#0080be"/></linearGradient><linearGradient id="Безымянный_градиент_5-2" x1="45.19" y1="27.79" x2="58.69" y2="25.2" xlink:href="#Безымянный_градиент_5"/><linearGradient id="Безымянный_градиент_5-3" x1="63.23" y1="43.87" x2="76.72" y2="41.28" xlink:href="#Безымянный_градиент_5"/></defs><title>Дерево підстаттей</title><path d="M51.88,98a1.65,1.65,0,0,1-1.59-1.71v-63a1.59,1.59,0,1,1,3.18,0v63A1.65,1.65,0,0,1,51.88,98Z"/><line x1="51.85" y1="55.68" x2="64.72" y2="44.32"/><path d="M51.85,57.27a1.56,1.56,0,0,1-1.19-.54,1.58,1.58,0,0,1,.14-2.24L63.67,43.13a1.59,1.59,0,0,1,2.1,2.38L52.89,56.87A1.54,1.54,0,0,1,51.85,57.27Z"/><line x1="33.06" y1="54.72" x2="50.95" y2="63.71"/><path d="M51,65.3a1.65,1.65,0,0,1-.71-.17l-17.9-9a1.59,1.59,0,0,1,1.43-2.83l17.89,9a1.58,1.58,0,0,1-.71,3Z"/><polygon class="cls-1" points="23.4 48.1 26.24 45.39 34.61 45.39 34.61 60.4 23.5 60.4 23.4 48.1"/><path d="M34.79,60.58H23.32L23.23,48l2.94-2.8h8.62Zm-11.12-.35H34.43V45.57H26.31l-2.73,2.6Z"/><path d="M26.9,49h-2a.18.18,0,0,1,0-.36h1.61v-1.5a.17.17,0,0,1,.18-.17.17.17,0,0,1,.17.17Z"/><path d="M32,53.07H26.08a.18.18,0,0,1-.18-.17.18.18,0,0,1,.18-.18H32a.18.18,0,0,1,.18.18A.18.18,0,0,1,32,53.07Z"/><path d="M32,55.22H26.08A.18.18,0,0,1,25.9,55a.18.18,0,0,1,.18-.17H32a.18.18,0,0,1,.18.17A.18.18,0,0,1,32,55.22Z"/><path d="M32,57.37H26.08a.18.18,0,1,1,0-.36H32a.18.18,0,0,1,0,.36Z"/><polygon class="cls-2" points="46.24 21.44 49.08 18.74 57.45 18.74 57.45 33.75 46.34 33.75 46.24 21.44"/><path d="M57.63,33.92H46.16l-.09-12.55L49,18.56h8.62Zm-11.12-.35H57.27V18.91H49.15l-2.73,2.61Z"/><path d="M49.74,22.34h-2a.18.18,0,0,1-.18-.18.18.18,0,0,1,.18-.17h1.61v-1.5a.18.18,0,0,1,.18-.18.18.18,0,0,1,.17.18Z"/><path d="M54.84,26.42H48.92a.18.18,0,1,1,0-.36h5.92a.18.18,0,1,1,0,.36Z"/><path d="M54.84,28.56H48.92a.18.18,0,0,1-.18-.17.18.18,0,0,1,.18-.18h5.92a.18.18,0,0,1,.18.18A.18.18,0,0,1,54.84,28.56Z"/><path d="M54.84,30.71H48.92a.18.18,0,0,1-.18-.18.18.18,0,0,1,.18-.17h5.92a.18.18,0,0,1,.18.17A.18.18,0,0,1,54.84,30.71Z"/><polygon class="cls-3" points="64.28 37.52 67.11 34.82 75.48 34.82 75.48 49.83 64.37 49.83 64.28 37.52"/><path d="M75.66,50H64.19L64.1,37.45,67,34.64h8.62Zm-11.12-.35H75.31V35H67.18L64.45,37.6Z"/><path d="M67.77,38.42h-2a.18.18,0,0,1-.17-.18.18.18,0,0,1,.17-.17h1.61v-1.5a.18.18,0,0,1,.18-.18.17.17,0,0,1,.17.18Z"/><path d="M72.88,42.5H67a.18.18,0,0,1-.18-.18.17.17,0,0,1,.18-.17h5.93a.17.17,0,0,1,.17.17A.18.18,0,0,1,72.88,42.5Z"/><path d="M72.88,44.64H67a.17.17,0,0,1-.18-.17.18.18,0,0,1,.18-.18h5.93a.18.18,0,0,1,.17.18A.17.17,0,0,1,72.88,44.64Z"/><path d="M72.88,46.79H67a.18.18,0,0,1-.18-.17.18.18,0,0,1,.18-.18h5.93a.18.18,0,0,1,.17.18A.18.18,0,0,1,72.88,46.79Z"/><path d="M38.8,76.51c-5.43,0-11.62-.91-16.82-4.08C16.61,69.16,13.16,64,11.73,57.08,10,48.63,11.1,41.71,15,36.49c4.89-6.51,12.67-8.38,15.75-8.88-.08-3.37.3-12.47,6-18.92,3.74-4.22,9-6.47,15.72-6.68C59,1.81,64.22,3.71,68,7.65c6.36,6.58,6.83,16.8,6.8,20.14a24,24,0,0,1,11.14,9c3,4.7,3.84,10.15,2.39,16.21C84.62,68.62,59.58,69.11,53.2,69v5.56l-1,.28A54.81,54.81,0,0,1,38.8,76.51ZM53.42,4.71h-.84C46.67,4.9,42,6.84,38.82,10.47c-6.21,7-5.3,18.09-5.29,18.2L33.65,30l-1.36.11c-.1,0-9.8.88-15.12,8-3.43,4.57-4.36,10.76-2.79,18.41,1.27,6.15,4.3,10.72,9,13.58,9.52,5.8,23.32,3.19,27.1,2.32V66.13l1.43.08c.3,0,30.13,1.51,33.81-13.86,1.27-5.31.59-10.06-2-14.11a20.8,20.8,0,0,0-10.5-8.12L72,29.9l.07-1.2c0-.12.69-12.26-6-19.17C63,6.32,58.72,4.71,53.42,4.71Z"/></svg>