<svg id="Слой_1" data-name="Слой 1" xmlns="http://www.w3.org/2000/svg" xmlns:xlink="http://www.w3.org/1999/xlink" viewBox="0 0 400 400"><defs><style>.cls-1{fill:url(#Безымянный_градиент_5);}</style><linearGradient id="Безымянный_градиент_5" x1="211.73" y1="159.78" x2="326.88" y2="137.7" gradientUnits="userSpaceOnUse"><stop offset="0" stop-color="#1bb6e4"/><stop offset="1" stop-color="#3d7fbb"/></linearGradient></defs><title>Монтажная область 5 копия 26</title><circle class="cls-1" cx="269.31" cy="148.74" r="58.61"/><path d="M269.31,211a62.23,62.23,0,1,1,62.22-62.22A62.29,62.29,0,0,1,269.31,211Zm0-117.23a55,55,0,1,0,55,55A55.07,55.07,0,0,0,269.31,93.73Z"/><path d="M271.23,170.49c-7.07,0-12.83-5.41-12.83-12.06h5.42c0,3.66,3.32,6.65,7.41,6.65a7.28,7.28,0,0,0,7.42-6.81c.17-2.92-3.09-4.69-8.47-7.26s-11.78-5.63-11.78-12.21,5.76-12.06,12.83-12.06,12.82,5.41,12.82,12.06h-5.41c0-3.66-3.32-6.64-7.41-6.64s-7.41,3-7.41,6.64c0,2.95,3.44,4.81,8.69,7.32,5.6,2.68,11.95,5.71,11.54,12.48A12.63,12.63,0,0,1,271.23,170.49Z"/><rect x="267.84" y="123.36" width="6.78" height="5.41" transform="translate(144.81 397.13) rotate(-89.93)"/><rect x="267.85" y="168.7" width="6.78" height="5.41" transform="translate(99.48 442.43) rotate(-89.93)"/><path d="M238.1,313.49h-23a8.79,8.79,0,0,1-8.78-8.78V287H181.59v19a7.55,7.55,0,0,1-7.54,7.54H150.71a6.92,6.92,0,0,1-6.91-6.91V276c-6.61-3.15-23.75-12.77-41.3-34.38a9.43,9.43,0,0,0-7-3.45L89.9,238a11,11,0,0,1-10.34-8.28c-8.8-33.55-12.39-53.56-10.67-59.48,3.16-10.9,11.36-9.8,14.06-9.44a8.77,8.77,0,0,0,.88.11c1.44,0,7.88-.12,13.08-.21a12.1,12.1,0,0,0,8.64-3.8c10.37-10.93,23.82-24.43,31.89-29.83l-.69-33.63,5.52,1.34c.89.21,20.8,5.19,30.48,20.06h21.5a4.38,4.38,0,0,1,0,8.76H167.66l-1.24-2.29c-4.73-8.73-14.49-13.75-20.67-16.18l.56,27-2.42,1.25c-4.89,2.54-16.85,13.58-32,29.54a20.83,20.83,0,0,1-14.84,6.53c-5.26.09-11.78.21-13.25.21a17,17,0,0,1-2-.18c-2.63-.37-3.42-.47-4.48,3.19-.91,3.21,2.06,21.74,10.74,54.82a2.33,2.33,0,0,0,2.18,1.74l5.65.21a18.16,18.16,0,0,1,13.43,6.69c20.34,25,40.24,32.88,40.44,33l2.81,1.08v34.6h20.27V278.22h42.24v26.49l23,0L237.82,271l2.57-1.17c32.18-14.62,39.34-44,39.41-44.32a4.38,4.38,0,0,1,8.53,1.95c-.3,1.34-7.68,32.32-41.75,49.13V305A8.49,8.49,0,0,1,238.1,313.49Z"/><circle cx="143.92" cy="164" r="7.41"/></svg>