<svg id="Слой_1" data-name="Слой 1" xmlns="http://www.w3.org/2000/svg" xmlns:xlink="http://www.w3.org/1999/xlink" viewBox="0 0 400 400"><defs><style>.cls-1{fill:url(#Безымянный_градиент_5);}</style><linearGradient id="Безымянный_градиент_5" x1="7157.15" y1="334.7" x2="7314.08" y2="304.61" gradientTransform="translate(7476 594) rotate(180)" gradientUnits="userSpaceOnUse"><stop offset="0" stop-color="#1bb6e4"/><stop offset="1" stop-color="#3d7fbb"/></linearGradient></defs><title>Монтажная область 5 копия 12</title><path d="M173.58,292.77c-4.37,0-7.4-2-9.26-6.16l-1.43-3.18q-3.24-7.21-6.46-14.43c-.46-1-.81-2.08-1.16-3.11-.65-1.92-1.26-3.73-2.3-4.75-1.27-1.23-3.51-1.94-5.68-2.62-.79-.25-1.58-.5-2.34-.77a2.59,2.59,0,0,0-1.54.08c-6.79,2.72-13.57,5.49-20.34,8.26L117,268.6c-3.44,1.4-6.61.67-9.43-2.16l-2-2c-4-4.08-8.24-8.31-12.57-12.18-3.55-3.17-4.43-6.83-2.69-11.18,1.33-3.3,2.64-6.61,4-9.92q1.69-4.32,3.42-8.62c.38-.94.85-1.88,1.32-2.82.88-1.72,1.7-3.35,1.7-4.73,0-1.64-1-3.63-2.06-5.55-.33-.61-.65-1.23-.94-1.83a3.24,3.24,0,0,0-1.4-1.37c-3.65-1.49-7.32-2.93-11-4.37-4.62-1.82-9.4-3.7-14.08-5.65a15.58,15.58,0,0,1-4.08-2.8c-.47-.41-.94-.82-1.42-1.19l-.9-.67V162l.89-.68c.47-.36.92-.75,1.38-1.14A16.33,16.33,0,0,1,71,157.49c1.18-.54,2.36-1.09,3.53-1.65a115.35,115.35,0,0,1,15.34-6.3c6-1.8,9.2-5,10.45-10.5a3.69,3.69,0,0,0,0-2c-1-2.37-2.11-4.7-3.2-7-1.26-2.69-2.55-5.48-3.73-8.28a115.9,115.9,0,0,1-4.5-12.61,6.9,6.9,0,0,1,1.64-6c4.68-4.77,9.55-9.5,14.26-14.07l2.79-2.72a6.72,6.72,0,0,1,7.32-1.79c2.14.77,4.3,1.49,6.46,2.21a127.15,127.15,0,0,1,15,5.71c6,2.89,10.54,2.86,15.14-.11a4.5,4.5,0,0,0,1.65-1.54c1-2.44,2-4.92,2.92-7.4s2-5.22,3.09-7.79c1.69-4,3.66-7.94,5.55-11.75.91-1.82,2.76-3.84,6.76-3.87l3.66,0c5.77.08,11.75.16,17.58-.11,4.75-.23,8,1.8,10,6.15l.87,1.94q3.51,7.83,7,15.67c.44,1,.8,2,1.16,3.1.65,1.92,1.27,3.74,2.31,4.77,1.23,1.22,3.47,1.9,5.64,2.56.73.23,1.45.45,2.15.69a3.35,3.35,0,0,0,2,0c7.12-2.83,14.2-5.75,21.29-8.66l4.73-1.95c3.55-1.46,6.79-.74,9.64,2.13,4.95,5,10.19,10.08,15.58,15.19,3.16,3,2.91,6.08,2.14,8.12-2.55,6.8-5.16,13.58-7.78,20.35-.4,1-.9,2-1.38,3-.87,1.75-1.7,3.39-1.7,4.8,0,1.63,1,3.62,2,5.53.37.7.73,1.41,1.06,2.1a2.44,2.44,0,0,0,1.05,1c2.57,1,5.16,2,7.75,2.92,2.81,1,5.62,2.06,8.4,3.16,3.39,1.35,6.73,2.91,10,4.43l1.33.62c3,1.38,4.41,3.87,4.34,7.4l0,1.6c-.13,6.15-.27,12.5.09,18.68.27,4.84-1.8,8.14-6.33,10.09-1.88.8-3.74,1.66-5.61,2.52a102.22,102.22,0,0,1-13.23,5.36c-6,1.81-9.2,5-10.44,10.52a3.67,3.67,0,0,0-.07,1.77c1,2.36,2.11,4.7,3.2,7,1.25,2.7,2.55,5.49,3.74,8.29a117.56,117.56,0,0,1,4.56,12.58,7.12,7.12,0,0,1-1.66,6.25c-4.72,4.84-9.64,9.62-14.41,14.25l-2.63,2.55a6.82,6.82,0,0,1-7.33,1.78c-2.11-.76-4.25-1.47-6.39-2.18a115.38,115.38,0,0,1-14.87-5.69c-6-3-10.69-2.93-15.56.16a3.46,3.46,0,0,0-1.32,1.22c-1,2.46-2,4.94-2.91,7.42-1.05,2.75-2.1,5.5-3.23,8.22-1.37,3.28-3,6.5-4.47,9.61l-.79,1.6c-1.37,2.82-3.79,4.25-7.24,4.17l-2.33,0c-6.14-.1-12.48-.2-18.67.09Zm-29.22-39.61a6.33,6.33,0,0,1,2.12.34c.7.26,1.43.49,2.17.72,2.67.84,5.43,1.71,7.46,3.69,1.82,1.77,2.64,4.2,3.43,6.54.31.93.63,1.86,1,2.72q3.21,7.21,6.45,14.41l1.43,3.18c1.2,2.68,2.73,3.63,5.63,3.49,6.33-.3,12.74-.2,18.95-.1l2.33,0c2,.05,2.62-.61,3.12-1.64l.79-1.6c1.49-3.05,3-6.21,4.35-9.36,1.12-2.68,2.15-5.39,3.19-8.1,1-2.51,1.92-5,3-7.52a7.68,7.68,0,0,1,3.08-3.32c6.2-3.93,12.54-4.06,20-.4a111.56,111.56,0,0,0,14.28,5.46c2.18.72,4.36,1.44,6.51,2.21a2.29,2.29,0,0,0,2.66-.76l2.63-2.56c4.74-4.6,9.64-9.36,14.32-14.16a2.94,2.94,0,0,0,.56-1.83,112.71,112.71,0,0,0-4.38-12.09c-1.16-2.73-2.44-5.49-3.68-8.15-1.1-2.37-2.2-4.74-3.25-7.13a7.64,7.64,0,0,1-.19-4.56c1.59-7.05,6-11.58,13.54-13.84a101.33,101.33,0,0,0,12.65-5.15c1.9-.87,3.8-1.75,5.71-2.57,2.83-1.21,3.77-2.7,3.6-5.68-.36-6.36-.22-12.8-.09-19l0-1.6c0-2-.63-2.7-1.74-3.22l-1.33-.63c-3.17-1.48-6.45-3-9.72-4.32-2.74-1.09-5.51-2.1-8.28-3.12s-5.25-1.92-7.85-3a6.89,6.89,0,0,1-3.49-3.33c-.3-.63-.63-1.28-1-1.93-1.19-2.28-2.54-4.87-2.54-7.61,0-2.47,1.11-4.68,2.18-6.82.43-.86.87-1.73,1.21-2.6q3.91-10.12,7.76-20.3c.39-1,.35-2-1-3.26-5.42-5.15-10.69-10.29-15.67-15.29-1.56-1.57-2.89-1.89-4.72-1.14l-4.74,1.95c-7.1,2.92-14.2,5.84-21.33,8.68a7.85,7.85,0,0,1-5.13.12c-.64-.22-1.31-.43-2-.63-2.56-.79-5.47-1.67-7.49-3.67-1.8-1.78-2.62-4.2-3.41-6.53-.31-.93-.63-1.86-1-2.72q-3.47-7.83-7-15.65l-.88-2c-1.2-2.67-2.72-3.62-5.63-3.48-6,.28-12,.19-17.84.11l-3.65,0c-1.62,0-2.24.51-2.64,1.31-1.9,3.81-3.83,7.67-5.46,11.55-1.07,2.53-2.05,5.09-3,7.66s-1.93,5-3,7.53a8.47,8.47,0,0,1-3.36,3.58c-5.93,3.82-12.14,4-19.54.39A123.65,123.65,0,0,0,119.92,91c-2.19-.73-4.39-1.47-6.56-2.25-.7-.25-1.5-.33-2.65.79l-2.79,2.71c-4.69,4.55-9.54,9.26-14.17,14a2.85,2.85,0,0,0-.54,1.65A115.29,115.29,0,0,0,97.53,120c1.15,2.72,2.43,5.47,3.67,8.13,1.11,2.37,2.21,4.74,3.25,7.15a8.11,8.11,0,0,1,.23,4.77c-1.62,7-6.05,11.56-13.55,13.82a111.52,111.52,0,0,0-14.72,6.07l-3.57,1.66a13.3,13.3,0,0,0-2.83,2l-.69.58v25.12l.76.65A11.81,11.81,0,0,0,73,192.05c4.63,1.93,9.39,3.8,14,5.61,3.69,1.45,7.38,2.9,11.06,4.4a7.65,7.65,0,0,1,3.74,3.56c.28.57.58,1.14.88,1.71,1.21,2.3,2.58,4.9,2.58,7.65,0,2.46-1.11,4.65-2.18,6.76-.41.82-.83,1.64-1.16,2.46-1.15,2.87-2.28,5.74-3.42,8.61-1.32,3.31-2.63,6.63-4,9.94-1,2.61-.65,4.21,1.5,6.14,4.43,4,8.67,8.23,12.77,12.37l2,2c1.77,1.77,3.09,1.75,4.52,1.16l6.11-2.5c6.79-2.78,13.57-5.56,20.38-8.28A7.25,7.25,0,0,1,144.36,253.16Zm39.13-35.4h0a42.33,42.33,0,0,1-30.18-12.47,40.75,40.75,0,0,1,.09-58,42.11,42.11,0,0,1,30.2-12.37c23.19.06,42.1,18.61,42.14,41.34a40.75,40.75,0,0,1-12.07,29A42.34,42.34,0,0,1,183.49,217.76Zm0-78.33a37.85,37.85,0,0,0-26.89,11.06,36.25,36.25,0,0,0-.07,51.62,37.87,37.87,0,0,0,27,11.14h0a37.86,37.86,0,0,0,27-11.16,36.24,36.24,0,0,0,10.75-25.81c0-20.25-16.93-36.78-37.64-36.85Z"/><path class="cls-1" d="M250.73,336.86H178.12A8.58,8.58,0,0,1,170.69,324L207,261.11l36.3-62.88a8.59,8.59,0,0,1,14.87,0l36.3,62.88L330.76,324a8.58,8.58,0,0,1-7.43,12.88Z"/><path d="M323.33,340.11H178.12a11.84,11.84,0,0,1-10.25-17.76l72.6-125.75a11.74,11.74,0,0,1,10.26-5.92h0A11.73,11.73,0,0,1,261,196.6l72.6,125.75a11.84,11.84,0,0,1-10.25,17.76Zm-72.6-142.92a5.28,5.28,0,0,0-4.62,2.67l-72.6,125.75a5.33,5.33,0,0,0,4.61,8H323.33a5.33,5.33,0,0,0,4.61-8l-72.6-125.75a5.27,5.27,0,0,0-4.61-2.67Z"/><path d="M254,220.21a47.57,47.57,0,0,1,4.34,18.14c.25,6,0,12.09-.19,18.14s-.71,12.09-1.33,18.14A164.89,164.89,0,0,1,254,292.77h-6.51a164.89,164.89,0,0,1-2.82-18.14c-.62-6.05-1.09-12.1-1.33-18.14s-.44-12.1-.19-18.14a47.57,47.57,0,0,1,4.34-18.14Z"/><circle cx="250.73" cy="313" r="7.67"/></svg>