<svg id="Слой_1" data-name="Слой 1" xmlns="http://www.w3.org/2000/svg" xmlns:xlink="http://www.w3.org/1999/xlink" viewBox="0 0 400 400"><defs><style>.cls-1{fill:url(#Безымянный_градиент_5);}.cls-2{fill:#fff;}</style><linearGradient id="Безымянный_градиент_5" x1="62.02" y1="226.46" x2="337.98" y2="173.54" gradientUnits="userSpaceOnUse"><stop offset="0" stop-color="#1bb6e4"/><stop offset="1" stop-color="#3d7fbb"/></linearGradient></defs><title>2 </title><rect class="cls-1" x="84.38" y="56.91" width="231.24" height="286.17"/><path d="M317.12,344.59H82.88V55.41H317.12Zm-231.23-3H314.11V58.42H85.89Z"/><rect class="cls-2" x="121.75" y="92.77" width="156.5" height="61.32"/><path d="M279.76,155.6H120.24V91.27H279.76Zm-156.5-3H276.74V94.28H123.26Z"/><rect class="cls-2" x="121.75" y="185.67" width="37.99" height="26.83"/><path d="M161.24,214h-41V184.17h41Zm-38-3h35V187.18h-35Z"/><rect class="cls-2" x="182.53" y="185.67" width="37.99" height="26.83"/><path d="M222,214H181V184.17h41Zm-38-3h35V187.18H184Z"/><rect class="cls-2" x="240.26" y="185.67" width="37.99" height="26.83"/><path d="M279.76,214h-41V184.17h41Zm-38-3h35V187.18h-35Z"/><rect class="cls-2" x="121.75" y="232.58" width="37.99" height="26.83"/><path d="M161.24,260.91h-41V231.07h41Zm-38-3h35V234.08h-35Z"/><rect class="cls-2" x="182.53" y="232.58" width="37.99" height="26.83"/><path d="M222,260.91H181V231.07h41Zm-38-3h35V234.08H184Z"/><rect class="cls-2" x="240.26" y="232.58" width="37.99" height="26.83"/><path d="M279.76,260.91h-41V231.07h41Zm-38-3h35V234.08h-35Z"/><rect class="cls-2" x="121.75" y="276.69" width="37.99" height="26.83"/><path d="M161.24,305h-41V275.19h41Zm-38-3h35V278.2h-35Z"/><rect class="cls-2" x="182.53" y="276.69" width="37.99" height="26.83"/><path d="M222,305H181V275.19h41Zm-38-3h35V278.2H184Z"/><rect class="cls-2" x="240.26" y="276.69" width="37.99" height="26.83"/><path d="M279.76,305h-41V275.19h41Zm-38-3h35V278.2h-35Z"/></svg>