<svg id="Слой_1" data-name="Слой 1" xmlns="http://www.w3.org/2000/svg" xmlns:xlink="http://www.w3.org/1999/xlink" viewBox="0 0 100 100"><defs><style>.cls-1{fill:url(#Безымянный_градиент_5);}</style><linearGradient id="Безымянный_градиент_5" x1="6.03" y1="31.89" x2="93.97" y2="15.03" gradientUnits="userSpaceOnUse"><stop offset="0" stop-color="#00b6e5"/><stop offset="1" stop-color="#0080be"/></linearGradient></defs><title>Календар</title><rect class="cls-1" x="6.27" y="13.81" width="87.47" height="19.3"/><path d="M94.83,96H5.17V11.55H94.83ZM7.36,93.81H92.64V13.74H7.36Z"/><path d="M23.71,23.63h0a1.1,1.1,0,0,1-1.08-1.11l.26-17.44A1.13,1.13,0,0,1,24,4a1.09,1.09,0,0,1,1.08,1.11L24.8,22.55A1.1,1.1,0,0,1,23.71,23.63Z"/><path d="M49.87,23.63h0a1.09,1.09,0,0,1-1.07-1.11L49,5.08A1.11,1.11,0,0,1,50.15,4a1.09,1.09,0,0,1,1.07,1.11L51,22.55A1.09,1.09,0,0,1,49.87,23.63Z"/><path d="M76.71,23.63h0a1.09,1.09,0,0,1-1.08-1.11l.26-17.44A1.14,1.14,0,0,1,77,4a1.09,1.09,0,0,1,1.08,1.11L77.8,22.55A1.1,1.1,0,0,1,76.71,23.63Z"/><path d="M93.73,34.56H6.27a1.09,1.09,0,1,1,0-2.18H93.73a1.09,1.09,0,1,1,0,2.18Z"/><rect x="20.03" y="44.04" width="7.61" height="7.03" rx="1.02"/><rect x="20.03" y="60.06" width="7.61" height="7.03" rx="1.02"/><rect x="20.03" y="76.98" width="7.61" height="7.03" rx="1.02"/><rect x="33.44" y="44.04" width="7.61" height="7.03" rx="1.02"/><rect x="33.44" y="60.06" width="7.61" height="7.03" rx="1.02"/><rect x="33.44" y="76.98" width="7.61" height="7.03" rx="1.02"/><rect x="47.1" y="44.04" width="7.61" height="7.03" rx="1.02"/><rect x="47.1" y="60.06" width="7.61" height="7.03" rx="1.02"/><rect x="47.1" y="76.98" width="7.61" height="7.03" rx="1.02"/><rect x="59.6" y="44.04" width="7.61" height="7.03" rx="1.02"/><rect x="59.6" y="60.06" width="7.61" height="7.03" rx="1.02"/><rect x="59.6" y="76.98" width="7.61" height="7.03" rx="1.02"/><rect x="73.27" y="44.04" width="7.61" height="7.03" rx="1.02"/><rect x="73.27" y="60.06" width="7.61" height="7.03" rx="1.02"/><rect x="73.27" y="76.98" width="7.61" height="7.03" rx="1.02"/></svg>