<svg id="Слой_1" data-name="Слой 1" xmlns="http://www.w3.org/2000/svg" xmlns:xlink="http://www.w3.org/1999/xlink" viewBox="0 0 100 100"><defs><style>.cls-1{fill:url(#Безымянный_градиент_5);}.cls-2,.cls-3,.cls-4{stroke:#000;stroke-linecap:round;stroke-miterlimit:10;stroke-width:4px;}.cls-2{fill:url(#Безымянный_градиент_5-2);}.cls-3{fill:none;}.cls-4{fill:url(#Безымянный_градиент_5-3);}</style><linearGradient id="Безымянный_градиент_5" x1="29.89" y1="59.49" x2="80.3" y2="49.82" gradientUnits="userSpaceOnUse"><stop offset="0" stop-color="#00b6e5"/><stop offset="1" stop-color="#0080be"/></linearGradient><linearGradient id="Безымянный_градиент_5-2" x1="85" y1="22.3" x2="85" y2="22.3" xlink:href="#Безымянный_градиент_5"/><linearGradient id="Безымянный_градиент_5-3" x1="1428.76" y1="4893.61" x2="1428.76" y2="4893.61" gradientTransform="translate(1445.91 4971.31) rotate(180)" xlink:href="#Безымянный_градиент_5"/></defs><title>Cashflow</title><circle class="cls-1" cx="55.1" cy="54.66" r="25.66"/><path d="M55.1,81.26a26.61,26.61,0,1,1,26.6-26.6A26.64,26.64,0,0,1,55.1,81.26Zm0-51.32A24.72,24.72,0,1,0,79.81,54.66,24.75,24.75,0,0,0,55.1,29.94Z"/><path d="M55.09,66.21a6.39,6.39,0,0,1-6.58-6.15H50.4a4.5,4.5,0,0,0,4.69,4.26A4.62,4.62,0,0,0,59.79,60c.12-2-1.92-3.1-5-4.59-2.92-1.4-6.24-3-6.24-6.29a6.6,6.6,0,0,1,13.16,0H59.78a4.71,4.71,0,0,0-9.38,0c0,2.12,2.51,3.32,5.16,4.59,3,1.41,6.32,3,6.11,6.4A6.48,6.48,0,0,1,55.09,66.21Z"/><rect x="53.21" y="41.09" width="3.77" height="1.89" transform="translate(12.99 97.07) rotate(-89.93)"/><rect x="53.21" y="66.34" width="3.77" height="1.89" transform="translate(-12.26 122.29) rotate(-89.93)"/><line class="cls-2" x1="85" y1="11.8" x2="85" y2="32.79"/><polyline class="cls-3" points="75.74 20.8 85 10.8 94 20.8"/><line class="cls-4" x1="17.15" y1="88.2" x2="17.15" y2="67.21"/><polyline class="cls-3" points="26.41 79.2 17.15 89.2 6 78.2"/></svg>