<svg id="Слой_1" data-name="Слой 1" xmlns="http://www.w3.org/2000/svg" xmlns:xlink="http://www.w3.org/1999/xlink" viewBox="0 0 400 400"><defs><style>.cls-1{fill:url(#Безымянный_градиент_5);}.cls-2{fill:url(#Безымянный_градиент_5-2);}.cls-3{fill:url(#Безымянный_градиент_5-3);}</style><linearGradient id="Безымянный_градиент_5" x1="65.52" y1="208.66" x2="164.37" y2="189.7" gradientUnits="userSpaceOnUse"><stop offset="0" stop-color="#1bb6e4"/><stop offset="1" stop-color="#3d7fbb"/></linearGradient><linearGradient id="Безымянный_градиент_5-2" x1="152.45" y1="255.14" x2="233.46" y2="239.6" xlink:href="#Безымянный_градиент_5"/><linearGradient id="Безымянный_градиент_5-3" x1="226.02" y1="232.08" x2="315.88" y2="214.84" xlink:href="#Безымянный_градиент_5"/></defs><title>Монтажная область 5 копия 35</title><path d="M342.21,318.64H57.79a2.24,2.24,0,0,1,0-4.48H342.21a2.24,2.24,0,1,1,0,4.48Z"/><rect class="cls-1" x="85.87" y="83.6" width="58.15" height="231.15"/><path d="M146.27,317H83.63V81.36h62.64Zm-58.16-4.49h53.67V85.84H88.11Z"/><rect class="cls-2" x="163.88" y="179.99" width="58.15" height="134.77"/><path d="M224.27,317H161.64V177.75h62.63Zm-58.15-4.49h53.67V182.23H166.12Z"/><rect class="cls-3" x="241.87" y="132.17" width="58.15" height="182.59"/><path d="M302.27,317H239.63V129.92h62.64Zm-58.15-4.49h53.67V134.41H244.12Z"/></svg>