<svg id="Слой_1" data-name="Слой 1" xmlns="http://www.w3.org/2000/svg" xmlns:xlink="http://www.w3.org/1999/xlink" viewBox="0 0 400 400"><defs><style>.cls-1{fill:url(#Безымянный_градиент_5);}</style><linearGradient id="Безымянный_градиент_5" x1="64.92" y1="228.8" x2="329.46" y2="178.07" gradientUnits="userSpaceOnUse"><stop offset="0" stop-color="#1bb6e4"/><stop offset="1" stop-color="#3d7fbb"/></linearGradient></defs><title>Монтажная область 5 копия 40</title><path class="cls-1" d="M123.55,255.11a71.78,71.78,0,0,0,46.38,17h90.31A72.32,72.32,0,0,0,332.35,200h0a72.32,72.32,0,0,0-72.11-72.11H169.93A72.32,72.32,0,0,0,97.82,200h0a71.52,71.52,0,0,0,3.53,22.24l-31.1,34.37Z"/><path d="M260.24,274.1H169.93a74,74,0,0,1-47.07-17l-57.2,1.62,33.45-37a74.08,74.08,0,0,1,70.82-95.85h90.31a74.1,74.1,0,0,1,0,148.2Zm-136-21,.58.49a70.08,70.08,0,0,0,45.1,16.53h90.31a70.12,70.12,0,1,0,0-140.24H169.93A70.19,70.19,0,0,0,99.81,200a69.4,69.4,0,0,0,3.43,21.62l.36,1.1L74.84,254.49Z"/><circle cx="216.69" cy="200" r="14.47"/><circle cx="168.79" cy="200" r="14.47"/><circle cx="263.59" cy="200" r="14.47"/></svg>