<svg id="Слой_1" data-name="Слой 1" xmlns="http://www.w3.org/2000/svg" xmlns:xlink="http://www.w3.org/1999/xlink" viewBox="0 0 100 100"><defs><style>.cls-1{fill:url(#Безымянный_градиент_4);}</style><linearGradient id="Безымянный_градиент_4" x1="7.02" y1="50.21" x2="93.01" y2="50.21" gradientUnits="userSpaceOnUse"><stop offset="0" stop-color="#00b6e5"/><stop offset="0.32" stop-color="#00a8db"/><stop offset="0.93" stop-color="#0085c1"/><stop offset="1" stop-color="#0080be"/></linearGradient></defs><title>Робота з клієнтами</title><path class="cls-1" d="M7,24.62V62.33H18.08V58l6.8.23s6.69,18.5,14,18.53,9.45-1,9.45-1,7.5.35,10.26-2.19,6.69.3,10.38-4.8.71-6.72.81-6.44,11.06,1,11.06,1v4.45L93,67.92V27.25H80.79L80.56,33,67.3,25.79H47L43.9,28.27H18.43L18,23.66H7Z"/><path d="M19.45,64.38H7a1,1,0,0,1,0-2H17.4V24.62H7a1,1,0,0,1,0-2.05H19.45Z"/><path d="M93,68.77H80v-43H93a1,1,0,0,1,0,2.05H82V66.72H93a1,1,0,0,1,0,2Z"/><path d="M34.21,29.3H18.42a1,1,0,0,1,0-2.05H34.21a1,1,0,1,1,0,2.05Z"/><path d="M81,64.38H70.76a1,1,0,1,1,0-2H81a1,1,0,0,1,0,2Z"/><path d="M67.44,70.6c-3.22,0-5.83-3.75-7.1-5.56a66.05,66.05,0,0,1-5.79-9.49,1,1,0,1,1,1.86-.84A66.92,66.92,0,0,0,62,63.87c2.17,3.11,4.5,5.77,6.91,4.17,1.92-1.27,1-3.68-.33-6.69-.18-.39-.35-.77-.49-1.12a171.33,171.33,0,0,0-9.73-19,3.23,3.23,0,0,0-2.45-1.59l-4.43-.48a2,2,0,0,0-1.73.67c-2.14,2.47-6.27,6.85-9.89,8.43C35.51,50.13,32,46.28,30.69,44l-.34-.61L44.9,26a4.68,4.68,0,0,1,3.6-1.68H64.79a8.21,8.21,0,0,1,3.45.75l13.18,6.06a1,1,0,0,1,.5,1.36,1,1,0,0,1-1.36.5L67.38,26.94a6.11,6.11,0,0,0-2.59-.57H48.5a2.64,2.64,0,0,0-2,.95L32.84,43.56c.87,1.28,3.21,4.1,6.22,2.78,3.37-1.47,7.53-6,9.16-7.9a4.05,4.05,0,0,1,3.5-1.36l4.43.47a5.3,5.3,0,0,1,4,2.6A172.3,172.3,0,0,1,70,59.44c.14.34.31.69.48,1.07,1.24,2.75,3.11,6.9-.4,9.23A4.66,4.66,0,0,1,67.44,70.6Z"/><path d="M38.71,77.43l-.17,0c-7-1.16-13.18-14.87-14.55-18.07H18.42a1,1,0,0,1,0-2.05h6.94l.26.64c1.84,4.55,7.79,16.55,13.26,17.46a1,1,0,0,1-.17,2Z"/><path d="M49.12,76.77c-6.6,0-9.62-9.53-9.75-9.93a1,1,0,0,1,.68-1.28,1,1,0,0,1,1.28.67c0,.09,2.7,8.49,7.79,8.49a1,1,0,1,1,0,2Z"/><path d="M58.67,74.2c-7.05,0-11.94-13-12.15-13.56a1,1,0,0,1,.6-1.31,1,1,0,0,1,1.32.6c1.35,3.65,5.94,13,10.83,12.17a1,1,0,1,1,.32,2A5.82,5.82,0,0,1,58.67,74.2Z"/><circle cx="9.22" cy="53.82" r="2.19"/><circle cx="90.35" cy="57.44" r="2.19"/></svg>