<svg id="Слой_1" data-name="Слой 1" xmlns="http://www.w3.org/2000/svg" xmlns:xlink="http://www.w3.org/1999/xlink" viewBox="0 0 400 400"><defs><style>.cls-1{fill:url(#Безымянный_градиент_5);}</style><linearGradient id="Безымянный_градиент_5" x1="78.64" y1="190.98" x2="197.56" y2="190.98" gradientUnits="userSpaceOnUse"><stop offset="0" stop-color="#1bb6e4"/><stop offset="1" stop-color="#3d7fbb"/></linearGradient></defs><title>Монтажная область 5 копия 34</title><polygon class="cls-1" points="197.56 168.34 197.56 68.41 78.64 116.65 78.64 313.56 180.02 313.56 180.02 300.4 180.02 292.11 180.02 204.02 197.56 204.02 197.56 168.34"/><path d="M105,335.08H67a3.49,3.49,0,0,1,0-7h38a3.49,3.49,0,1,1,0,7Z"/><path d="M333.05,335.08H122.51a3.49,3.49,0,1,1,0-7H333.05a3.49,3.49,0,1,1,0,7Z"/><path d="M78.64,314.61a3.48,3.48,0,0,1-3.48-3.49V116.17a3.48,3.48,0,0,1,2.18-3.23L196.26,65.17a3.49,3.49,0,0,1,4.79,3.24v98.94a3.49,3.49,0,0,1-7,0V73.57l-112,45V311.12A3.49,3.49,0,0,1,78.64,314.61Z"/><path d="M127,158.65H97.77a3.49,3.49,0,1,1,0-7H127a3.49,3.49,0,0,1,0,7Z"/><path d="M127,207.51H97.77a3.49,3.49,0,1,1,0-7H127a3.49,3.49,0,0,1,0,7Z"/><path d="M180,158.65H150.77a3.49,3.49,0,0,1,0-7H180a3.49,3.49,0,0,1,0,7Z"/><path d="M161.5,207.51H148.83a3.49,3.49,0,0,1,0-7H161.5a3.49,3.49,0,1,1,0,7Z"/><path d="M306.25,186.92H197.56a3.49,3.49,0,0,1,0-7H306.25a3.49,3.49,0,0,1,0,7Z"/><path d="M126.28,236.26H97a3.49,3.49,0,1,1,0-7h29.24a3.49,3.49,0,1,1,0,7Z"/><path d="M160.77,236.26H148.09a3.49,3.49,0,0,1,0-7h12.68a3.49,3.49,0,0,1,0,7Z"/><path d="M127.75,265H98.5a3.49,3.49,0,0,1,0-7h29.25a3.49,3.49,0,0,1,0,7Z"/><path d="M162.23,265H149.56a3.49,3.49,0,0,1,0-7h12.67a3.49,3.49,0,1,1,0,7Z"/><path d="M127.26,293.77H98a3.49,3.49,0,1,1,0-7h29.24a3.49,3.49,0,1,1,0,7Z"/><path d="M161.74,293.77H149.07a3.49,3.49,0,1,1,0-7h12.67a3.49,3.49,0,1,1,0,7Z"/><path d="M322.82,314.61a3.49,3.49,0,0,1-3.49-3.49V207.51H183.51V311.12a3.49,3.49,0,1,1-7,0V200.53H326.31V311.12A3.49,3.49,0,0,1,322.82,314.61Z"/><path d="M309.73,295.6h-22a3.49,3.49,0,1,1,0-7h15V268.31H201.05v20.32h59.38a3.49,3.49,0,1,1,0,7H194.08V261.33H309.73Z"/><path d="M309.73,253.2h-22a3.49,3.49,0,0,1,0-7h15V225.91H201.05v20.31h59.38a3.49,3.49,0,0,1,0,7H194.08V218.93H309.73Z"/></svg>