<svg id="Слой_1" data-name="Слой 1" xmlns="http://www.w3.org/2000/svg" xmlns:xlink="http://www.w3.org/1999/xlink" viewBox="0 0 400 400"><defs><style>.cls-1{fill:url(#Безымянный_градиент_5);}.cls-2{fill:url(#Безымянный_градиент_5-2);}.cls-3{fill:url(#Безымянный_градиент_5-3);}</style><linearGradient id="Безымянный_градиент_5" x1="151.47" y1="217.38" x2="248.2" y2="198.83" gradientUnits="userSpaceOnUse"><stop offset="0" stop-color="#1bb6e4"/><stop offset="1" stop-color="#3d7fbb"/></linearGradient><linearGradient id="Безымянный_градиент_5-2" x1="79.51" y1="252.48" x2="134.46" y2="241.94" xlink:href="#Безымянный_градиент_5"/><linearGradient id="Безымянный_градиент_5-3" x1="265.03" y1="254.22" x2="319.98" y2="243.68" xlink:href="#Безымянный_градиент_5"/></defs><title>Монтажная область 5 копия 21</title><polygon class="cls-1" points="234.26 295.72 163.83 281.82 179.53 193.43 161.54 148.87 193.99 115.01 238.88 150.22 219.82 193.43 234.26 295.72"/><polygon class="cls-2" points="126.66 295.74 86.33 288.04 95.32 239.03 85.02 214.32 103.6 195.55 129.31 215.08 118.39 239.03 126.66 295.74"/><polygon class="cls-3" points="312.18 297.48 271.85 289.77 280.84 240.77 270.54 216.06 289.12 197.29 314.83 216.81 303.91 240.77 312.18 297.48"/><path d="M284.05,292.15c-1.7-11.49-10.64-60-19.15-72.15s-31.07-16.38-34.9-17.23a16.94,16.94,0,0,0-7.23-6s13.4-15.54,17.66-27.88c1.82-4.26,5.57-14.68,1.82-22.35,0-7.87,5.63-50.43-42-51.5-47.67,1.07-42.05,43.63-42.05,51.5-3.74,7.67,0,18.09,1.83,22.35,4.25,12.34,17.66,27.88,17.66,27.88a17,17,0,0,0-7.24,6c-3.83.85-26.38,5.1-34.9,17.23s-17.45,60.66-19.15,72.15,6,12.77,6,12.77H278.1S285.76,303.64,284.05,292.15Zm-90.67-61.53c-.73,4.53-4.41,1.58-4.41,1.58l-6.84-9.89V207.05c1.57-3.58,5.57-.53,8.31.63s2.73,2.32,2.73,2.32l.21,5.89C195.91,216.84,194.12,226.1,193.38,230.62Zm-.93-34.77c-17.84-9.63-21.15-33-21.15-33-1.9.15-4-2.37-3.79-5.84s3.79-3.48,3.79-3.48c-.43-11.53,16.1-10.57,21.78-10.1s11.84,8.05,16.89,10.1,7.73,2.37,16.41-1.1c9.32-.63,6.32,9.31,5.06,9.63s-1.9,2.05-1.9,2.05c-5.37,24.47-21.62,31.73-21.62,31.73Zm26.76,26.46-6.84,9.89s-3.69,3-4.42-1.58-2.53-13.78,0-14.73l.21-5.89s0-1.16,2.73-2.32,6.74-4.21,8.32-.63Z"/><path d="M157.24,297.31c-1-6.84-6.34-35.73-11.41-42.95s-18.5-9.75-20.78-10.26a10.13,10.13,0,0,0-4.3-3.55s8-9.25,10.51-16.59c1.09-2.54,3.32-8.75,1.09-13.31,0-4.69,3.35-30-25-30.66-28.38.63-25,26-25,30.66-2.22,4.56,0,10.77,1.09,13.31,2.53,7.34,10.52,16.59,10.52,16.59a10.11,10.11,0,0,0-4.31,3.55c-2.28.51-15.71,3-20.78,10.26s-10.39,36.11-11.4,42.95,3.54,7.61,3.54,7.61h92.75S158.25,304.16,157.24,297.31Zm-54-36.63c-.43,2.7-2.63.94-2.63.94l-4.07-5.89v-9.08c.94-2.13,3.32-.31,5,.38s1.63,1.37,1.63,1.37l.12,3.51C104.76,252.48,103.69,258,103.25,260.68ZM102.7,240c-10.62-5.73-12.6-19.64-12.6-19.64-1.12.09-2.34-1.41-2.25-3.48a2.2,2.2,0,0,1,2.25-2.06c-.25-6.87,9.59-6.3,13-6s7.05,4.79,10.06,6,4.6,1.41,9.77-.66c5.55-.38,3.76,5.54,3,5.73s-1.13,1.22-1.13,1.22C121.59,235.66,111.91,240,111.91,240Zm15.93,15.75-4.07,5.89s-2.2,1.76-2.64-.94-1.5-8.2,0-8.77l.13-3.51s0-.68,1.63-1.37,4-2.51,4.95-.38Z"/><path d="M342.6,297.31c-1-6.84-6.33-35.73-11.4-42.95s-18.5-9.75-20.78-10.26a10.11,10.11,0,0,0-4.31-3.55s8-9.25,10.52-16.59c1.09-2.54,3.31-8.75,1.09-13.31,0-4.69,3.34-30-25-30.66-28.38.63-25,26-25,30.66-2.23,4.56,0,10.77,1.09,13.31,2.53,7.34,10.51,16.59,10.51,16.59a10.13,10.13,0,0,0-4.3,3.55c-2.28.51-15.71,3-20.78,10.26s-10.39,36.11-11.41,42.95,3.55,7.61,3.55,7.61h92.74S343.62,304.16,342.6,297.31Zm-54-36.63c-.44,2.7-2.63.94-2.63.94l-4.07-5.89v-9.08c.94-2.13,3.32-.31,4.95.38s1.63,1.37,1.63,1.37l.12,3.51C290.12,252.48,289.06,258,288.62,260.68Zm-.56-20.7c-10.61-5.73-12.59-19.64-12.59-19.64-1.13.09-2.35-1.41-2.25-3.48a2.2,2.2,0,0,1,2.25-2.06c-.25-6.87,9.59-6.3,13-6s7.05,4.79,10.05,6,4.61,1.41,9.78-.66c5.54-.38,3.76,5.54,3,5.73s-1.13,1.22-1.13,1.22C307,235.66,297.27,240,297.27,240ZM304,255.73l-4.08,5.89s-2.19,1.76-2.63-.94-1.5-8.2,0-8.77l.13-3.51s0-.68,1.63-1.37,4-2.51,4.95-.38Z"/></svg>