<svg id="Слой_1" data-name="Слой 1" xmlns="http://www.w3.org/2000/svg" xmlns:xlink="http://www.w3.org/1999/xlink" viewBox="0 0 400 400"><defs><style>.cls-1{fill:url(#Безымянный_градиент_5);}.cls-2{fill:url(#Безымянный_градиент_5-2);}</style><linearGradient id="Безымянный_градиент_5" x1="89.02" y1="148.13" x2="309.93" y2="105.76" gradientUnits="userSpaceOnUse"><stop offset="0" stop-color="#1bb6e4"/><stop offset="1" stop-color="#3d7fbb"/></linearGradient><linearGradient id="Безымянный_градиент_5-2" x1="92.98" y1="300.45" x2="315.91" y2="257.7" xlink:href="#Безымянный_градиент_5"/></defs><title>Монтажная область 5 копия 27</title><path class="cls-1" d="M301.85,63.6H149.71L98.16,112.75l.66,86.49-.66-29.12c7.83-.53,21.73.28,29.57-.31,6.56-.48-2,11,4.56,10.49,11.07-.85,43.27-1.39,54.35-2.27,8.44-.68,7.89-3.86,16.32-4.53,13.36-1.05,16.78,2.25,30.12,1.27,2.9-.21,26.07,10.3,32.89,11.95,6.36,1.53-.45-11.11,5.66-10.14,10.29,1.62,27.85.16,30.22,0Z"/><path class="cls-2" d="M98.82,258.44l1.05,78h202v-69c-2.74.21-30.22,1.43-30.22,1.43L269,258.44c-5.64.44-20.86-3.31-20,2.28,2.21,13.85-17.84,18.51-28.44,20.73-6.12,1.29-16.06,5.94-22.26,6.86-16.81,2.51-21.78-.22-24.61,0-8.4.67-29.51-40.43-29.51-40.43-10.26.81-3.59-1.38-13.83-.61l-.31,11.17C119,259.18,110,257.84,98.82,258.44Z"/><path d="M243.93,60.4v6.4h54.71V333.2H103.05l-1.67-219.09L151,66.8h92.94V60.4h-95.5L95,111.38,96.69,339.6H305.05V119.83h0V60.4Z"/><path d="M161.76,129.1H126.1a3.21,3.21,0,0,1,0-6.41h29.26V95.4a3.2,3.2,0,1,1,6.4,0Z"/><path d="M132.29,260.72H104.61a2.28,2.28,0,0,1,0-4.56h23.12v-84H104.61a2.28,2.28,0,1,1,0-4.56h27.68Z"/><path d="M296.05,270.49h-29V174.77h29a2.28,2.28,0,0,1,0,4.56H271.63v86.6h24.42a2.28,2.28,0,0,1,0,4.56Z"/><path d="M165.17,182.58H130a2.28,2.28,0,1,1,0-4.55h35.16a2.28,2.28,0,1,1,0,4.55Z"/><path d="M269.35,260.72H246.56a2.28,2.28,0,1,1,0-4.56h22.79a2.28,2.28,0,0,1,0,4.56Z"/><path d="M239.18,274.57c-7.19,0-13-8.34-15.81-12.38-9.54-13.69-12.78-20.83-12.91-21.13a2.28,2.28,0,0,1,4.16-1.87c0,.07,3.24,7.11,12.49,20.39,4.82,6.93,10,12.87,15.39,9.29,4.26-2.84,2.29-8.19-.74-14.89-.4-.88-.78-1.72-1.1-2.5C234,235.6,225.6,220.46,219,209a7.2,7.2,0,0,0-5.46-3.54l-9.87-1.06a4.49,4.49,0,0,0-3.85,1.5c-4.77,5.5-14,15.26-22,18.78-9.75,4.27-17.66-4.32-20.49-9.46l-.75-1.36L189,175.26a10.42,10.42,0,0,1,8-3.74h36.28a18.34,18.34,0,0,1,7.68,1.67L270.3,186.7a2.28,2.28,0,1,1-1.9,4.14L239,177.34a13.67,13.67,0,0,0-5.77-1.27H197a5.9,5.9,0,0,0-4.53,2.11l-30.34,36.18c1.94,2.85,7.15,9.12,13.86,6.18,7.49-3.28,16.76-13.39,20.39-17.58a9,9,0,0,1,7.78-3.05L214,201a11.77,11.77,0,0,1,8.93,5.79c6.66,11.54,15.17,26.85,21.91,43,.31.74.67,1.54,1,2.38,2.76,6.12,6.94,15.36-.89,20.57A10.45,10.45,0,0,1,239.18,274.57Z"/><path d="M175.18,289.78a2.31,2.31,0,0,1-.37,0c-15.5-2.59-29.37-33.14-32.4-40.26H130a2.28,2.28,0,1,1,0-4.56h15.45l.58,1.43c4.08,10.13,17.34,36.86,29.51,38.89a2.28,2.28,0,0,1-.37,4.53Z"/><path d="M198.38,288.31c-14.7,0-21.44-21.21-21.71-22.11a2.28,2.28,0,0,1,4.35-1.35c.06.19,6,18.9,17.36,18.9a2.28,2.28,0,1,1,0,4.56Z"/><path d="M219.64,282.59c-15.7,0-26.59-28.91-27.06-30.19a2.28,2.28,0,0,1,4.27-1.59c3,8.14,13.24,28.89,24.12,27.11a2.28,2.28,0,0,1,.72,4.5A13.08,13.08,0,0,1,219.64,282.59Z"/><circle cx="109.5" cy="237.2" r="4.88"/><circle cx="290.19" cy="245.26" r="4.88"/></svg>