<svg id="Слой_1" data-name="Слой 1" xmlns="http://www.w3.org/2000/svg" xmlns:xlink="http://www.w3.org/1999/xlink" viewBox="0 0 400 400"><defs><style>.cls-1{fill:url(#Безымянный_градиент_5);}</style><linearGradient id="Безымянный_градиент_5" x1="192.27" y1="252.34" x2="331.3" y2="225.68" gradientUnits="userSpaceOnUse"><stop offset="0" stop-color="#1bb6e4"/><stop offset="1" stop-color="#3d7fbb"/></linearGradient></defs><title>Монтажная область 5 копия 29</title><circle class="cls-1" cx="261.78" cy="239.01" r="70.77"/><path d="M261.78,312.14A73.13,73.13,0,1,1,334.91,239,73.22,73.22,0,0,1,261.78,312.14Zm0-141.54A68.41,68.41,0,1,0,330.2,239,68.49,68.49,0,0,0,261.78,170.6Z"/><path d="M235.49,275.75a2.36,2.36,0,0,1-1.93-3.71l51.65-73.57a2.36,2.36,0,0,1,3.86,2.71l-51.65,73.57A2.36,2.36,0,0,1,235.49,275.75Z"/><path d="M285.15,279.33a17,17,0,1,1,17-17A17.05,17.05,0,0,1,285.15,279.33Zm0-29.36a12.33,12.33,0,1,0,12.32,12.32A12.33,12.33,0,0,0,285.15,250Z"/><path d="M235.49,227.78a17,17,0,1,1,17-17A17,17,0,0,1,235.49,227.78Zm0-29.35a12.32,12.32,0,1,0,12.32,12.32A12.34,12.34,0,0,0,235.49,198.43Z"/><path d="M180.42,242.21H97A31.94,31.94,0,0,1,65.09,210.3V119.77A32,32,0,0,1,97,87.86H280.31a32,32,0,0,1,31.91,31.91V168a2.36,2.36,0,0,1-4.72,0V119.77a27.22,27.22,0,0,0-27.19-27.19H97a27.23,27.23,0,0,0-27.2,27.19V210.3A27.23,27.23,0,0,0,97,237.5h83.42a2.36,2.36,0,1,1,0,4.71Z"/><path d="M309.86,130.36H67.45a2.36,2.36,0,1,1,0-4.71H309.86a2.36,2.36,0,1,1,0,4.71Z"/><path d="M309.86,153.18H67.45a2.36,2.36,0,1,1,0-4.71H309.86a2.36,2.36,0,1,1,0,4.71Z"/></svg>