<svg id="Слой_1" data-name="Слой 1" xmlns="http://www.w3.org/2000/svg" xmlns:xlink="http://www.w3.org/1999/xlink" viewBox="0 0 100 100"><defs><style>.cls-1{fill:url(#Безымянный_градиент_5);}</style><linearGradient id="Безымянный_градиент_5" x1="20.32" y1="58.31" x2="86.8" y2="45.56" gradientUnits="userSpaceOnUse"><stop offset="0" stop-color="#00b6e5"/><stop offset="1" stop-color="#0080be"/></linearGradient></defs><title>Видалити</title><path class="cls-1" d="M69.81,92.83H30a3.91,3.91,0,0,1-3.73-3.7L19.17,14.45H80.83L73.54,89.14A3.91,3.91,0,0,1,69.81,92.83Z"/><path d="M69.81,95H30a5.79,5.79,0,0,1-5.63-5.43L17.07,12.8H82.94l-7.5,76.79A5.8,5.8,0,0,1,69.81,95ZM21.27,16.62l6.89,72.59a2,2,0,0,0,1.82,2H69.81a2,2,0,0,0,1.82-2l7.09-72.6Z"/><rect x="10.72" y="12.8" width="78.57" height="3.83"/><path d="M60.44,16.62H39.56V11.36A6.38,6.38,0,0,1,45.93,5h8.14a6.38,6.38,0,0,1,6.37,6.36Zm-17-3.82H56.61V11.36a2.54,2.54,0,0,0-2.54-2.53H45.93a2.54,2.54,0,0,0-2.54,2.53Z"/><rect x="37.5" y="31.75" width="3.83" height="44.3"/><rect x="47.67" y="31.75" width="3.83" height="44.3"/><rect x="58.68" y="31.75" width="3.83" height="44.3"/></svg>