<svg id="Слой_1" data-name="Слой 1" xmlns="http://www.w3.org/2000/svg" xmlns:xlink="http://www.w3.org/1999/xlink" viewBox="0 0 100 100"><defs><style>.cls-1{fill:url(#Безымянный_градиент_5);}</style><linearGradient id="Безымянный_градиент_5" x1="-374.7" y1="223.86" x2="-351.87" y2="223.86" gradientTransform="translate(425.12 -246.79) scale(1 1.28)" gradientUnits="userSpaceOnUse"><stop offset="0" stop-color="#00b6e5"/><stop offset="1" stop-color="#0080be"/></linearGradient></defs><title>Редагувати</title><path d="M89.32,95.1H4V9.44H47.07a1.72,1.72,0,0,1,0,3.43H7.43v78.8H85.88V52.27a1.72,1.72,0,1,1,3.44,0Z"/><rect class="cls-1" x="50.42" y="19.39" width="22.83" height="39.72" transform="translate(45.86 -32.23) rotate(45)"/><path d="M24.42,76.48a1.16,1.16,0,0,1-.16-1.3L36.82,46.29a1.7,1.7,0,0,1,.38-.55L77.52,5.41A1.68,1.68,0,0,1,78.7,4.9a20.67,20.67,0,0,1,12,5.25A16.17,16.17,0,0,1,96,22.31a1.67,1.67,0,0,1-.5,1.06L55.64,63.22a2,2,0,0,1-.54.38l-29.37,13a1.16,1.16,0,0,1-1.31-.15ZM39.08,47.12l-11.29,26L54.25,61.35l39.09-39.1a14.36,14.36,0,0,0-4.68-9.94,19.2,19.2,0,0,0-10.07-4.7Z"/><path d="M84,33.28,67.62,17a1.35,1.35,0,0,1,.22-1.86,1.34,1.34,0,0,1,1.86-.23L86,31.19A1.52,1.52,0,0,1,84,33.28Z"/><path d="M53.78,63.45,37.45,47.11A1.52,1.52,0,0,1,39.53,45L55.87,61.36a1.52,1.52,0,0,1-2.09,2.09Z"/><path d="M45.62,55.28a1.35,1.35,0,0,1,.22-1.86L68.13,31.14a1.19,1.19,0,1,1,1.63,1.63L47.47,55.05A1.33,1.33,0,0,1,45.62,55.28Z"/><polygon points="28.81 68.01 32.02 71.22 26.24 74.26 28.81 68.01"/></svg>