<svg id="Слой_1" data-name="Слой 1" xmlns="http://www.w3.org/2000/svg" xmlns:xlink="http://www.w3.org/1999/xlink" viewBox="0 0 100 100"><defs><style>.cls-1{fill:url(#Безымянный_градиент_5);}.cls-2{fill:url(#Безымянный_градиент_5-2);}.cls-3{fill:url(#Безымянный_градиент_5-3);}</style><linearGradient id="Безымянный_градиент_5" x1="19.62" y1="58.01" x2="70.43" y2="48.27" gradientUnits="userSpaceOnUse"><stop offset="0" stop-color="#00b6e5"/><stop offset="1" stop-color="#0080be"/></linearGradient><linearGradient id="Безымянный_градиент_5-2" x1="3" y1="67.99" x2="33.25" y2="62.19" xlink:href="#Безымянный_градиент_5"/><linearGradient id="Безымянный_градиент_5-3" x1="60.75" y1="67.99" x2="91" y2="62.19" xlink:href="#Безымянный_градиент_5"/></defs><title>Існуючі клієнти</title><path class="cls-1" d="M76.19,78.71c-.54-3.58-3.32-18.7-6-22.48s-9.68-5.1-10.87-5.37A5.29,5.29,0,0,0,57.09,49s4.18-4.84,5.5-8.69c.57-1.33,1.74-4.57.57-7,0-2.45,1.75-15.71-13.1-16C35.21,17.65,37,30.91,37,33.36c-1.17,2.39,0,5.63.56,7C38.86,44.17,43,49,43,49a5.29,5.29,0,0,0-2.26,1.85c-1.19.27-8.22,1.59-10.87,5.37s-5.44,18.9-6,22.48,1.86,4,1.86,4H74.33S76.72,82.29,76.19,78.71ZM47.94,59.54c-.23,1.41-1.38.49-1.38.49L44.43,57V52.2c.49-1.12,1.74-.17,2.59.19s.85.72.85.72L47.94,55C48.73,55.25,48.17,58.13,47.94,59.54Zm-.29-10.83c-5.56-3-6.59-10.28-6.59-10.28-.59,0-1.23-.74-1.18-1.82a1.15,1.15,0,0,1,1.18-1.08c-.13-3.6,5-3.3,6.78-3.15s3.69,2.51,5.27,3.15,2.4.74,5.11-.35c2.9-.19,2,2.9,1.57,3s-.59.64-.59.64c-1.67,7.62-6.73,9.89-6.73,9.89ZM56,57,53.85,60s-1.14.92-1.37-.49-.79-4.29,0-4.59l.06-1.84s0-.36.85-.72,2.1-1.31,2.59-.19Z"/><path d="M50.06,83H25.8c-.08,0-2.74-.5-2.17-4.34.43-2.93,3.23-18.63,6-22.61,1.72-2.44,5.36-4.27,10.83-5.45l.11,0a5.82,5.82,0,0,1,1.94-1.69c-1-1.15-4.14-5.13-5.29-8.47-.7-1.62-1.71-4.73-.59-7.13,0-.17,0-.39,0-.65-.1-2.4-.33-8,3.27-11.84,2.27-2.42,5.69-3.7,10.16-3.8,4.48.1,7.9,1.38,10.17,3.8,3.6,3.82,3.37,9.44,3.27,11.84,0,.26,0,.48,0,.65,1.12,2.4.11,5.51-.59,7.16-1.15,3.31-4.33,7.29-5.29,8.44a5.82,5.82,0,0,1,1.94,1.69l.11,0c5.47,1.18,9.11,3,10.83,5.45,2.8,4,5.58,19.68,6,22.61h0C77.07,82.5,74.41,83,74.38,83Zm0-65.37c-4.28.1-7.55,1.31-9.7,3.6-3.41,3.63-3.19,9.07-3.1,11.39,0,.3,0,.55,0,.74v.07l0,.07c-1.1,2.26,0,5.44.58,6.7,1.29,3.76,5.41,8.55,5.45,8.6l.28.33-.4.17A5,5,0,0,0,41.05,51l-.07.11-.37.08c-6.61,1.42-9.33,3.61-10.44,5.19C27.68,60,24.93,74.23,24.26,78.75c-.48,3.24,1.51,3.61,1.59,3.62H74.33s2-.41,1.54-3.62h0C75.2,74.23,72.45,60,70,56.41c-1.11-1.58-3.83-3.77-10.44-5.19l-.37-.08L59.08,51A5.11,5.11,0,0,0,57,49.3l-.4-.17.28-.33S61,44,62.3,40.22c.54-1.28,1.68-4.46.58-6.72l0-.07v-.07c0-.19,0-.44,0-.74.09-2.32.31-7.76-3.1-11.39C57.62,18.94,54.35,17.73,50.06,17.63Zm3.06,43a.85.85,0,0,1-.31-.06,1.16,1.16,0,0,1-.65-1l-.06-.37c-.35-2.11-.59-3.91.07-4.45l.06-1.67c0-.12.07-.59,1-1,.15-.06.32-.15.5-.24a2.54,2.54,0,0,1,1.85-.44,1.1,1.1,0,0,1,.65.65l0,.13v4.85l-2.25,3.23A1.69,1.69,0,0,1,53.12,60.64ZM55.25,52a3.27,3.27,0,0,0-1.2.44l-.53.25c-.6.26-.67.47-.67.47l-.07,2-.19.08c-.32.11-.27,1.42.14,3.86l.06.38c0,.28.13.46.25.5a.77.77,0,0,0,.58-.18l2.05-3V52.27a.52.52,0,0,0-.26-.26A.41.41,0,0,0,55.25,52Zm-8,8.65a1.73,1.73,0,0,1-.93-.36l-.06-.07-2.18-3.16,0-5a1.15,1.15,0,0,1,.65-.65,2.56,2.56,0,0,1,1.86.44c.17.09.34.18.49.24,1,.41,1,.88,1,1l.06,1.66c.65.54.42,2.34.06,4.45l-.06.37a1.13,1.13,0,0,1-.64,1A1,1,0,0,1,47.29,60.64Zm-.5-.83c.14.1.43.25.59.18s.2-.22.25-.5l.06-.37c.41-2.45.46-3.75.14-3.87l-.2-.08-.07-2h0a1.36,1.36,0,0,0-.66-.45l-.54-.25c-.46-.24-1-.53-1.36-.42a.48.48,0,0,0-.25.26v4.58ZM52.53,49h-5l-.07,0c-5.12-2.76-6.48-8.92-6.71-10.26a1.33,1.33,0,0,1-.6-.33,2.38,2.38,0,0,1-.63-1.79,1.4,1.4,0,0,1,1.18-1.36,2.78,2.78,0,0,1,.87-2c1.09-1,3.2-1.45,6.26-1.19a7.16,7.16,0,0,1,3.36,1.83,10.05,10.05,0,0,0,2,1.34c1.48.59,2.23.71,4.88-.35l.1,0c1.86-.12,2.26,1,2.34,1.55.12.78-.19,1.95-.67,2.07-.17,0-.32.32-.37.44-1.68,7.65-6.69,10-6.9,10.06Zm-4.8-.63h4.66c.56-.28,5-2.71,6.5-9.64a1.45,1.45,0,0,1,.77-.86,2.12,2.12,0,0,0,.16-1.72c-.22-.49-.73-.72-1.53-.67-2.66,1-3.61,1-5.3.32a9.81,9.81,0,0,1-2.15-1.42,6.81,6.81,0,0,0-3-1.7c-2.87-.24-4.82.1-5.78,1a2.27,2.27,0,0,0-.67,1.8l0,.32h-.33a.83.83,0,0,0-.87.78,1.76,1.76,0,0,0,.44,1.31.52.52,0,0,0,.4.18l.3,0,0,.29C41.38,38.46,42.44,45.48,47.73,48.39Z"/><path class="cls-2" d="M36.68,80.32c-.32-2.14-2-11.13-3.55-13.38s-5.77-3-6.48-3.2a3.16,3.16,0,0,0-1.34-1.11,20.59,20.59,0,0,0,3.28-5.17c.33-.79,1-2.72.33-4.14,0-1.46,1-9.36-7.79-9.55-8.84.19-7.8,8.09-7.8,9.55-.7,1.42,0,3.35.34,4.14a20.67,20.67,0,0,0,3.27,5.17,3.16,3.16,0,0,0-1.34,1.11c-.71.16-4.89.95-6.47,3.2S5.89,78.18,5.58,80.32s1.1,2.36,1.1,2.36H35.57S37,82.45,36.68,80.32ZM19.86,68.9c-.14.84-.82.3-.82.3l-1.27-1.84V64.53c.3-.66,1-.09,1.54.12s.51.43.51.43l0,1.09C20.33,66.35,20,68.07,19.86,68.9Zm-.17-6.45c-3.31-1.78-3.93-6.11-3.93-6.11-.35,0-.73-.44-.7-1.09a.68.68,0,0,1,.7-.64c-.07-2.14,3-2,4-1.87s2.2,1.49,3.14,1.87,1.43.44,3-.21c1.73-.11,1.17,1.73.94,1.79s-.35.38-.35.38c-1,4.54-4,5.88-4,5.88Zm5,4.91L23.38,69.2s-.68.54-.82-.3-.47-2.55,0-2.73l0-1.09s0-.22.51-.43,1.25-.78,1.54-.12Z"/><path d="M21.13,83H6.68c-.07,0-1.77-.32-1.42-2.73.26-1.75,1.93-11.12,3.61-13.52,1-1.48,3.23-2.59,6.52-3.29h0a3.61,3.61,0,0,1,1-.93,19.5,19.5,0,0,1-3.07-5c-.42-1-1-2.85-.36-4.32,0-.1,0-.22,0-.35-.06-1.45-.2-4.83,2-7.15a8.32,8.32,0,0,1,6.14-2.3,8.32,8.32,0,0,1,6.15,2.3c2.18,2.32,2,5.7,2,7.15,0,.13,0,.25,0,.35.67,1.47.06,3.34-.36,4.34a19.41,19.41,0,0,1-3.07,4.94,3.61,3.61,0,0,1,1,.93h0c3.29.7,5.48,1.81,6.52,3.29,1.68,2.4,3.35,11.77,3.61,13.52.36,2.41-1.35,2.72-1.37,2.73Zm0-38.92a7.77,7.77,0,0,0-5.68,2.1c-2,2.13-1.86,5.33-1.81,6.69,0,.18,0,.33,0,.45v.07l0,.07c-.63,1.3,0,3.14.35,3.88a20.65,20.65,0,0,0,3.22,5.09l.29.33-.41.17a2.76,2.76,0,0,0-1.19,1L15.8,64l-.27.06c-3.9.83-5.49,2.11-6.14,3-1.47,2.09-3.1,10.56-3.5,13.24-.26,1.75.73,2,.85,2H35.57c.06,0,1-.26.8-2-.4-2.68-2-11.15-3.5-13.24-.65-.93-2.25-2.21-6.14-3L26.46,64l-.07-.11a2.91,2.91,0,0,0-1.2-1l-.41-.17.29-.33a20.4,20.4,0,0,0,3.22-5.07c.32-.76,1-2.6.35-3.9l0-.07v-.07c0-.12,0-.27,0-.45.06-1.36.19-4.56-1.81-6.69A7.78,7.78,0,0,0,21.12,44.08ZM19.47,69.69a1.1,1.1,0,0,1-.63-.25l-.06-.06-1.32-1.92,0-3a.8.8,0,0,1,.46-.46,1.63,1.63,0,0,1,1.21.27l.29.14c.63.27.7.59.7.72l0,.93c.39.39.26,1.43,0,2.73l0,.22a.8.8,0,0,1-.46.69A.67.67,0,0,1,19.47,69.69Zm-.2-.72a.47.47,0,0,0,.21.09.64.64,0,0,0,.07-.21l0-.22a6.23,6.23,0,0,0,.13-2.18l-.2-.08,0-.19,0-1a.93.93,0,0,0-.32-.2l-.33-.16c-.22-.11-.56-.29-.7-.24a.12.12,0,0,0-.07.07v2.65Zm.25-3.82Zm0-.06v0ZM23,69.69a.67.67,0,0,1-.24,0,.8.8,0,0,1-.46-.69l0-.22c-.21-1.3-.35-2.34,0-2.73l0-.94c0-.12.06-.44.7-.71l.28-.14A1.63,1.63,0,0,1,24.48,64a.77.77,0,0,1,.46.46l0,.12v2.93l-1.39,2A1.1,1.1,0,0,1,23,69.69Zm0-4.55,0,1.25-.2.08a7.13,7.13,0,0,0,.17,2.16l0,.22c0,.17.08.21.08.21a.53.53,0,0,0,.2-.09l1.18-1.71V64.61a.14.14,0,0,0-.06-.07c-.14-.05-.48.13-.71.24l-.33.16A.93.93,0,0,0,22.91,65.14Zm0,0Zm0-.07v0Zm-.3-2.31h-3l-.07,0c-3-1.62-3.87-5.17-4-6.12a.84.84,0,0,1-.33-.21,1.52,1.52,0,0,1-.41-1.16.94.94,0,0,1,.7-.9A1.79,1.79,0,0,1,16,53.17c.69-.66,1.94-.91,3.83-.75a4.38,4.38,0,0,1,2.07,1.12,5.47,5.47,0,0,0,1.16.78c.86.35,1.26.41,2.8-.21l.1,0c1.22-.09,1.48.69,1.53,1s-.1,1.28-.49,1.38c0,0-.11.11-.14.18-1,4.6-4.05,6-4.17,6.06Zm-2.85-.63h2.71a8.12,8.12,0,0,0,3.78-5.64,1,1,0,0,1,.5-.59,1.17,1.17,0,0,0,0-.9c-.11-.21-.36-.31-.75-.29-1.61.64-2.19.6-3.23.18A5.88,5.88,0,0,1,21.51,54a3.88,3.88,0,0,0-1.73-1c-2.08-.17-3,.22-3.34.57a1.23,1.23,0,0,0-.36,1v.33h-.33a.35.35,0,0,0-.38.34.86.86,0,0,0,.22.68.25.25,0,0,0,.14.07l.3,0,0,.29S16.7,60.43,19.77,62.14Z"/><path class="cls-3" d="M94.42,80.32c-.31-2.14-2-11.13-3.55-13.38s-5.76-3-6.47-3.2a3.16,3.16,0,0,0-1.34-1.11,20.67,20.67,0,0,0,3.27-5.17c.34-.79,1-2.72.34-4.14,0-1.46,1-9.36-7.8-9.55-8.84.19-7.8,8.09-7.8,9.55-.69,1.42,0,3.35.34,4.14a20.59,20.59,0,0,0,3.28,5.17,3.16,3.16,0,0,0-1.34,1.11c-.71.16-4.9.95-6.48,3.2s-3.23,11.24-3.55,13.38,1.11,2.36,1.11,2.36H93.32S94.74,82.45,94.42,80.32ZM77.61,68.9c-.14.84-.82.3-.82.3l-1.27-1.84V64.53c.29-.66,1-.09,1.54.12s.51.43.51.43l0,1.09C78.08,66.35,77.74,68.07,77.61,68.9Zm-.18-6.45c-3.3-1.78-3.92-6.11-3.92-6.11-.35,0-.73-.44-.7-1.09a.68.68,0,0,1,.7-.64c-.08-2.14,3-2,4-1.87s2.2,1.49,3.13,1.87,1.44.44,3-.21c1.73-.11,1.17,1.73.94,1.79s-.36.38-.36.38c-1,4.54-4,5.88-4,5.88Zm5,4.91L81.13,69.2s-.68.54-.82-.3-.47-2.55,0-2.73l0-1.09s0-.22.51-.43,1.24-.78,1.54-.12Z"/><path d="M78.87,83H64.43c-.07,0-1.78-.32-1.42-2.73.26-1.75,1.93-11.12,3.61-13.52,1-1.48,3.23-2.59,6.52-3.29h0a3.61,3.61,0,0,1,1-.93,19.49,19.49,0,0,1-3.08-5c-.41-1-1-2.85-.35-4.32,0-.1,0-.22,0-.35-.06-1.45-.2-4.83,2-7.15a9.36,9.36,0,0,1,12.29,0c2.18,2.32,2,5.7,2,7.15,0,.13,0,.25,0,.35.67,1.47.06,3.34-.37,4.34a19.71,19.71,0,0,1-3.06,4.94,3.61,3.61,0,0,1,1,.93h0c3.29.7,5.48,1.81,6.52,3.29,1.68,2.4,3.35,11.77,3.61,13.52h0c.35,2.41-1.35,2.72-1.37,2.73Zm0-38.92a7.77,7.77,0,0,0-5.68,2.1c-2,2.13-1.87,5.33-1.81,6.69,0,.18,0,.33,0,.45v.07l0,.07c-.64,1.3,0,3.14.34,3.88a20.27,20.27,0,0,0,3.23,5.09l.29.33-.41.17a2.83,2.83,0,0,0-1.2,1l-.07.11-.27.06c-3.89.83-5.49,2.11-6.14,3-1.46,2.09-3.1,10.56-3.49,13.24-.26,1.75.73,2,.84,2H93.32c.06,0,1.05-.26.79-2h0c-.4-2.68-2-11.15-3.5-13.24-.65-.93-2.24-2.21-6.14-3L84.2,64l-.07-.11a2.76,2.76,0,0,0-1.19-1l-.41-.17.29-.33A20.79,20.79,0,0,0,86,57.36c.33-.76,1-2.6.36-3.9l0-.07v-.07c0-.12,0-.27,0-.45,0-1.36.18-4.56-1.81-6.69A7.78,7.78,0,0,0,78.87,44.08ZM77.22,69.69a1.1,1.1,0,0,1-.63-.25l-.06-.06L75.2,67.46l0-3a.77.77,0,0,1,.46-.46,1.63,1.63,0,0,1,1.21.27l.28.14c.64.27.7.59.7.72l0,.93c.39.39.25,1.43,0,2.72l0,.23a.8.8,0,0,1-.46.69A.67.67,0,0,1,77.22,69.69ZM77,69a.47.47,0,0,0,.21.09.64.64,0,0,0,.07-.21l0-.22a6,6,0,0,0,.13-2.18l-.19-.08,0-.19,0-1a.74.74,0,0,0-.31-.2l-.33-.16c-.22-.11-.57-.29-.71-.24a.14.14,0,0,0-.06.07v2.65Zm.23-3.88v0Zm3.45,4.6a.67.67,0,0,1-.24,0A.8.8,0,0,1,80,69l0-.22c-.22-1.3-.35-2.34,0-2.73l0-.94c0-.12.07-.44.7-.71l.29-.14A1.63,1.63,0,0,1,82.23,64a.8.8,0,0,1,.46.46l0,.12v2.93l-1.38,2A1.1,1.1,0,0,1,80.7,69.69Zm0-4.55,0,1.25-.2.08a7.08,7.08,0,0,0,.16,2.16l0,.22a.44.44,0,0,0,.07.21A.5.5,0,0,0,80.9,69l1.18-1.71V64.61a.12.12,0,0,0-.07-.07c-.14-.05-.48.13-.7.24l-.33.16A.93.93,0,0,0,80.66,65.14Zm0,0Zm0-.07v0Zm-.29-2.31h-3l-.07,0c-3-1.62-3.86-5.17-4-6.12a.84.84,0,0,1-.33-.21,1.53,1.53,0,0,1-.42-1.16,1,1,0,0,1,.71-.9,1.75,1.75,0,0,1,.55-1.17c.69-.66,1.94-.91,3.83-.75a4.42,4.42,0,0,1,2.07,1.12,5.44,5.44,0,0,0,1.15.78c.86.35,1.27.41,2.81-.21l.1,0c1.21-.09,1.47.69,1.53,1s-.1,1.28-.5,1.38a.46.46,0,0,0-.13.18c-1,4.6-4,6-4.18,6.06Zm-2.85-.63h2.71A8.18,8.18,0,0,0,84,56.5a1,1,0,0,1,.49-.59,1.12,1.12,0,0,0,0-.9c-.11-.21-.37-.31-.75-.29-1.61.64-2.2.6-3.24.18a6.07,6.07,0,0,1-1.3-.86,4,4,0,0,0-1.74-1c-2.08-.17-3,.22-3.33.57a1.2,1.2,0,0,0-.36,1v.33h-.33a.36.36,0,0,0-.39.34.94.94,0,0,0,.22.68.25.25,0,0,0,.14.07l.3,0,0,.29S74.45,60.43,77.52,62.14Z"/></svg>