<svg id="Слой_1" data-name="Слой 1" xmlns="http://www.w3.org/2000/svg" xmlns:xlink="http://www.w3.org/1999/xlink" viewBox="0 0 100 100"><defs><style>.cls-1{fill:url(#Безымянный_градиент_5);}</style><linearGradient id="Безымянный_градиент_5" x1="-1.46" y1="59.8" x2="101.58" y2="40.04" gradientUnits="userSpaceOnUse"><stop offset="0" stop-color="#00b6e5"/><stop offset="1" stop-color="#0080be"/></linearGradient></defs><title>Фейсбук</title><path class="cls-1" d="M95.31,7.34v85.3c-.68,2-2.09,2.68-4.15,2.67q-25.08-.06-50.16,0H40c0-.26,0-.4,0-.55q0-17.11,0-34.23A2.25,2.25,0,0,1,42.46,58c1.68,0,3.36,0,5,0,1.9,0,2.75-.73,3-2.64.3-2.58.56-5.16.8-7.74.15-1.64-.58-2.43-2.22-2.44H42.51c-1.62,0-2.55-.8-2.57-2.28,0-1.89,0-3.78.09-5.66.16-2.51,1.09-3.41,3.59-3.56,1.82-.11,3.65-.07,5.48-.12a2.13,2.13,0,0,0,2.34-2.3c0-2.74,0-5.48,0-8.23a2.11,2.11,0,0,0-2.28-2.27c-1.26,0-2.53-.05-3.8,0-3.06.11-6.13.12-9.17.43A12.22,12.22,0,0,0,29,24.36,14.2,14.2,0,0,0,24.74,34c-.24,2.84-.17,5.71-.23,8.57,0,1.76-.86,2.6-2.6,2.63-.88,0-1.77,0-2.65,0-1.55,0-2.42.76-2.45,2.29-.06,2.74-.06,5.49,0,8.23A2.14,2.14,0,0,0,19.18,58c.79,0,1.59,0,2.39,0,2.17,0,2.94.76,2.94,2.91V95.29H8.78c-2.87,0-4.07-1.21-4.07-4.09q0-41.17,0-82.36c0-2.06.7-3.47,2.67-4.15h85.3A3.92,3.92,0,0,1,95.31,7.34Z"/><path d="M91.18,96h0c-12.8,0-25.82,0-38.41,0H39.31l-.05-.87c0-.15,0-.26,0-.37V60.51a2.91,2.91,0,0,1,3.21-3.19c1,0,2.09,0,3.14,0H47.5c1.57,0,2.11-.48,2.29-2,.26-2.24.51-4.69.79-7.72a1.72,1.72,0,0,0-.25-1.3,1.67,1.67,0,0,0-1.28-.39H42.5c-2,0-3.22-1.12-3.25-3s0-3.73.1-5.71c.18-2.86,1.36-4,4.23-4.2,1.17-.07,2.36-.08,3.5-.1.67,0,1.33,0,2,0,1.14,0,1.66-.52,1.67-1.61,0-2.77,0-5.54,0-8.22a1.44,1.44,0,0,0-1.6-1.59c-1.52,0-2.68,0-3.77,0l-2.26.06c-2.26.07-4.59.13-6.86.37a11.41,11.41,0,0,0-6.76,3A13.43,13.43,0,0,0,25.42,34c-.17,2-.18,4-.19,6l0,2.52a3,3,0,0,1-3.28,3.31H19.27c-1.22,0-1.75.51-1.77,1.62-.06,2.71-.06,5.47,0,8.2,0,1.08.55,1.58,1.7,1.62h2.37c2.54,0,3.63,1.08,3.63,3.6V96H8.78C5.53,96,4,94.46,4,91.2v-17Q4,41.53,4,8.84C4,6.34,5,4.77,7.14,4l.11,0L92.87,4A4.63,4.63,0,0,1,96,7.13l0,.21V92.75l0,.11C95.24,95,93.67,96,91.18,96ZM64.4,94.6c8.88,0,17.87,0,26.76,0h0c1.89,0,2.9-.62,3.45-2.11V7.46a3.25,3.25,0,0,0-2.09-2.09H7.48C6,5.93,5.37,6.94,5.37,8.84q0,32.69,0,65.39v17c0,2.51.88,3.4,3.38,3.4h15V60.91c0-1.76-.46-2.22-2.25-2.22H19.16a2.82,2.82,0,0,1-3-3c-.05-2.75-.05-5.53,0-8.26a2.84,2.84,0,0,1,3.13-3H21.9c1.36,0,1.9-.57,1.92-2,0-.83,0-1.66,0-2.5,0-2,0-4.07.2-6.11a14.69,14.69,0,0,1,4.52-10.06,12.69,12.69,0,0,1,7.55-3.35c2.32-.24,4.68-.31,7-.37l2.26-.07c1.11,0,2.3,0,3.84,0a2.78,2.78,0,0,1,2.94,3c0,2.69,0,5.46,0,8.24a2.81,2.81,0,0,1-3,3l-2,0c-1.13,0-2.3,0-3.44.09-2.17.12-2.81.75-2.94,2.91-.12,1.94-.12,3.92-.09,5.61,0,.68.21,1.59,1.88,1.6h6.54A2.61,2.61,0,0,1,52,47.69c-.28,3-.54,5.5-.8,7.75s-1.38,3.23-3.65,3.24H45.58c-1,0-2.08,0-3.11,0-1.32,0-1.85.55-1.85,1.82q0,14.42,0,28.83V94.6H64.4Z"/></svg>