<svg id="Слой_1" data-name="Слой 1" xmlns="http://www.w3.org/2000/svg" xmlns:xlink="http://www.w3.org/1999/xlink" viewBox="0 0 400 400"><defs><style>.cls-1{fill:url(#Безымянный_градиент_5);}.cls-2{fill:url(#Безымянный_градиент_5-2);}</style><linearGradient id="Безымянный_градиент_5" x1="75.43" y1="127.14" x2="290.6" y2="85.88" gradientUnits="userSpaceOnUse"><stop offset="0" stop-color="#1bb6e4"/><stop offset="1" stop-color="#3d7fbb"/></linearGradient><linearGradient id="Безымянный_градиент_5-2" x1="182.63" y1="278.46" x2="325.46" y2="251.07" xlink:href="#Безымянный_градиент_5"/></defs><title>Монтажная область 5 копия 31</title><rect class="cls-1" x="76.22" y="81.72" width="213.58" height="49.58"/><path d="M291,286H70.58V78.29H291ZM77.42,279.16H284.15v-194H77.42Z"/><path d="M116.59,109.3h0a3.43,3.43,0,0,1-3.37-3.48l.63-42.59a3.43,3.43,0,0,1,6.85.11L120,105.92A3.42,3.42,0,0,1,116.59,109.3Z"/><path d="M180.47,109.3h-.05a3.43,3.43,0,0,1-3.37-3.48l.63-42.59a3.32,3.32,0,0,1,3.48-3.37,3.43,3.43,0,0,1,3.37,3.48l-.64,42.58A3.42,3.42,0,0,1,180.47,109.3Z"/><path d="M246,109.3h-.05a3.43,3.43,0,0,1-3.37-3.48l.64-42.59a3.36,3.36,0,0,1,3.47-3.37,3.43,3.43,0,0,1,3.37,3.48l-.63,42.58A3.43,3.43,0,0,1,246,109.3Z"/><path d="M287.58,136H74a3.42,3.42,0,1,1,0-6.84H287.58a3.42,3.42,0,1,1,0,6.84Z"/><rect x="107.61" y="158.39" width="18.59" height="17.16" rx="1.02"/><rect x="107.61" y="197.48" width="18.59" height="17.16" rx="1.02"/><rect x="107.61" y="238.8" width="18.59" height="17.16" rx="1.02"/><rect x="140.35" y="158.39" width="18.59" height="17.16" rx="1.02"/><rect x="140.35" y="197.48" width="18.59" height="17.16" rx="1.02"/><rect x="140.35" y="238.8" width="18.59" height="17.16" rx="1.02"/><rect x="173.72" y="158.39" width="18.59" height="17.16" rx="1.02"/><rect x="173.72" y="197.48" width="18.59" height="17.16" rx="1.02"/><rect x="173.72" y="238.8" width="18.59" height="17.16" rx="1.02"/><rect x="204.23" y="158.39" width="18.59" height="17.16" rx="1.02"/><rect x="204.23" y="197.48" width="18.59" height="17.16" rx="1.02"/><rect x="204.23" y="238.8" width="18.59" height="17.16" rx="1.02"/><rect x="237.6" y="158.39" width="18.59" height="17.16" rx="1.02"/><rect x="237.6" y="197.48" width="18.59" height="17.16" rx="1.02"/><rect x="237.6" y="238.8" width="18.59" height="17.16" rx="1.02"/><circle class="cls-2" cx="254.05" cy="264.77" r="72.7"/><path d="M254.05,340.14a75.38,75.38,0,1,1,75.37-75.37A75.46,75.46,0,0,1,254.05,340.14Zm0-145.4a70,70,0,1,0,70,70A70.12,70.12,0,0,0,254.05,194.74Z"/><path d="M254,297.49c-10.28,0-18.64-7.82-18.64-17.43h5.35c0,6.67,6,12.09,13.29,12.09a13.05,13.05,0,0,0,13.29-12.25c.35-5.58-5.42-8.77-14.26-13-8.28-4-17.67-8.45-17.67-17.82,0-9.61,8.36-17.43,18.64-17.43s18.63,7.82,18.63,17.43h-5.34c0-6.66-6-12.08-13.29-12.08s-13.29,5.42-13.29,12.08c0,6,7.1,9.4,14.62,13,8.39,4,17.89,8.55,17.3,18.15A18.35,18.35,0,0,1,254,297.49Z"/><rect x="248.7" y="226.32" width="10.69" height="5.34" transform="translate(24.72 482.73) rotate(-89.93)"/><rect x="248.71" y="297.87" width="10.69" height="5.34" transform="translate(-46.83 554.21) rotate(-89.93)"/></svg>