<svg id="Слой_1" data-name="Слой 1" xmlns="http://www.w3.org/2000/svg" xmlns:xlink="http://www.w3.org/1999/xlink" viewBox="0 0 400 400"><defs><style>.cls-1{fill:url(#Безымянный_градиент_5);}</style><linearGradient id="Безымянный_градиент_5" x1="174.9" y1="92.05" x2="226.03" y2="92.05" gradientUnits="userSpaceOnUse"><stop offset="0" stop-color="#1bb6e4"/><stop offset="1" stop-color="#3d7fbb"/></linearGradient></defs><title>Монтажная область 5 копия 5</title><path d="M285.05,348.25c-1.72-11.66-10.79-60.88-19.43-73.18s-31.51-16.62-35.4-17.49a17.23,17.23,0,0,0-7.34-6s13.6-15.76,17.92-28.28c1.85-4.32,5.65-14.9,1.85-22.67,0-8,5.7-51.16-42.65-52.24-48.35,1.08-42.65,44.26-42.65,52.24-3.8,7.77,0,18.35,1.85,22.67,4.32,12.52,17.92,28.28,17.92,28.28a17.23,17.23,0,0,0-7.34,6c-3.89.87-26.77,5.18-35.4,17.49S116.67,336.59,115,348.25s6,12.95,6,12.95H279S286.78,359.91,285.05,348.25Zm-92-62.41c-.75,4.59-4.48,1.6-4.48,1.6l-6.94-10V261.93c1.6-3.63,5.65-.54,8.43.64s2.78,2.35,2.78,2.35l.21,6C195.64,271.86,193.83,281.25,193.08,285.84Zm-1-35.28C174,240.8,170.67,217.1,170.67,217.1c-1.92.16-4-2.4-3.84-5.92s3.84-3.53,3.84-3.53c-.43-11.7,16.34-10.72,22.1-10.24s12,8.16,17.13,10.24,7.85,2.4,16.65-1.12c9.45-.64,6.41,9.45,5.13,9.77s-1.92,2.08-1.92,2.08c-5.45,24.82-21.94,32.18-21.94,32.18Zm27.14,26.85-6.94,10s-3.73,3-4.48-1.6-2.56-14,0-14.95l.22-6s0-1.18,2.77-2.35,6.83-4.27,8.43-.64Z"/><path class="cls-1" d="M192.37,121.09h16.56s5-9.4,10.92-15.74c4.77-5.15,12.72-26-3.65-37.49a27.28,27.28,0,0,0-31.32.21c-17,12.07-7.9,33.49-4.26,37.52C185.09,110.52,189.55,115,192.37,121.09Z"/><path d="M206.75,138.79H195.64a4.66,4.66,0,0,1-4.38-3c-.63-1.66-1.09-2.38-1.09-3.21a2.35,2.35,0,0,1,2.36-2.2h16.25a2.34,2.34,0,0,1,2.34,2.19c0,1-.66,1.84-1.67,4.34A2.93,2.93,0,0,1,206.75,138.79Z"/><path d="M208.93,123.28H191l-.59-1.27c-2.33-5.07-5.94-9-9.76-13.18L179,107.06c-2.69-3-7.24-12.71-6.13-22.83a24.56,24.56,0,0,1,10.74-18,29.39,29.39,0,0,1,33.86-.22,24.47,24.47,0,0,1,10.6,17.82c1,9.8-3.25,19.33-6.61,23-5.61,6.06-10.55,15.19-10.6,15.29l-.62,1.15Zm-15.19-4.39h13.9a87.86,87.86,0,0,1,10.6-15c2.35-2.54,6.37-10.88,5.46-19.52a19.9,19.9,0,0,0-8.76-14.69,25,25,0,0,0-28.79.21,20.31,20.31,0,0,0-8.91,14.85c-1,8.8,3.13,17.33,5,19.4l1.6,1.75C187.6,110,191.15,113.84,193.74,118.89Z"/><path d="M171.46,66.21a2.18,2.18,0,0,1-1.47-.57l-7.52-6.81a2.2,2.2,0,0,1,2.95-3.26l7.52,6.81a2.2,2.2,0,0,1-1.48,3.83Z"/><path d="M200.46,54.23a2.2,2.2,0,0,1-2.19-2.2V41a2.2,2.2,0,0,1,4.39,0V52A2.2,2.2,0,0,1,200.46,54.23Z"/><path d="M229.24,66.21a2.2,2.2,0,0,1-1.55-3.75l6.81-6.81a2.2,2.2,0,0,1,3.11,3.1l-6.82,6.81A2.19,2.19,0,0,1,229.24,66.21Z"/><path d="M200.46,123.28a2.19,2.19,0,0,1-2.19-2.19V97.38l-7.33-6.21a2.2,2.2,0,0,1,2.84-3.35l8.88,7.53v25.74A2.19,2.19,0,0,1,200.46,123.28Z"/><path d="M200.46,98.56A2.2,2.2,0,0,1,199,94.71l7.88-6.87a2.2,2.2,0,1,1,2.89,3.31L201.9,98A2.19,2.19,0,0,1,200.46,98.56Z"/></svg>