<svg id="Слой_1" data-name="Слой 1" xmlns="http://www.w3.org/2000/svg" xmlns:xlink="http://www.w3.org/1999/xlink" viewBox="0 0 400 400"><defs><style>.cls-1{fill:url(#Безымянный_градиент_5);}</style><linearGradient id="Безымянный_градиент_5" x1="51.51" y1="224.4" x2="269.84" y2="182.53" gradientUnits="userSpaceOnUse"><stop offset="0" stop-color="#1bb6e4"/><stop offset="1" stop-color="#3d7fbb"/></linearGradient></defs><title>Монтажная область 5 копия 16</title><polygon class="cls-1" points="68.1 120.78 114.07 77.75 249.75 77.75 249.75 164.16 219.97 171.56 193.71 191.67 177.48 222.81 176.47 254.68 181.81 274.52 200.51 300.43 243.44 322.25 70.03 320.98 68.1 120.78"/><path d="M185.27,323.48H67.53V122L114.3,75.25H254.62V138a2.5,2.5,0,0,1-5,0V80.25H116.37L72.53,124.09V318.48H185.27a2.5,2.5,0,0,1,0,5Z"/><path d="M124.43,132.59H92.9a2.5,2.5,0,0,1,0-5h26.53V101.06a2.5,2.5,0,0,1,5,0Z"/><path d="M330.41,244.31H176.47a2.5,2.5,0,1,1,0-5H330.41a2.5,2.5,0,0,1,0,5Z"/><path d="M225.73,222.32h-.07a2.5,2.5,0,0,1-2.43-2.57c.9-33.21,26.12-57.06,27.19-58.06a2.5,2.5,0,0,1,3.41,3.66c-.25.23-24.76,23.46-25.6,54.53A2.51,2.51,0,0,1,225.73,222.32Z"/><path d="M280.57,221.81a2.5,2.5,0,0,1-2.48-2.27c0-.33-3.46-33.93-27.55-53.58a2.5,2.5,0,1,1,3.16-3.87c25.75,21,29.23,55.53,29.37,57a2.51,2.51,0,0,1-2.26,2.72Z"/><path d="M252.41,323.48a2.51,2.51,0,0,1-2-1c-1.06-1.39-26-34.58-26.9-80.64a2.5,2.5,0,0,1,5-.1c.85,44.37,25.62,77.37,25.88,77.7a2.5,2.5,0,0,1-.48,3.5A2.45,2.45,0,0,1,252.41,323.48Z"/><path d="M252.41,322.76a2.49,2.49,0,0,1-1.89-4.14c24.37-27.95,27.82-75.78,27.85-76.26a2.5,2.5,0,1,1,5,.33c-.14,2-3.57,50-29.07,79.22A2.5,2.5,0,0,1,252.41,322.76Z"/><path d="M253.44,323.48a81,81,0,1,1,81-81A81,81,0,0,1,253.44,323.48Zm0-156.91a76,76,0,1,0,76,76A76,76,0,0,0,253.44,166.57Z"/></svg>