<svg id="Слой_1" data-name="Слой 1" xmlns="http://www.w3.org/2000/svg" xmlns:xlink="http://www.w3.org/1999/xlink" viewBox="0 0 100 100"><defs><style>.cls-1{fill:url(#Безымянный_градиент_5);}.cls-2{fill:url(#Безымянный_градиент_15);}</style><linearGradient id="Безымянный_градиент_5" x1="6.73" y1="49.07" x2="64.84" y2="37.93" gradientUnits="userSpaceOnUse"><stop offset="0" stop-color="#1bb6e4"/><stop offset="1" stop-color="#3d7fbb"/></linearGradient><linearGradient id="Безымянный_градиент_15" x1="24.64" y1="73.19" x2="85.08" y2="61.6" gradientUnits="userSpaceOnUse"><stop offset="0.57" stop-color="#1bb6e4"/><stop offset="0.66" stop-color="#28a1d4"/><stop offset="0.77" stop-color="#348ec6"/><stop offset="0.88" stop-color="#3b83be"/><stop offset="1" stop-color="#3d7fbb"/></linearGradient></defs><title>зробити інвентаризацію</title><polygon class="cls-1" points="49.06 13.96 49.06 19.79 55.06 19.79 55.06 68.28 15.53 68.28 15.53 19.79 22.5 19.79 22.5 13.96 11.32 13.96 11.32 73.03 60.24 73.03 60.24 13.96 49.06 13.96"/><polygon points="60.82 73.39 10.74 73.39 10.74 13.17 22.37 13.17 22.37 14.32 11.9 14.32 11.9 72.24 59.66 72.24 59.66 14.32 48.79 14.32 48.79 13.17 60.82 13.17 60.82 73.39"/><polygon points="55.85 68.32 15.17 68.32 15.17 18.68 22.18 18.68 22.18 19.83 16.33 19.83 16.33 67.16 54.69 67.16 54.69 19.83 48.69 19.83 48.69 18.68 55.85 18.68 55.85 68.32"/><path d="M49.43,21.24H21.6V10.36H49.43ZM22.75,20.08H48.27V11.52H22.75Z"/><path d="M39.85,11.28l-.94-.68a3.2,3.2,0,0,0,.61-1.88,3.76,3.76,0,0,0-7.48,0,3.08,3.08,0,0,0,.4,1.54l-1,.56a4.3,4.3,0,0,1-.55-2.1,4.91,4.91,0,0,1,9.8,0A4.39,4.39,0,0,1,39.85,11.28Z"/><path d="M35.51,11.09a.58.58,0,0,1-.58-.58V8.83a.58.58,0,0,1,1.16,0v1.68A.58.58,0,0,1,35.51,11.09Z"/><path d="M47.85,30.9H32.46a.58.58,0,1,1,0-1.16H47.85a.58.58,0,0,1,0,1.16Z"/><path d="M47.85,38H32.46a.58.58,0,0,1,0-1.16H47.85a.58.58,0,1,1,0,1.16Z"/><path d="M25.09,33.41a.59.59,0,0,1-.38-.14l-2-1.78a.58.58,0,0,1,.77-.87L25.05,32l3.51-3.72a.56.56,0,0,1,.81,0,.57.57,0,0,1,0,.82l-3.89,4.13A.56.56,0,0,1,25.09,33.41Z"/><path d="M47.9,45.07H32.51a.58.58,0,0,1,0-1.16H47.9a.58.58,0,1,1,0,1.16Z"/><path d="M25.14,47.49a.56.56,0,0,1-.38-.14l-2-1.78a.58.58,0,0,1,.76-.87l1.61,1.41,3.5-3.72a.58.58,0,1,1,.84.79l-3.88,4.13A.6.6,0,0,1,25.14,47.49Z"/><path d="M47.9,52.48H32.51a.58.58,0,0,1,0-1.15H47.9a.58.58,0,1,1,0,1.15Z"/><polygon class="cls-2" points="51.3 66.72 25.22 76.21 54.27 94.17 81.65 85.8 83.15 85.05 84.73 59.77 54.27 40.85 51.3 66.72"/><polygon points="53.52 95.85 53.52 39.67 84.67 51.39 84.67 61.74 83.18 61.74 83.18 52.63 55.02 42.03 55.02 93.41 82.5 84.51 83.18 64.95 84.67 64.95 84 86.08 53.52 95.85"/><polygon points="54.27 40.85 61.41 63.93 89.26 63.93 84.65 51.44 54.27 40.85"/><path d="M54.19,40.11,47.13,62.94H19.28l4.78-13L53.52,39.69C53.61,39.65,54.22,40,54.19,40.11Z"/><polygon points="47.65 64.93 24.49 64.93 25.45 87.7 53.52 95.85 53.6 46.4 47.65 64.93"/><path d="M22.59,40.43a.48.48,0,0,1,0-.67l4.57-4.57a.48.48,0,0,1,.68,0,.48.48,0,0,1,0,.67l-4.57,4.57A.48.48,0,0,1,22.59,40.43Z"/><path d="M27.16,40.43l-4.57-4.57a.48.48,0,0,1,0-.67.48.48,0,0,1,.68,0l4.57,4.57a.48.48,0,0,1,0,.67A.48.48,0,0,1,27.16,40.43Z"/></svg>