<svg id="Слой_1" data-name="Слой 1" xmlns="http://www.w3.org/2000/svg" xmlns:xlink="http://www.w3.org/1999/xlink" viewBox="0 0 100 100"><defs><style>.cls-1{fill:url(#Безымянный_градиент_5);}</style><linearGradient id="Безымянный_градиент_5" x1="10.16" y1="59.27" x2="90.98" y2="43.77" gradientUnits="userSpaceOnUse"><stop offset="0" stop-color="#00b6e5"/><stop offset="1" stop-color="#0080be"/></linearGradient></defs><title>Ліди</title><polygon class="cls-1" points="16.45 21.25 33.43 5.05 83.56 5.05 83.56 94.94 17.01 94.94 16.45 21.25"/><path d="M64.47,4V6.11h18V93.89H18.05L17.5,21.7,33.85,6.11H64.47V4H33L15.39,20.8,16,96H84.61V23.59h0V4Z"/><path d="M37.4,26.64H25.65a1.06,1.06,0,1,1,0-2.11h9.64v-9a1.06,1.06,0,1,1,2.11,0Z"/><path d="M79.56,44.63H52.28a1,1,0,0,1-.81-1.06,1,1,0,0,1,.81-1H79.56a1,1,0,0,1,.81,1A1,1,0,0,1,79.56,44.63Z"/><path d="M79.56,51.06H52.28a1.1,1.1,0,0,1,0-2.12H79.56a1.1,1.1,0,0,1,0,2.12Z"/><path d="M79.56,57.48H52.28a1,1,0,0,1-.81-1,1,1,0,0,1,.81-1.06H79.56a1,1,0,0,1,.81,1.06A1,1,0,0,1,79.56,57.48Z"/><path d="M79.56,63.91H52.28a1.09,1.09,0,0,1,0-2.11H79.56a1.09,1.09,0,0,1,0,2.11Z"/><path d="M43.82,64.13c-.22-1.46-1.36-7.65-2.44-9.2s-4-2.09-4.45-2.19A2.16,2.16,0,0,0,36,52a14.5,14.5,0,0,0,2.26-3.56,3.77,3.77,0,0,0,.23-2.85c0-1,.72-6.43-5.36-6.57-6.08.14-5.36,5.57-5.36,6.57A3.77,3.77,0,0,0,28,48.42,14.27,14.27,0,0,0,30.25,52a2.1,2.1,0,0,0-.92.76c-.49.1-3.37.65-4.45,2.19s-2.23,7.74-2.44,9.2.76,1.63.76,1.63H43.06S44,65.6,43.82,64.13ZM32.26,56.29c-.1.57-.57.2-.57.2l-.87-1.26V53.28c.2-.45.71-.07,1.06.08s.35.3.35.3l0,.75C32.58,54.53,32.35,55.71,32.26,56.29Zm-.12-4.44c-2.28-1.22-2.7-4.2-2.7-4.2-.24,0-.5-.31-.48-.75a.47.47,0,0,1,.48-.44c-.05-1.47,2-1.35,2.78-1.29s1.51,1,2.15,1.29a2.27,2.27,0,0,0,2.1-.14c1.18-.08.8,1.19.64,1.23s-.24.26-.24.26a5.65,5.65,0,0,1-2.76,4Zm3.41,3.38-.87,1.26s-.47.37-.57-.2-.32-1.76,0-1.88l0-.75s0-.15.35-.3.86-.53,1.06-.08Z"/></svg>