<svg id="Слой_1" data-name="Слой 1" xmlns="http://www.w3.org/2000/svg" xmlns:xlink="http://www.w3.org/1999/xlink" viewBox="0 0 185.14 186.61"><defs><style>.cls-1{fill:none;}.cls-2{fill:url(#Безымянный_градиент_22);}.cls-3{fill:url(#Безымянный_градиент_22-2);}.cls-4{fill:url(#Безымянный_градиент_22-3);}.cls-5{clip-path:url(#clip-path);}</style><linearGradient id="Безымянный_градиент_22" x1="30.49" y1="67.71" x2="154.65" y2="67.71" gradientUnits="userSpaceOnUse"><stop offset="0" stop-color="#3a84bf"/><stop offset="1" stop-color="#1eb1e0"/></linearGradient><linearGradient id="Безымянный_градиент_22-2" x1="30.49" y1="93.3" x2="154.65" y2="93.3" xlink:href="#Безымянный_градиент_22"/><linearGradient id="Безымянный_градиент_22-3" x1="30.49" y1="118.9" x2="154.65" y2="118.9" xlink:href="#Безымянный_градиент_22"/><clipPath id="clip-path"><path class="cls-1" d="M2022.6-132.68,1955.19,148.1a168.32,168.32,0,0,1-177.13,128.53c-60.61-4.87-126.77,28.36-188.18,70.33-61.89,42.3-100.57,1.19-169,15.59-63.1,13.29-49.07,55.41-79.72,158.83h0c-18.4,67.94-79.71,184.37-190.28,210.08-126.11,29.33-216-25.26-265-71.34a128.19,128.19,0,0,0-150.41-18.63l-.88.5c-38.13,21.6-93.71,186.88-118.44,151.19L612.6,462.32c-2.58-77.24-.09-236.57-.09-236.57l7.07,5.3c42.68,32,102.11,27.25,139.89-10.37,24.9-24.79,55.17-45.16,97.83-48.45,39.09-3,69.07,31.38,100.33,6.66,57.83-45.71,12-257.43,226.69-311.57H2022.6Z"/></clipPath></defs><title>главное меню</title><rect x="38.06" y="67.17" width="109.03" height="1.08"/><path class="cls-2" d="M147.09,75.27h-109a7.56,7.56,0,1,1,0-15.12h109a7.56,7.56,0,1,1,0,15.12Z"/><path d="M147.09,75.81h-109a8.1,8.1,0,1,1,0-16.2h109a8.1,8.1,0,0,1,0,16.2Zm-109-15.13a7,7,0,0,0,0,14.06h109a7,7,0,0,0,0-14.06Z"/><rect x="38.06" y="92.77" width="109.03" height="1.08"/><path class="cls-3" d="M147.09,100.87h-109a7.57,7.57,0,1,1,0-15.13h109a7.57,7.57,0,0,1,0,15.13Z"/><path d="M147.09,101.41h-109a8.11,8.11,0,1,1,0-16.21h109a8.11,8.11,0,0,1,0,16.21Zm-109-15.13a7,7,0,1,0,0,14h109a7,7,0,0,0,0-14Z"/><rect x="38.06" y="118.36" width="109.03" height="1.08"/><path class="cls-4" d="M147.09,126.46h-109a7.57,7.57,0,1,1,0-15.13h109a7.57,7.57,0,0,1,0,15.13Z"/><path d="M147.09,127h-109a8.11,8.11,0,1,1,0-16.21h109a8.11,8.11,0,0,1,0,16.21Zm-109-15.13a7,7,0,1,0,0,14h109a7,7,0,0,0,0-14Z"/><g class="cls-5"><image width="6000" height="3500" transform="translate(103.1 -321.79) scale(0.32)" xlink:href="../robots-hands-typing-on-keyboard-B5XW2CS.jpg"/></g></svg>