<svg id="Слой_1" data-name="Слой 1" xmlns="http://www.w3.org/2000/svg" xmlns:xlink="http://www.w3.org/1999/xlink" viewBox="0 0 400 400"><defs><style>.cls-1{fill:url(#Безымянный_градиент_5);}</style><linearGradient id="Безымянный_градиент_5" x1="182.19" y1="283.91" x2="312.95" y2="258.84" gradientUnits="userSpaceOnUse"><stop offset="0" stop-color="#1bb6e4"/><stop offset="1" stop-color="#3d7fbb"/></linearGradient></defs><title>Монтажная область 5 копия 10</title><path d="M269.9,259.13C268.16,247.32,259,197.47,250.23,185s-31.93-16.83-35.86-17.71a17.54,17.54,0,0,0-7.44-6.12s13.78-16,18.15-28.64c1.88-4.37,5.72-15.09,1.88-23,0-8.09,5.77-51.82-43.2-52.91-49,1.09-43.2,44.82-43.2,52.91-3.85,7.87,0,18.59,1.87,23,4.38,12.68,18.15,28.64,18.15,28.64a17.47,17.47,0,0,0-7.43,6.12c-3.94.88-27.11,5.25-35.86,17.71s-17.93,62.32-19.68,74.13,6.12,13.11,6.12,13.11h160S271.65,270.93,269.9,259.13Zm-93.15-63.22c-.76,4.65-4.54,1.62-4.54,1.62l-7-10.16V171.7c1.62-3.68,5.73-.55,8.54.64s2.81,2.38,2.81,2.38l.22,6.06C179.34,181.75,177.5,191.26,176.75,195.91Zm-1-35.73c-18.33-9.89-21.74-33.89-21.74-33.89-1.94.16-4.05-2.43-3.89-6s3.89-3.57,3.89-3.57c-.43-11.85,16.55-10.86,22.38-10.38s12.17,8.27,17.36,10.38,7.94,2.43,16.86-1.13c9.57-.65,6.49,9.56,5.19,9.89s-1.94,2.11-1.94,2.11c-5.52,25.13-22.22,32.59-22.22,32.59Zm27.49,27.19-7,10.16s-3.78,3-4.54-1.62-2.59-14.16,0-15.13l.22-6.06s0-1.19,2.81-2.38,6.92-4.32,8.54-.64Z"/><polygon class="cls-1" points="192.35 222.4 219.83 196.2 300.94 196.2 300.94 341.63 193.26 341.63 192.35 222.4"/><path d="M302.64,343.34H191.57l-.93-121.66,28.51-27.18h83.49ZM195,339.93H299.23v-142H220.51l-26.44,25.22Z"/><path d="M226.26,231.12h-19a1.71,1.71,0,0,1,0-3.41h15.6V213.16a1.71,1.71,0,1,1,3.42,0Z"/><path d="M275.68,270.63H218.26a1.71,1.71,0,0,1,0-3.42h57.42a1.71,1.71,0,0,1,0,3.42Z"/><path d="M275.68,291.43H218.26a1.71,1.71,0,1,1,0-3.42h57.42a1.71,1.71,0,0,1,0,3.42Z"/><path d="M275.68,312.23H218.26a1.71,1.71,0,1,1,0-3.42h57.42a1.71,1.71,0,0,1,0,3.42Z"/></svg>