<svg id="Слой_1" data-name="Слой 1" xmlns="http://www.w3.org/2000/svg" xmlns:xlink="http://www.w3.org/1999/xlink" viewBox="0 0 400 400"><defs><style>.cls-1{fill:url(#Безымянный_градиент_5);}</style><linearGradient id="Безымянный_градиент_5" x1="93.89" y1="154.41" x2="302.49" y2="114.41" gradientUnits="userSpaceOnUse"><stop offset="0" stop-color="#1bb6e4"/><stop offset="1" stop-color="#3d7fbb"/></linearGradient></defs><title>Монтажная область 5 копия 7</title><rect class="cls-1" x="100.93" y="77.71" width="194.52" height="113.41"/><path d="M297.25,192.92H99.13v-117H297.25Zm-194.52-3.6H293.65V79.51H102.73Z"/><path d="M198.19,167.08c-13.07,0-23.69-14.66-23.69-32.67s10.62-32.66,23.69-32.66,23.69,14.65,23.69,32.66S211.25,167.08,198.19,167.08Zm0-61.73c-11.08,0-20.09,13-20.09,29.06s9,29.07,20.09,29.07,20.09-13,20.09-29.07S209.27,105.35,198.19,105.35Z"/><circle cx="147.76" cy="134.59" r="3.77"/><path d="M147.76,140.16a5.57,5.57,0,1,1,5.57-5.57A5.58,5.58,0,0,1,147.76,140.16Zm0-7.54a2,2,0,1,0,2,2A2,2,0,0,0,147.76,132.62Z"/><circle cx="249.33" cy="134.59" r="3.77"/><path d="M249.33,140.16a5.57,5.57,0,1,1,5.57-5.57A5.58,5.58,0,0,1,249.33,140.16Zm0-7.54a2,2,0,1,0,2,2A2,2,0,0,0,249.33,132.62Z"/><path d="M123.18,136.21a1.79,1.79,0,0,1-1.8-1.8v-19.6l1.65-.14c4.83-.4,8.49-2,10.89-4.89,3.72-4.4,3.26-10.32,3.26-10.38l-.17-2h32.82a1.8,1.8,0,0,1,0,3.6H140.78a18.71,18.71,0,0,1-4.08,11c-2.74,3.27-6.68,5.29-11.72,6v16.33A1.8,1.8,0,0,1,123.18,136.21Z"/><path d="M169.83,171.56H137l.18-2s.46-6-3.26-10.38c-2.4-2.84-6.06-4.49-10.89-4.89l-1.65-.14V131.36a1.8,1.8,0,1,1,3.6,0v19.57c5,.71,9,2.73,11.72,6a18.71,18.71,0,0,1,4.08,11h29.05a1.8,1.8,0,0,1,0,3.6Z"/><path d="M273.92,136.93a1.8,1.8,0,0,1-1.8-1.8V118.79c-5-.71-9-2.73-11.73-6a18.68,18.68,0,0,1-4.07-11H227.26a1.8,1.8,0,1,1,0-3.6h32.83l-.17,2s-.46,6,3.25,10.38c2.4,2.84,6.07,4.49,10.9,4.89l1.65.14v19.6A1.81,1.81,0,0,1,273.92,136.93Z"/><path d="M258.12,172.28H227.26a1.8,1.8,0,1,1,0-3.6h29.06a18.68,18.68,0,0,1,4.07-11c2.75-3.27,6.69-5.29,11.73-6V132.26a1.8,1.8,0,0,1,3.6,0v22.65l-1.65.14c-4.83.4-8.5,2-10.9,4.89-3.71,4.4-3.26,10.32-3.25,10.38l.16,2Z"/><path d="M66.65,274a1.8,1.8,0,0,1-1.19-3.15c4.17-3.7,8.32-7.75,12.33-11.66C89,248.34,100.53,237.08,115,230.37c15.2-7.06,30.9-4.05,46.07-1.14,4.49.86,9.14,1.75,13.66,2.35,10,1.32,20.38,1.33,30.38,1.33,3.86,0,7.73,0,11.59.08,8.49.16,24.29.47,26.74,16.39.84,5.41-.2,9.86-3.09,13.22-6.57,7.67-20.86,7.69-30.36,7.66H173.78a1.8,1.8,0,0,1,0-3.6h36.16c8.37,0,22.13,0,27.63-6.4,2.2-2.57,2.94-5.95,2.26-10.34-1.65-10.72-10.49-13.08-23.25-13.33-3.84-.07-7.68-.07-11.53-.08-10.11,0-20.57,0-30.84-1.36-4.62-.61-9.32-1.52-13.87-2.39-15.28-2.93-29.72-5.7-43.87.88-13.86,6.44-25.2,17.48-36.16,28.16-4,3.94-8.23,8-12.46,11.77A1.77,1.77,0,0,1,66.65,274Z"/><path d="M97.88,324.09a1.77,1.77,0,0,1-1.3-.55,1.79,1.79,0,0,1,0-2.54c24.93-23.88,62.52-21.9,95.69-20.16,7.64.41,14.86.79,21.79.86h.21c7,0,13.26-3.89,19.29-7.66l2.19-1.36c8.27-5.07,16.8-9.88,24.83-14.37,9.5-5.31,19.23-10.58,28.63-15.68C298,257.9,307,253,315.8,248.11c12.5-7,17.47-14.29,15.2-22.4-1.32-4.69-3.76-7.67-7.46-9.11-13.78-5.35-41,11.52-55.63,20.59-2.84,1.76-5.29,3.28-7.11,4.31a1.8,1.8,0,1,1-1.76-3.14c1.75-1,4.17-2.49,7-4.23,16.22-10.06,43.38-26.9,58.83-20.89,4.77,1.86,8,5.73,9.62,11.5,4.16,14.79-11.7,23.61-16.91,26.51-8.83,4.91-17.85,9.81-26.57,14.54-9.4,5.1-19.11,10.36-28.59,15.66-8,4.47-16.5,9.26-24.71,14.3l-2.16,1.34c-6.53,4.08-13.4,8.28-21.44,8.21-7-.08-14.27-.46-22-.86-32.43-1.7-69.2-3.64-93,19.15A1.77,1.77,0,0,1,97.88,324.09Z"/></svg>