<svg id="Слой_1" data-name="Слой 1" xmlns="http://www.w3.org/2000/svg" xmlns:xlink="http://www.w3.org/1999/xlink" viewBox="0 0 400 400"><defs><style>.cls-1{fill:url(#Безымянный_градиент_5);}.cls-2,.cls-3{fill:none;}.cls-3{stroke:#000;stroke-miterlimit:10;}</style><linearGradient id="Безымянный_градиент_5" x1="128.87" y1="225.14" x2="237.95" y2="204.22" gradientUnits="userSpaceOnUse"><stop offset="0" stop-color="#1bb6e4"/><stop offset="1" stop-color="#3d7fbb"/></linearGradient></defs><title>Монтажная область 5 копия 13</title><path class="cls-1" d="M239.14,214.67c0,31.23-24.93,56.55-55.69,56.55-25.67,0-47.28-17.64-53.72-41.64-.74-2.74,11.32-13.57,11-16.46l-13,1.55c0-31.24,24.93-56.56,55.68-56.56,25.28,0,46.63,17.11,53.43,40.55.73,2.54-11.1,13.34-10.71,16S239.14,211.89,239.14,214.67Z"/><path class="cls-2" d="M246.68,175.64l-5,3.89L234,169.36l5.21-4.09a73.19,73.19,0,0,0-55.76-25.91c-40.31,0-73.16,33-73.81,73.76H257.26A75.43,75.43,0,0,0,246.68,175.64Z"/><path class="cls-2" d="M109.64,213.12c0,.42,0,.83,0,1.25,0,41.35,33.13,75,73.85,75s73.85-33.65,73.85-75c0-.42,0-.83,0-1.25Z"/><path d="M257.26,213.12c0,.42,0,.83,0,1.25,0,41.35-33.12,75-73.85,75a73.21,73.21,0,0,1-55.67-25.81l-2.51,2a76.36,76.36,0,0,0,58.18,27.06c42.47,0,77-35.09,77-78.21,0-.42,0-.83-.05-1.25Z"/><path d="M183.45,139.36a73.19,73.19,0,0,1,55.76,25.91l2.51-2a76.37,76.37,0,0,0-58.27-27.15c-42,0-76.32,34.42-77,77h3.17C110.29,172.34,143.14,139.36,183.45,139.36Z"/><path d="M183.45,160a53.31,53.31,0,0,1,45.1,25.19l2.23-2.45a56.46,56.46,0,0,0-47.33-26c-30.84,0-56,25.16-56.63,56.33H130C130.64,183.72,154.35,160,183.45,160Z"/><path d="M236.92,213.12c0,.42.06.83.06,1.25,0,30-24,54.36-53.53,54.36a53.29,53.29,0,0,1-44.89-24.86l-2.23,2.45a56.44,56.44,0,0,0,47.12,25.62c31.26,0,56.69-25.83,56.69-57.57,0-.42,0-.83-.06-1.25Z"/><polyline class="cls-3" points="109.64 213.13 96.35 213.13 117.44 247.95 140.73 213.13 126.83 213.13"/><polyline class="cls-3" points="257.26 214.67 270.55 214.67 249.45 179.85 226.17 214.67 240.07 214.67"/><path class="cls-3" d="M169.48,228c0,7.34,6.34,13.3,14.17,13.3A14.06,14.06,0,0,0,197.82,228c.84-14-28.34-14-28.34-27.93,0-7.34,6.34-13.3,14.17-13.3s14.17,6,14.17,13.3"/><line class="cls-3" x1="183.66" y1="177.11" x2="183.65" y2="186.74"/><line class="cls-3" x1="183.67" y1="241.61" x2="183.66" y2="251.25"/><path d="M286.79,342H78.18L76.43,109.89,130,58H286.79ZM84.54,335.45H280.38V64.55H132.54L82.87,112.66Z"/><path d="M143.33,127.9H107.62a3.26,3.26,0,0,1,0-6.51h29.29V93.64a3.21,3.21,0,1,1,6.42,0Z"/></svg>