<svg id="Слой_1" data-name="Слой 1" xmlns="http://www.w3.org/2000/svg" xmlns:xlink="http://www.w3.org/1999/xlink" viewBox="0 0 400 400"><defs><style>.cls-1{fill:url(#Безымянный_градиент_5);}.cls-2{fill:url(#Безымянный_градиент_5-2);}.cls-3{fill:url(#Безымянный_градиент_5-3);}.cls-4{fill:none;stroke:#000;stroke-linecap:round;stroke-miterlimit:10;stroke-width:2px;}</style><linearGradient id="Безымянный_градиент_5" x1="93.41" y1="287.98" x2="144.26" y2="278.23" gradientUnits="userSpaceOnUse"><stop offset="0" stop-color="#1bb6e4"/><stop offset="1" stop-color="#3d7fbb"/></linearGradient><linearGradient id="Безымянный_градиент_5-2" x1="255.35" y1="291.11" x2="306.2" y2="281.36" xlink:href="#Безымянный_градиент_5"/><linearGradient id="Безымянный_градиент_5-3" x1="172.2" y1="127.78" x2="223.05" y2="118.03" xlink:href="#Безымянный_градиент_5"/></defs><title>Монтажная область 5 копия 9</title><polygon class="cls-1" points="136.93 329.16 99.91 321.86 108.16 275.39 98.7 251.96 115.76 234.16 139.36 252.68 129.34 275.39 136.93 329.16"/><polygon class="cls-2" points="298.87 332.3 261.84 324.99 270.1 278.52 260.64 255.09 277.7 237.29 301.3 255.81 291.28 278.52 298.87 332.3"/><polygon class="cls-3" points="215.72 168.97 178.69 161.66 186.94 115.19 177.49 91.77 194.55 73.97 218.15 92.48 208.13 115.19 215.72 168.97"/><path d="M168,332.32c-1-6.71-6.21-35-11.18-42.11s-18.13-9.57-20.37-10.06a9.94,9.94,0,0,0-4.22-3.48s7.82-9.07,10.31-16.27c1.06-2.49,3.25-8.57,1.06-13,0-4.59,3.28-29.44-24.54-30.06-27.82.62-24.54,25.47-24.54,30.06-2.19,4.48,0,10.56,1.06,13,2.49,7.2,10.31,16.27,10.31,16.27a9.94,9.94,0,0,0-4.22,3.48c-2.24.49-15.4,3-20.37,10.06s-10.19,35.4-11.18,42.11,3.48,7.45,3.48,7.45h90.92S169,339,168,332.32Zm-52.92-35.91c-.43,2.64-2.58.92-2.58.92l-4-5.78v-8.9c.92-2.09,3.25-.31,4.85.37s1.59,1.35,1.59,1.35l.13,3.44C116.52,288.36,115.48,293.76,115.05,296.41Zm-.55-20.3c-10.41-5.62-12.34-19.26-12.34-19.26-1.11.09-2.31-1.38-2.22-3.41a2.17,2.17,0,0,1,2.22-2c-.25-6.74,9.39-6.18,12.71-5.9s6.91,4.7,9.86,5.9,4.51,1.38,9.58-.65c5.43-.37,3.68,5.44,2.95,5.62s-1.11,1.2-1.11,1.2c-3.13,14.28-12.62,18.52-12.62,18.52Zm15.62,15.44-4,5.78s-2.15,1.72-2.58-.92-1.48-8.05,0-8.6l.12-3.44s0-.68,1.6-1.35,3.93-2.46,4.85-.37Z"/><path d="M329.91,335.45c-1-6.71-6.21-35-11.18-42.11s-18.13-9.57-20.37-10.06a9.94,9.94,0,0,0-4.22-3.48s7.82-9.07,10.31-16.27c1.06-2.49,3.25-8.57,1.06-13,0-4.6,3.28-29.44-24.54-30.07-27.82.63-24.54,25.47-24.54,30.07-2.19,4.47,0,10.55,1.06,13,2.49,7.2,10.31,16.27,10.31,16.27a9.94,9.94,0,0,0-4.22,3.48c-2.24.49-15.4,3-20.37,10.06S233,328.74,232,335.45s3.48,7.45,3.48,7.45h90.92S330.9,342.16,329.91,335.45ZM277,299.54c-.43,2.64-2.58.92-2.58.92l-4-5.78v-8.9c.92-2.09,3.25-.31,4.85.37s1.59,1.35,1.59,1.35l.13,3.44C278.46,291.49,277.42,296.9,277,299.54Zm-.55-20.3C266,273.62,264.1,260,264.1,260c-1.11.1-2.31-1.38-2.22-3.41a2.17,2.17,0,0,1,2.22-2c-.25-6.73,9.39-6.18,12.71-5.9s6.91,4.7,9.86,5.9,4.51,1.38,9.58-.65c5.43-.37,3.68,5.44,2.95,5.62s-1.11,1.2-1.11,1.2C295,275,285.47,279.24,285.47,279.24Zm15.62,15.44-4,5.78s-2.15,1.72-2.58-.92-1.48-8.05,0-8.6l.12-3.44s0-.68,1.6-1.35,3.93-2.46,4.85-.37Z"/><path d="M246.76,172.12c-1-6.71-6.21-35-11.18-42.11s-18.14-9.56-20.37-10.06a9.93,9.93,0,0,0-4.23-3.48s7.83-9.06,10.31-16.27c1.07-2.48,3.25-8.57,1.07-13,0-4.6,3.28-29.44-24.54-30.06-27.83.62-24.55,25.46-24.55,30.06-2.18,4.47,0,10.56,1.07,13,2.48,7.21,10.31,16.27,10.31,16.27a9.94,9.94,0,0,0-4.22,3.48c-2.24.5-15.41,3-20.37,10.06s-10.19,35.4-11.18,42.11,3.47,7.46,3.47,7.46h90.93S247.75,178.83,246.76,172.12Zm-52.93-35.91c-.43,2.64-2.58.92-2.58.92l-4-5.77v-8.91c.92-2.09,3.26-.31,4.85.37s1.6,1.35,1.6,1.35l.12,3.44C195.31,128.16,194.26,133.57,193.83,136.21Zm-.54-20.3c-10.41-5.62-12.35-19.25-12.35-19.25-1.1.09-2.3-1.39-2.21-3.41a2.16,2.16,0,0,1,2.21-2c-.25-6.73,9.4-6.17,12.72-5.9s6.91,4.7,9.85,5.9,4.52,1.38,9.59-.64c5.43-.37,3.68,5.43,2.94,5.62s-1.1,1.19-1.1,1.19c-3.13,14.28-12.62,18.52-12.62,18.52Zm15.62,15.45-4,5.77s-2.14,1.72-2.57-.92-1.48-8.05,0-8.6l.12-3.44s0-.67,1.59-1.35,3.94-2.46,4.86-.37Z"/><polyline class="cls-4" points="197.82 191.12 197.82 226.16 170.33 248.51"/><line class="cls-4" x1="225.87" y1="248.51" x2="197.82" y2="226.16"/></svg>