<svg id="Слой_1" data-name="Слой 1" xmlns="http://www.w3.org/2000/svg" xmlns:xlink="http://www.w3.org/1999/xlink" viewBox="0 0 400 400"><defs><style>.cls-1{fill:url(#Безымянный_градиент_5);}</style><linearGradient id="Безымянный_градиент_5" x1="61.84" y1="226.49" x2="338.16" y2="173.51" gradientUnits="userSpaceOnUse"><stop offset="0" stop-color="#1bb6e4"/><stop offset="1" stop-color="#3d7fbb"/></linearGradient></defs><title>Монтажная область 5 копия 33</title><rect class="cls-1" x="74.09" y="109.63" width="251.82" height="180.74"/><path d="M329.89,294.35H70.11V105.65H329.89Zm-251.82-8H321.93V113.61H78.07Z"/><polygon points="200 204.9 71.77 112.86 76.41 106.4 200 195.1 323.59 106.4 328.23 112.86 200 204.9"/><path d="M157.44,222.73H91.79a4,4,0,1,1,0-7.95h65.65a4,4,0,1,1,0,7.95Z"/><path d="M120.92,243H93.21a4,4,0,1,1,0-8h27.71a4,4,0,0,1,0,8Z"/></svg>