<svg id="Слой_1" data-name="Слой 1" xmlns="http://www.w3.org/2000/svg" xmlns:xlink="http://www.w3.org/1999/xlink" viewBox="0 0 100 100"><defs><style>.cls-1{fill:url(#Безымянный_градиент_5);}.cls-2{fill:url(#Безымянный_градиент_5-2);}.cls-3{fill:url(#Безымянный_градиент_5-3);}</style><linearGradient id="Безымянный_градиент_5" x1="5.93" y1="49.97" x2="37.33" y2="49.97" gradientUnits="userSpaceOnUse"><stop offset="0" stop-color="#00b6e5"/><stop offset="1" stop-color="#0080be"/></linearGradient><linearGradient id="Безымянный_градиент_5-2" x1="40.3" y1="50" x2="79.47" y2="50" xlink:href="#Безымянный_градиент_5"/><linearGradient id="Безымянный_градиент_5-3" x1="84.81" y1="50.21" x2="94.07" y2="50.21" xlink:href="#Безымянный_градиент_5"/></defs><title>P&amp;amp;l</title><path class="cls-1" d="M18.28,29.17q9.2,0,14.12,3.23T37.33,43q0,7.41-5,10.71T18.1,57H15.19V70.77H5.93V30.24a52,52,0,0,1,6.41-.84C14.6,29.25,16.57,29.17,18.28,29.17Zm.59,7.89c-.67,0-1.34,0-2,.06l-1.69.12V49.11H18.1c3.2,0,5.62-.44,7.24-1.31s2.43-2.49,2.43-4.86a5.9,5.9,0,0,0-.62-2.85,4.76,4.76,0,0,0-1.78-1.81,7.94,7.94,0,0,0-2.82-1A23.11,23.11,0,0,0,18.87,37.06Z"/><path d="M16.12,71.7H5V29.47l.75-.15a53.8,53.8,0,0,1,6.53-.84c2.27-.16,4.29-.24,6-.24,6.28,0,11.21,1.14,14.63,3.38S38.26,37.78,38.26,43s-1.82,9.12-5.4,11.48-8.43,3.45-14.76,3.45h-2ZM6.86,69.84h7.4V56.07H18.1c6,0,10.58-1,13.73-3.14S36.4,47.65,36.4,43s-1.48-7.83-4.51-9.82-7.7-3.08-13.61-3.08c-1.67,0-3.64.08-5.87.23A52,52,0,0,0,6.86,31ZM18.1,50H14.26V36.38l.85-.07,1.71-.12a28.12,28.12,0,0,1,5.88.22,8.75,8.75,0,0,1,3.14,1.07A5.57,5.57,0,0,1,28,39.64a6.79,6.79,0,0,1,.74,3.3c0,2.73-1,4.64-2.92,5.68C24,49.58,21.49,50,18.1,50Zm-2-1.86h2A14.9,14.9,0,0,0,24.9,47c1.31-.7,1.94-2,1.94-4a4.91,4.91,0,0,0-.51-2.4,3.71,3.71,0,0,0-1.43-1.46,6.88,6.88,0,0,0-2.5-.83,25.53,25.53,0,0,0-5.46-.2l-.82.05Z"/><path class="cls-2" d="M40.3,59.86A12.32,12.32,0,0,1,41,55.74a13,13,0,0,1,1.74-3.38,13.45,13.45,0,0,1,2.55-2.67,21.91,21.91,0,0,1,3-2,27.45,27.45,0,0,1-2.53-3.73,8.73,8.73,0,0,1-1.13-4.37q0-5.22,3.14-8t8.67-2.82a14.63,14.63,0,0,1,4.87.74,10.24,10.24,0,0,1,3.47,2,8.46,8.46,0,0,1,2.11,3,9.42,9.42,0,0,1,.71,3.65,10.64,10.64,0,0,1-2,6.44,17.48,17.48,0,0,1-5.2,4.72L67,55.85a23.08,23.08,0,0,0,1-3,18.32,18.32,0,0,0,.61-3.17l7.36.95a21.66,21.66,0,0,1-.42,2.47c-.2.89-.45,1.79-.74,2.7s-.64,1.82-1,2.73a23.3,23.3,0,0,1-1.22,2.5,58.62,58.62,0,0,1,3.71,4.65,39.41,39.41,0,0,1,3.12,5.07h-9c-.33-.52-.77-1.16-1.33-1.94a16.61,16.61,0,0,0-1.65-2A22.37,22.37,0,0,1,61.91,70a18.65,18.65,0,0,1-7.06,1.28,20.12,20.12,0,0,1-7-1,12.78,12.78,0,0,1-4.49-2.67A9.35,9.35,0,0,1,41,63.92,12.1,12.1,0,0,1,40.3,59.86ZM48.55,59a5.34,5.34,0,0,0,.35,1.84,5.09,5.09,0,0,0,1.16,1.75,6.21,6.21,0,0,0,2.06,1.3,8,8,0,0,0,3,.5,13.19,13.19,0,0,0,4.38-.66A9.64,9.64,0,0,0,62.65,62l-9.56-9.5a10.82,10.82,0,0,0-1.62,1A7.93,7.93,0,0,0,50,54.86,6.9,6.9,0,0,0,49,56.67,5.93,5.93,0,0,0,48.55,59ZM60.06,38.49a3.75,3.75,0,0,0-.89-2.44,3.67,3.67,0,0,0-3-1.07,3.74,3.74,0,0,0-2.93,1.16,4.28,4.28,0,0,0-1,3,5.62,5.62,0,0,0,.89,3,13.8,13.8,0,0,0,2.29,2.77,13.09,13.09,0,0,0,3.28-2.55A5.5,5.5,0,0,0,60.06,38.49Z"/><path d="M54.85,72.24a21.09,21.09,0,0,1-7.28-1.1,13.68,13.68,0,0,1-4.8-2.87,10.23,10.23,0,0,1-2.64-4,13.59,13.59,0,0,1-.06-8.79,13.78,13.78,0,0,1,1.87-3.62A14.41,14.41,0,0,1,44.66,49a21.78,21.78,0,0,1,2.25-1.59,27.75,27.75,0,0,1-2-3,9.6,9.6,0,0,1-1.25-4.82c0-3.74,1.16-6.68,3.45-8.73s5.39-3.06,9.29-3.06a15.4,15.4,0,0,1,5.18.8,11,11,0,0,1,3.79,2.21,9.34,9.34,0,0,1,2.33,3.29,10.24,10.24,0,0,1,.79,4,11.61,11.61,0,0,1-2.23,7,18.24,18.24,0,0,1-4.47,4.33l4.85,4.8c.16-.48.32-1,.48-1.57a17.33,17.33,0,0,0,.58-3l.08-1,9.23,1.19-.1.9a23,23,0,0,1-.43,2.57c-.2.9-.46,1.84-.77,2.79s-.65,1.88-1,2.8c-.3.71-.62,1.39-1,2,1.14,1.31,2.26,2.73,3.34,4.23a42.46,42.46,0,0,1,3.19,5.19L81,71.7H69.91l-.28-.43c-.31-.49-.75-1.13-1.29-1.9-.34-.46-.68-.89-1-1.27a23.47,23.47,0,0,1-5.07,2.79A19.68,19.68,0,0,1,54.85,72.24Zm1.59-42.62c-3.43,0-6.13.87-8,2.58s-2.84,4.12-2.84,7.35a7.8,7.8,0,0,0,1,3.91A27.08,27.08,0,0,0,49,47.06l.69.86-1,.54a21.9,21.9,0,0,0-2.92,2,12.44,12.44,0,0,0-2.37,2.49,11.66,11.66,0,0,0-1.62,3.14,11.49,11.49,0,0,0-.6,3.81,11.38,11.38,0,0,0,.66,3.76,8.36,8.36,0,0,0,2.17,3.31,12.08,12.08,0,0,0,4.16,2.47,19.32,19.32,0,0,0,6.63,1,17.79,17.79,0,0,0,6.71-1.21,21.07,21.07,0,0,0,5.29-3l.65-.53.59.6a16.1,16.1,0,0,1,1.76,2.1c.43.6.78,1.11,1.08,1.55h7a39.66,39.66,0,0,0-2.32-3.59,53.92,53.92,0,0,0-3.65-4.58l-.45-.51.34-.58A18.84,18.84,0,0,0,73,58.2c.36-.88.69-1.78,1-2.67s.53-1.77.72-2.62c.12-.5.21-1,.28-1.45l-5.5-.71A22,22,0,0,1,69,53.11a23.84,23.84,0,0,1-1.06,3.12l-.55,1.23-8.49-8.41,1-.61A16.83,16.83,0,0,0,64.8,44a9.7,9.7,0,0,0,1.87-5.9A8.5,8.5,0,0,0,66,34.78a7.58,7.58,0,0,0-1.88-2.64A9.17,9.17,0,0,0,61,30.31,13.48,13.48,0,0,0,56.44,29.62ZM55.15,65.29a9.06,9.06,0,0,1-3.38-.57,7.08,7.08,0,0,1-2.36-1.5A6,6,0,0,1,48,61.14,6.26,6.26,0,0,1,47.62,59a7,7,0,0,1,.48-2.66,8.12,8.12,0,0,1,1.2-2,9.06,9.06,0,0,1,1.61-1.55,12.15,12.15,0,0,1,1.76-1.09l.6-.3L64,62l-.75.66a10.68,10.68,0,0,1-3.43,1.92A14.17,14.17,0,0,1,55.15,65.29ZM52.92,53.61q-.45.27-.9.6a7.8,7.8,0,0,0-1.28,1.23A6.3,6.3,0,0,0,49.82,57,5.07,5.07,0,0,0,49.48,59a4.43,4.43,0,0,0,.29,1.51,4,4,0,0,0,.95,1.42A5.25,5.25,0,0,0,52.46,63a7.29,7.29,0,0,0,2.69.43,12,12,0,0,0,4.06-.61,9.46,9.46,0,0,0,2-1Zm2.35-7.55-.5-.47a14.59,14.59,0,0,1-2.45-3,6.59,6.59,0,0,1-1-3.48,5.26,5.26,0,0,1,1.27-3.62,4.68,4.68,0,0,1,3.63-1.47,4.57,4.57,0,0,1,3.69,1.41,4.63,4.63,0,0,1,1.1,3A6.43,6.43,0,0,1,59.38,43a14.32,14.32,0,0,1-3.51,2.74Zm.93-10.15a2.82,2.82,0,0,0-2.24.85,3.4,3.4,0,0,0-.8,2.38,4.69,4.69,0,0,0,.75,2.51,12.47,12.47,0,0,0,1.64,2.1,12.29,12.29,0,0,0,2.46-2,4.58,4.58,0,0,0,1.12-3.24,2.8,2.8,0,0,0-.67-1.84A2.85,2.85,0,0,0,56.2,35.91Z"/><path class="cls-3" d="M84.81,29.64h9.26V70.77H84.81Z"/><path d="M95,71.7H83.88v-43H95Zm-9.26-1.86h7.4V30.57h-7.4Z"/></svg>