<svg id="Слой_1" data-name="Слой 1" xmlns="http://www.w3.org/2000/svg" xmlns:xlink="http://www.w3.org/1999/xlink" viewBox="0 0 400 400"><defs><style>.cls-1{fill:url(#Безымянный_градиент_5);}</style><linearGradient id="Безымянный_градиент_5" x1="105.38" y1="218.14" x2="294.62" y2="181.86" gradientUnits="userSpaceOnUse"><stop offset="0" stop-color="#1bb6e4"/><stop offset="1" stop-color="#3d7fbb"/></linearGradient></defs><title>Монтажная область 5 копия 28</title><rect class="cls-1" x="126.78" y="67.2" width="146.45" height="265.59" rx="3.43"/><path d="M262,336.08H138.05a14.57,14.57,0,0,1-14.56-14.56v-243a14.57,14.57,0,0,1,14.56-14.56H262a14.57,14.57,0,0,1,14.56,14.56v243A14.57,14.57,0,0,1,262,336.08ZM138.05,70.49a8,8,0,0,0-8,8v243a8,8,0,0,0,8,8H262a8,8,0,0,0,8-8v-243a8,8,0,0,0-8-8Z"/><path d="M243.44,295.13H156.56a3.29,3.29,0,0,1,0-6.58h86.88a3.29,3.29,0,1,1,0,6.58Z"/><path d="M213.34,315.76H186.66a3.29,3.29,0,1,1,0-6.57h26.68a3.29,3.29,0,1,1,0,6.57Z"/></svg>