<svg id="Слой_1" data-name="Слой 1" xmlns="http://www.w3.org/2000/svg" xmlns:xlink="http://www.w3.org/1999/xlink" viewBox="0 0 400 400"><defs><style>.cls-1{fill:none;}.cls-2{clip-path:url(#clip-path);}.cls-3{fill:#1bb6e4;}.cls-4{fill:#1db3e2;}.cls-5{fill:#1eb1e0;}.cls-6{fill:#20aede;}.cls-7{fill:#21acdc;}.cls-8{fill:#23a9da;}.cls-9{fill:#25a6d8;}.cls-10{fill:#26a4d6;}.cls-11{fill:#28a1d4;}.cls-12{fill:#2a9ed2;}.cls-13{fill:#2b9cd0;}.cls-14{fill:#2d99cf;}.cls-15{fill:#2e97cd;}.cls-16{fill:#3094cb;}.cls-17{fill:#3291c9;}.cls-18{fill:#338fc7;}.cls-19{fill:#358cc5;}.cls-20{fill:#3789c3;}.cls-21{fill:#3887c1;}.cls-22{fill:#3a84bf;}.cls-23{fill:#3b82bd;}.cls-24{fill:#3d7fbb;}</style><clipPath id="clip-path"><path class="cls-1" d="M311.43,150.47A36.3,36.3,0,0,1,240.12,160c-.48-1.75,7.39-8.7,7.18-10.55l-8.45,1A36.3,36.3,0,0,1,310,140.19c.48,1.63-7.23,8.56-7,10.28S311.43,148.68,311.43,150.47Z"/></clipPath></defs><title>Монтажная область 5 копия 8</title><path d="M201.05,295.54c-1.69-11.38-10.54-59.45-19-71.46S151.3,207.85,147.5,207a16.88,16.88,0,0,0-7.16-5.9s13.28-15.39,17.49-27.61c1.81-4.22,5.52-14.55,1.81-22.14,0-7.8,5.57-50-41.65-51-47.22,1-41.65,43.21-41.65,51-3.7,7.59,0,17.92,1.81,22.14,4.22,12.22,17.5,27.61,17.5,27.61a16.87,16.87,0,0,0-7.17,5.9c-3.79.85-26.14,5.06-34.57,17.08s-17.29,60.08-19,71.46,5.9,12.65,5.9,12.65h154.3S202.73,306.92,201.05,295.54Zm-89.82-61c-.73,4.49-4.37,1.57-4.37,1.57l-6.78-9.8V211.25c1.56-3.55,5.53-.52,8.24.62s2.71,2.3,2.71,2.3l.2,5.83C113.74,220.94,112,230.11,111.23,234.59Zm-.92-34.44c-17.67-9.54-21-32.68-21-32.68-1.88.16-3.91-2.34-3.76-5.78s3.76-3.44,3.76-3.44c-.42-11.43,15.94-10.48,21.57-10s11.73,8,16.73,10,7.66,2.34,16.26-1.1c9.23-.62,6.26,9.23,5,9.54s-1.87,2-1.87,2c-5.32,24.24-21.42,31.43-21.42,31.43Zm26.5,26.21-6.77,9.8s-3.65,2.92-4.38-1.57-2.5-13.65,0-14.59l.21-5.83s0-1.15,2.71-2.3,6.67-4.17,8.23-.62Z"/><path d="M305.41,208.73H235.59a58.38,58.38,0,0,1-37.14-13.4,61.83,61.83,0,0,1-17.2-24.48s-5.15-13.2-3.83-26.37c3-30.16,29.26-52.67,59.56-52.67h69.87a58.52,58.52,0,0,1,58.41,60.72C364.07,184.16,337.07,208.73,305.41,208.73ZM199.55,192.17l.46.38a55.29,55.29,0,0,0,35.58,13h69.9c30,0,55.51-23.25,56.64-53.19A55.38,55.38,0,0,0,306.85,95H237c-28.92,0-54,21.64-56.49,50.45a33.44,33.44,0,0,0,.19,6.17,69.92,69.92,0,0,0,17.08,38.53Z"/><g class="cls-2"><polygon class="cls-3" points="238.85 153.4 245.25 186.76 238.85 186.76 238.85 153.4"/><polygon class="cls-3" points="238.85 135.94 248.59 186.76 245.25 186.76 238.85 153.4 238.85 135.94"/><polygon class="cls-4" points="238.85 118.48 251.94 186.76 248.59 186.76 238.85 135.94 238.85 118.48"/><polygon class="cls-5" points="241.37 114.17 255.29 186.76 251.94 186.76 238.85 118.48 238.85 114.17 241.37 114.17"/><polygon class="cls-6" points="244.72 114.17 258.64 186.76 255.29 186.76 241.37 114.17 244.72 114.17"/><polygon class="cls-7" points="248.06 114.17 261.98 186.76 258.64 186.76 244.72 114.17 248.06 114.17"/><polygon class="cls-8" points="251.41 114.17 265.33 186.76 261.98 186.76 248.06 114.17 251.41 114.17"/><polygon class="cls-9" points="254.76 114.17 268.68 186.76 265.33 186.76 251.41 114.17 254.76 114.17"/><polygon class="cls-10" points="258.11 114.17 272.03 186.76 268.68 186.76 254.76 114.17 258.11 114.17"/><polygon class="cls-11" points="261.45 114.17 275.37 186.76 272.03 186.76 258.11 114.17 261.45 114.17"/><polygon class="cls-12" points="264.8 114.17 278.72 186.76 275.37 186.76 261.45 114.17 264.8 114.17"/><polygon class="cls-13" points="268.15 114.17 282.07 186.76 278.72 186.76 264.8 114.17 268.15 114.17"/><polygon class="cls-14" points="271.5 114.17 285.42 186.76 282.07 186.76 268.15 114.17 271.5 114.17"/><polygon class="cls-15" points="274.85 114.17 288.76 186.76 285.42 186.76 271.5 114.17 274.85 114.17"/><polygon class="cls-16" points="278.19 114.17 292.11 186.76 288.76 186.76 274.85 114.17 278.19 114.17"/><polygon class="cls-17" points="281.54 114.17 295.46 186.76 292.11 186.76 278.19 114.17 281.54 114.17"/><polygon class="cls-18" points="284.89 114.17 298.81 186.76 295.46 186.76 281.54 114.17 284.89 114.17"/><polygon class="cls-19" points="288.24 114.17 302.15 186.76 298.81 186.76 284.89 114.17 288.24 114.17"/><polygon class="cls-20" points="291.58 114.17 305.5 186.76 302.15 186.76 288.24 114.17 291.58 114.17"/><polygon class="cls-21" points="294.93 114.17 308.85 186.76 305.5 186.76 291.58 114.17 294.93 114.17"/><polygon class="cls-22" points="298.28 114.17 311.43 182.78 311.43 186.76 308.85 186.76 294.93 114.17 298.28 114.17"/><polygon class="cls-23" points="301.63 114.17 311.43 165.33 311.43 182.78 298.28 114.17 301.63 114.17"/><polygon class="cls-24" points="304.97 114.17 311.43 147.87 311.43 165.33 301.63 114.17 304.97 114.17"/><polygon class="cls-24" points="311.43 147.87 304.97 114.17 311.43 114.17 311.43 147.87"/></g><path class="cls-1" d="M316.35,125.42l-3.23,2.5-5-6.53,3.4-2.63A48.09,48.09,0,0,0,227,149.48h96.22A48,48,0,0,0,316.35,125.42Z"/><path class="cls-1" d="M227,149.48c0,.26,0,.53,0,.79a48.13,48.13,0,0,0,96.26,0c0-.27,0-.53,0-.79Z"/><path d="M323.25,149.48c0,.26,0,.52,0,.79a48.1,48.1,0,0,1-84.41,31.57l-1.64,1.26a50.15,50.15,0,0,0,88.11-32.83c0-.27,0-.53,0-.79Z"/><path d="M275.14,102.14a48,48,0,0,1,36.34,16.62l1.63-1.26a50.15,50.15,0,0,0-88.14,32H227A48.18,48.18,0,0,1,275.14,102.14Z"/><path d="M275.14,115.38a34.86,34.86,0,0,1,29.39,16.17L306,130a36.9,36.9,0,0,0-67.75,19.5h2.06A34.92,34.92,0,0,1,275.14,115.38Z"/><path d="M310,149.48c0,.26,0,.52,0,.79a34.86,34.86,0,0,1-64.15,18.94l-1.45,1.57a36.93,36.93,0,0,0,67.66-20.51c0-.27,0-.53,0-.79Z"/><polygon points="232.07 173.72 216.53 148.45 227.03 148.45 227.03 150.51 220.21 150.51 232.16 169.93 245.35 150.51 238.23 150.51 238.23 148.45 249.24 148.45 232.07 173.72"/><polygon points="333.75 151.5 323.25 151.5 323.25 149.44 330.06 149.44 318.12 130.02 304.92 149.44 312.04 149.44 312.04 151.5 301.03 151.5 318.2 126.22 333.75 151.5"/><path d="M275.27,168.57c-5.66,0-10.27-4.29-10.27-9.57h2.06c0,4.14,3.68,7.51,8.21,7.51a8.06,8.06,0,0,0,8.2-7.57c.24-3.82-4-5.86-8.54-8-4.88-2.33-9.93-4.74-9.93-9.84,0-5.27,4.61-9.56,10.27-9.56s10.26,4.29,10.26,9.56h-2.06c0-4.14-3.68-7.5-8.2-7.5s-8.21,3.36-8.21,7.5c0,3.8,4.26,5.83,8.76,8,4.93,2.36,10,4.8,9.71,10A10.1,10.1,0,0,1,275.27,168.57Z"/><rect x="274.24" y="126.36" width="2.06" height="6.18"/><rect x="274.25" y="167.76" width="2.06" height="6.18"/><path d="M176.59,200.61a10.55,10.55,0,1,1,10.55-10.55A10.57,10.57,0,0,1,176.59,200.61Zm0-18.1a7.55,7.55,0,1,0,7.55,7.55A7.56,7.56,0,0,0,176.59,182.51Z"/><path d="M160.47,204.22a5.11,5.11,0,1,1,5.11-5.11A5.11,5.11,0,0,1,160.47,204.22Zm0-8a2.86,2.86,0,1,0,2.86,2.85A2.86,2.86,0,0,0,160.47,196.26Z"/></svg>