<svg id="Слой_1" data-name="Слой 1" xmlns="http://www.w3.org/2000/svg" xmlns:xlink="http://www.w3.org/1999/xlink" viewBox="0 0 100 100"><defs><style>.cls-1{fill:url(#Безымянный_градиент_5);}.cls-2{fill:url(#Безымянный_градиент_5-2);}.cls-3{fill:url(#Безымянный_градиент_5-3);}.cls-4{fill:url(#Безымянный_градиент_5-4);}.cls-5{fill:url(#Безымянный_градиент_5-5);}.cls-6{fill:url(#Безымянный_градиент_5-6);}.cls-7{fill:url(#Безымянный_градиент_5-7);}.cls-8{fill:url(#Безымянный_градиент_5-8);}.cls-9{fill:url(#Безымянный_градиент_5-9);}.cls-10{fill:url(#Безымянный_градиент_5-10);}.cls-11{fill:url(#Безымянный_градиент_5-11);}.cls-12{fill:url(#Безымянный_градиент_5-12);}.cls-13{fill:url(#Безымянный_градиент_5-13);}.cls-14{fill:url(#Безымянный_градиент_5-14);}.cls-15{fill:url(#Безымянный_градиент_5-15);}.cls-16{fill:url(#Безымянный_градиент_5-16);}.cls-17{fill:url(#Безымянный_градиент_5-17);}.cls-18{fill:none;stroke:#000;stroke-linecap:round;stroke-miterlimit:10;}</style><linearGradient id="Безымянный_градиент_5" x1="10.1" y1="64.14" x2="89.9" y2="48.84" gradientUnits="userSpaceOnUse"><stop offset="0" stop-color="#1bb6e4"/><stop offset="1" stop-color="#3d7fbb"/></linearGradient><linearGradient id="Безымянный_градиент_5-2" x1="55.4" y1="35.51" x2="65.02" y2="35.51" xlink:href="#Безымянный_градиент_5"/><linearGradient id="Безымянный_градиент_5-3" x1="55.4" y1="39.65" x2="65.02" y2="39.65" xlink:href="#Безымянный_градиент_5"/><linearGradient id="Безымянный_градиент_5-4" x1="67.05" y1="35.09" x2="71.16" y2="35.09" xlink:href="#Безымянный_градиент_5"/><linearGradient id="Безымянный_градиент_5-5" x1="67.05" y1="39.18" x2="71.16" y2="39.18" xlink:href="#Безымянный_градиент_5"/><linearGradient id="Безымянный_градиент_5-6" x1="55.37" y1="43.75" x2="64.98" y2="43.75" xlink:href="#Безымянный_градиент_5"/><linearGradient id="Безымянный_градиент_5-7" x1="67.08" y1="43.27" x2="71.19" y2="43.27" xlink:href="#Безымянный_градиент_5"/><linearGradient id="Безымянный_градиент_5-8" x1="55.37" y1="48.06" x2="64.98" y2="48.06" xlink:href="#Безымянный_градиент_5"/><linearGradient id="Безымянный_градиент_5-9" x1="67.08" y1="47.58" x2="71.19" y2="47.58" xlink:href="#Безымянный_градиент_5"/><linearGradient id="Безымянный_градиент_5-10" x1="55.4" y1="52.31" x2="65.02" y2="52.31" xlink:href="#Безымянный_градиент_5"/><linearGradient id="Безымянный_градиент_5-11" x1="55.4" y1="56.46" x2="65.02" y2="56.46" xlink:href="#Безымянный_градиент_5"/><linearGradient id="Безымянный_градиент_5-12" x1="67.05" y1="51.89" x2="71.16" y2="51.89" xlink:href="#Безымянный_градиент_5"/><linearGradient id="Безымянный_градиент_5-13" x1="67.05" y1="55.98" x2="71.16" y2="55.98" xlink:href="#Безымянный_градиент_5"/><linearGradient id="Безымянный_градиент_5-14" x1="55.37" y1="60.55" x2="64.98" y2="60.55" xlink:href="#Безымянный_градиент_5"/><linearGradient id="Безымянный_градиент_5-15" x1="67.08" y1="60.07" x2="71.19" y2="60.07" xlink:href="#Безымянный_градиент_5"/><linearGradient id="Безымянный_градиент_5-16" x1="55.37" y1="64.86" x2="64.98" y2="64.86" xlink:href="#Безымянный_градиент_5"/><linearGradient id="Безымянный_градиент_5-17" x1="67.08" y1="64.38" x2="71.19" y2="64.38" xlink:href="#Безымянный_градиент_5"/></defs><title>План.Факт</title><polygon points="49.63 25.92 49.51 89.92 77.02 89.92 77.02 22.95 68.24 22.95 67.91 25.82 49.63 25.92"/><polygon class="cls-1" points="68.24 15.93 68.24 23.93 76.47 23.93 76.47 90.53 22.19 90.53 22.19 23.93 31.76 23.93 31.76 15.93 16.41 15.93 16.41 97.05 83.59 97.05 83.59 15.93 68.24 15.93"/><polygon points="84.39 97.55 15.61 97.55 15.61 14.84 31.59 14.84 31.59 16.42 17.2 16.42 17.2 95.96 82.8 95.96 82.8 16.42 67.87 16.42 67.87 14.84 84.39 14.84 84.39 97.55"/><polygon points="77.56 90.58 21.69 90.58 21.69 22.4 31.31 22.4 31.31 23.99 23.28 23.99 23.28 88.99 75.97 88.99 75.97 23.99 67.72 23.99 67.72 22.4 77.56 22.4 77.56 90.58"/><path d="M68.74,25.92H30.52V11H68.74ZM32.11,24.33h35V12.57h-35Z"/><path d="M55.58,12.24l-1.29-.93a4.36,4.36,0,0,0,.85-2.58,5.16,5.16,0,0,0-10.28,0,4.34,4.34,0,0,0,.55,2.11L44,11.61a6,6,0,0,1-.75-2.88,6.75,6.75,0,0,1,13.46,0A6,6,0,0,1,55.58,12.24Z"/><path d="M49.63,12a.79.79,0,0,1-.8-.79V8.88a.79.79,0,0,1,.8-.79.79.79,0,0,1,.79.79v2.3A.79.79,0,0,1,49.63,12Z"/><path d="M42.9,35.85H29c-.29,0-.52-.15-.52-.34s.23-.33.52-.33H42.9c.28,0,.52.15.52.33S43.18,35.85,42.9,35.85Z"/><path d="M42.9,40H29c-.29,0-.52-.15-.52-.34s.23-.33.52-.33H42.9c.28,0,.52.15.52.33S43.18,40,42.9,40Z"/><path d="M42.94,44.08H29.09c-.29,0-.52-.15-.52-.33s.23-.34.52-.34H42.94c.29,0,.53.15.53.34S43.23,44.08,42.94,44.08Z"/><path d="M42.94,48.39H29.09c-.29,0-.52-.15-.52-.33s.23-.34.52-.34H42.94c.29,0,.53.15.53.34S43.23,48.39,42.94,48.39Z"/><path d="M42.9,52.65H29c-.29,0-.52-.15-.52-.34S28.75,52,29,52H42.9c.28,0,.52.15.52.33S43.18,52.65,42.9,52.65Z"/><path d="M42.9,56.79H29c-.29,0-.52-.15-.52-.33s.23-.34.52-.34H42.9c.28,0,.52.15.52.34S43.18,56.79,42.9,56.79Z"/><path d="M42.94,60.88H29.09c-.29,0-.52-.15-.52-.33s.23-.34.52-.34H42.94c.29,0,.53.15.53.34S43.23,60.88,42.94,60.88Z"/><path d="M42.94,65.19H29.09c-.29,0-.52-.15-.52-.33s.23-.34.52-.34H42.94c.29,0,.53.15.53.34S43.23,65.19,42.94,65.19Z"/><path class="cls-2" d="M55.74,35.85h8.94a.34.34,0,1,0,0-.67H55.74a.34.34,0,1,0,0,.67Z"/><path class="cls-3" d="M55.74,40h8.94a.34.34,0,1,0,0-.67H55.74a.34.34,0,1,0,0,.67Z"/><path class="cls-4" d="M68.56,36.62a.4.4,0,0,1-.22-.08l-1.17-1a.32.32,0,0,1,0-.47.33.33,0,0,1,.47,0l.93.82,2-2.16a.32.32,0,0,1,.47,0,.34.34,0,0,1,0,.48l-2.26,2.4A.35.35,0,0,1,68.56,36.62Z"/><path class="cls-5" d="M68.56,40.71a.33.33,0,0,1-.22-.08l-1.17-1a.34.34,0,0,1,0-.48.33.33,0,0,1,.47,0l.93.82,2-2.16a.34.34,0,1,1,.49.46l-2.26,2.4A.35.35,0,0,1,68.56,40.71Z"/><path class="cls-6" d="M55.71,44.08h8.94a.34.34,0,0,0,0-.67H55.71a.34.34,0,1,0,0,.67Z"/><path class="cls-7" d="M68.6,44.81a.35.35,0,0,1-.23-.09l-1.17-1a.34.34,0,0,1,0-.48.33.33,0,0,1,.47,0l.93.82,2-2.16a.34.34,0,1,1,.49.46l-2.26,2.4A.34.34,0,0,1,68.6,44.81Z"/><path class="cls-8" d="M55.71,48.39h8.94a.34.34,0,0,0,0-.67H55.71a.34.34,0,1,0,0,.67Z"/><path class="cls-9" d="M68.6,49.12a.35.35,0,0,1-.23-.09L67.2,48a.34.34,0,0,1,0-.48.33.33,0,0,1,.47,0l.93.82,2-2.16a.34.34,0,1,1,.49.46L68.84,49A.34.34,0,0,1,68.6,49.12Z"/><path class="cls-10" d="M55.74,52.65h8.94a.34.34,0,1,0,0-.67H55.74a.34.34,0,1,0,0,.67Z"/><path class="cls-11" d="M55.74,56.79h8.94a.34.34,0,1,0,0-.67H55.74a.34.34,0,1,0,0,.67Z"/><path class="cls-12" d="M68.56,53.42a.33.33,0,0,1-.22-.08l-1.17-1a.32.32,0,0,1,0-.47.33.33,0,0,1,.47,0l.93.82,2-2.16a.34.34,0,1,1,.49.46l-2.26,2.4A.35.35,0,0,1,68.56,53.42Z"/><path class="cls-13" d="M68.56,57.52a.35.35,0,0,1-.22-.09l-1.17-1a.34.34,0,0,1,0-.48.33.33,0,0,1,.47,0l.93.82,2-2.16a.34.34,0,1,1,.49.46l-2.26,2.4A.36.36,0,0,1,68.56,57.52Z"/><path class="cls-14" d="M55.71,60.88h8.94a.34.34,0,0,0,0-.67H55.71a.34.34,0,1,0,0,.67Z"/><path class="cls-15" d="M68.6,61.61a.35.35,0,0,1-.23-.09l-1.17-1a.34.34,0,0,1,.44-.51l.93.82,2-2.16a.34.34,0,0,1,.48,0,.33.33,0,0,1,0,.47l-2.26,2.4A.34.34,0,0,1,68.6,61.61Z"/><path class="cls-16" d="M55.71,65.19h8.94a.34.34,0,0,0,0-.67H55.71a.34.34,0,1,0,0,.67Z"/><path class="cls-17" d="M68.6,65.92a.35.35,0,0,1-.23-.09l-1.17-1a.34.34,0,0,1,.44-.51l.93.82,2-2.16a.34.34,0,0,1,.49.46l-2.26,2.4A.34.34,0,0,1,68.6,65.92Z"/><line class="cls-18" x1="49.51" y1="25.06" x2="49.51" y2="89.29"/></svg>