<svg id="Слой_1" data-name="Слой 1" xmlns="http://www.w3.org/2000/svg" xmlns:xlink="http://www.w3.org/1999/xlink" viewBox="0 0 400 400"><defs><style>.cls-1{fill:url(#Безымянный_градиент_5);}</style><linearGradient id="Безымянный_градиент_5" x1="76.54" y1="228.73" x2="327.02" y2="180.69" gradientUnits="userSpaceOnUse"><stop offset="0" stop-color="#1bb6e4"/><stop offset="1" stop-color="#3d7fbb"/></linearGradient></defs><title>Монтажная область 5 копия 22</title><polygon class="cls-1" points="96 110.89 148.64 60.7 304.01 60.7 304.01 339.3 97.74 339.3 96 110.89"/><path d="M244.86,57.43V64h55.88V336H101L99.28,112.28,150,64h94.91V57.43H147.33L92.72,109.5,94.5,342.57H307.28V118.13h0V57.43Z"/><path d="M161,127.59H124.53a3.27,3.27,0,1,1,0-6.54h29.88V93.18a3.27,3.27,0,1,1,6.54,0Z"/><path d="M282,326.82c-1.66-11.24-10.4-58.69-18.73-70.55s-30.38-16-34.13-16.85a16.56,16.56,0,0,0-7.07-5.83s13.11-15.19,17.27-27.26c1.79-4.16,5.44-14.36,1.79-21.85,0-7.7,5.49-49.32-41.12-50.36-46.61,1-41.12,42.66-41.12,50.36-3.65,7.49,0,17.69,1.79,21.85,4.16,12.07,17.27,27.26,17.27,27.26a16.56,16.56,0,0,0-7.07,5.83c-3.75.83-25.81,5-34.13,16.85S119.67,315.58,118,326.82s5.83,12.48,5.83,12.48H276.16S283.65,338.05,282,326.82Zm-88.66-60.17c-.72,4.43-4.32,1.55-4.32,1.55l-6.69-9.68V243.6c1.54-3.49,5.45-.51,8.13.62s2.67,2.27,2.67,2.27l.21,5.76C195.8,253.17,194.05,262.23,193.33,266.65Zm-.92-34c-17.44-9.42-20.68-32.26-20.68-32.26-1.85.15-3.86-2.32-3.7-5.71s3.7-3.4,3.7-3.4c-.41-11.27,15.74-10.34,21.3-9.87s11.58,7.87,16.51,9.87,7.57,2.32,16.06-1.08c9.1-.61,6.17,9.11,4.94,9.42s-1.86,2-1.86,2c-5.24,23.93-21.14,31-21.14,31Zm26.17,25.87-6.69,9.68s-3.6,2.88-4.32-1.55-2.47-13.48,0-14.4l.2-5.76s0-1.14,2.68-2.27,6.59-4.11,8.13-.62Z"/></svg>