<svg id="Слой_1" data-name="С лой 1" xmlns="http://www.w3.org/2000/svg" xmlns:xlink="http://www.w3.org/1999/xlink" viewBox="0 0 100 100"><defs><style>.cls-1{fill:url(#Безымянный_градиент_5);}.cls-2{fill:url(#Безымянный_градиент_5-2);}.cls-3{fill:url(#Безымянный_градиент_5-3);}</style><linearGradient id="Безымянный_градиент_5" x1="609.93" y1="769" x2="652.94" y2="760.76" gradientTransform="translate(-856.71 -286) rotate(-30.24)" gradientUnits="userSpaceOnUse"><stop offset="0" stop-color="#00b6e5"/><stop offset="1" stop-color="#0080be"/></linearGradient><linearGradient id="Безымянный_градиент_5-2" x1="485.58" y1="626.99" x2="534.29" y2="617.65" gradientTransform="matrix(0.91, -0.42, 0.42, 0.91, -696.72, -280.73)" xlink:href="#Безымянный_градиент_5"/><linearGradient id="Безымянный_градиент_5-3" x1="264.72" y1="257.75" x2="301.13" y2="250.77" gradientTransform="translate(-279.89 -172.28) rotate(-10.44)" xlink:href="#Безымянный_градиент_5"/></defs><title>Виробництво</title><path class="cls-1" d="M56.52,70l-2.58-4.42a5.1,5.1,0,0,1,.45-1,26.76,26.76,0,0,1,2.27-3,2.94,2.94,0,0,0,.79-3.1,1.15,1.15,0,0,0-.33-.54c-.85-.62-1.73-1.19-2.57-1.82a19,19,0,0,1-1.88-1.59.88.88,0,0,1-.19-.72c.37-1.45.78-2.88,1.18-4.32a.84.84,0,0,1,.68-.68c1.39-.25,2.78-.62,4.18-.74a3.05,3.05,0,0,0,2.78-1.67,1.29,1.29,0,0,0,.17-.65c-.14-1-.33-2-.46-3-.11-.8-.16-1.61-.21-2.41a.87.87,0,0,1,.52-.86c1.16-.66,2.33-1.3,3.45-2a1.35,1.35,0,0,1,1.71,0l2.94,2.11a5.07,5.07,0,0,0,1.45,1,4.3,4.3,0,0,0,1.75-.2,1.06,1.06,0,0,0,.57-.35c1.08-1.38,2.14-2.78,3.21-4.18a1.12,1.12,0,0,1,1.32-.41c1.32.35,2.64.68,4,1a.91.91,0,0,1,.79.77c.23,1.34.45,2.68.66,4a5,5,0,0,0,.29,1.69A4.25,4.25,0,0,0,84.77,44a.86.86,0,0,0,.58.14c1.06-.16,2.12-.38,3.18-.54.76-.11,1.52-.17,2.28-.24a1,1,0,0,1,1,.57c.62,1.12,1.23,2.24,1.94,3.31A1.34,1.34,0,0,1,93.69,49a35.63,35.63,0,0,1-2.28,3,2.92,2.92,0,0,0-.79,3.1,1,1,0,0,0,.31.51c.84.62,1.72,1.19,2.56,1.82A20.53,20.53,0,0,1,95.38,59a.89.89,0,0,1,.2.76c-.36,1.44-.77,2.88-1.17,4.31a.84.84,0,0,1-.68.68,39.44,39.44,0,0,1-4.14.73,3.13,3.13,0,0,0-2.85,1.72,1,1,0,0,0-.14.57c.14,1,.34,2.07.48,3.11.1.76.15,1.52.2,2.29a.94.94,0,0,1-.56,1c-1.15.64-2.31,1.28-3.42,2a1.35,1.35,0,0,1-1.71,0L78.65,74c-.48-.35-.92-.88-1.45-1a4.54,4.54,0,0,0-1.8.2.88.88,0,0,0-.49.31c-1.1,1.41-2.18,2.83-3.27,4.25a1.12,1.12,0,0,1-1.29.39c-1.23-.33-2.47-.68-3.72-.93A1.3,1.3,0,0,1,65.48,76c-.19-1.23-.38-2.46-.56-3.7a4.57,4.57,0,0,0-.28-1.65,3.83,3.83,0,0,0-1.31-1.05,1,1,0,0,0-.65-.16c-1.67.24-3.33.52-5,.74A5.2,5.2,0,0,1,56.52,70ZM77.73,63.1a7.34,7.34,0,1,0-10.17-2.57A7.42,7.42,0,0,0,77.73,63.1Z"/><path d="M83.42,76.54a1.75,1.75,0,0,1-2.08-.12L80.81,76c-.81-.57-1.61-1.15-2.41-1.73-.17-.12-.33-.26-.48-.39a2.31,2.31,0,0,0-.82-.55,2.89,2.89,0,0,0-1.17.11l-.45.1a.53.53,0,0,0-.24.15c-.84,1.09-1.68,2.17-2.51,3.26L72,78a1.49,1.49,0,0,1-1.73.54l-.51-.13c-1-.28-2.12-.57-3.18-.79A1.71,1.71,0,0,1,65.06,76l-.3-2c-.08-.57-.17-1.14-.26-1.71,0-.19,0-.39,0-.59a2.19,2.19,0,0,0-.17-.92,2.39,2.39,0,0,0-.86-.7l-.32-.21a.61.61,0,0,0-.36-.09l-2.19.33c-.92.14-1.87.29-2.81.41a2.57,2.57,0,0,1-.93-.07l-.34,0-.21,0-2.79-4.78.08-.19c.05-.1.08-.21.12-.31a2.82,2.82,0,0,1,.37-.81l.42-.6a21.26,21.26,0,0,1,1.89-2.47,2.54,2.54,0,0,0,.7-2.69.67.67,0,0,0-.19-.32c-.38-.29-.78-.56-1.18-.84s-.93-.64-1.38-1a23.44,23.44,0,0,1-1.92-1.62,1.29,1.29,0,0,1-.31-1.14c.31-1.21.65-2.44,1-3.62l.2-.7a1.25,1.25,0,0,1,1-1l1.26-.26a23.89,23.89,0,0,1,3-.49,2.65,2.65,0,0,0,2.44-1.44.83.83,0,0,0,.12-.41c-.07-.49-.15-1-.23-1.47s-.17-1-.23-1.55c-.11-.81-.16-1.64-.21-2.43a1.28,1.28,0,0,1,.73-1.26l.59-.34c.95-.53,1.92-1.08,2.84-1.68a1.77,1.77,0,0,1,2.19.06l.32.23c.88.62,1.75,1.25,2.62,1.88a5.48,5.48,0,0,1,.48.39,2.27,2.27,0,0,0,.82.55A2.7,2.7,0,0,0,72.13,40l.41-.09a.63.63,0,0,0,.31-.19c.89-1.13,1.76-2.27,2.63-3.41l.59-.77A1.53,1.53,0,0,1,77.83,35c1.27.34,2.6.67,4,1a1.34,1.34,0,0,1,1.12,1.11l.66,4c0,.2,0,.41.06.61a2.29,2.29,0,0,0,.17.94,2.67,2.67,0,0,0,.85.71,2.92,2.92,0,0,1,.37.24.49.49,0,0,0,.27.07q.77-.12,1.53-.27l1.66-.28c.68-.1,1.36-.16,2-.22l.28,0a1.38,1.38,0,0,1,1.4.78l.14.27c.56,1,1.14,2.05,1.78,3A1.78,1.78,0,0,1,94,49.21c-.23.31-.45.63-.67.94a20.7,20.7,0,0,1-1.64,2.12A2.51,2.51,0,0,0,91,55a.79.79,0,0,0,.16.3c.39.28.78.56,1.18.83s.93.65,1.39,1a23.58,23.58,0,0,1,1.92,1.61A1.3,1.3,0,0,1,96,59.85c-.3,1.23-.65,2.47-1,3.66l-.19.67a1.3,1.3,0,0,1-1,1c-.41.07-.82.16-1.24.25a21.72,21.72,0,0,1-2.94.48,2.71,2.71,0,0,0-2.51,1.49.57.57,0,0,0-.09.33c.06.49.14,1,.23,1.47s.17,1.09.25,1.64.13,1.33.18,2l0,.34a1.36,1.36,0,0,1-.77,1.36l-.39.21c-1,.56-2,1.15-3,1.78ZM75,72.89a1.37,1.37,0,0,1,.38-.15l.42-.08a3.27,3.27,0,0,1,1.55-.11,2.9,2.9,0,0,1,1.18.73,3.54,3.54,0,0,0,.42.35l2.4,1.72.53.38a1,1,0,0,0,1.24,0c1-.65,2.05-1.24,3.06-1.81l.38-.21c.32-.18.37-.35.35-.56l0-.33c0-.64-.1-1.3-.18-1.93s-.16-1.08-.25-1.61-.16-1-.23-1.5a1.55,1.55,0,0,1,.18-.83A3.56,3.56,0,0,1,89.56,65a19.63,19.63,0,0,0,2.83-.46l1.26-.26c.14,0,.28-.08.36-.37l.18-.66c.34-1.2.68-2.43,1-3.65a.52.52,0,0,0-.08-.35,22.18,22.18,0,0,0-1.85-1.54c-.44-.33-.91-.66-1.36-1s-.81-.56-1.2-.85a1.43,1.43,0,0,1-.46-.72,3.36,3.36,0,0,1,.88-3.52,17.34,17.34,0,0,0,1.56-2c.23-.32.45-.64.69-.95a.94.94,0,0,0,0-1.26c-.66-1-1.24-2.05-1.81-3.07l-.14-.27a.55.55,0,0,0-.59-.35l-.27,0c-.66.06-1.33.12-2,.22s-1.1.18-1.64.28l-1.55.26a1.33,1.33,0,0,1-.88-.21l-.34-.22a3.26,3.26,0,0,1-1.13-1,3,3,0,0,1-.29-1.31,4.93,4.93,0,0,0,0-.54q-.31-2-.66-4c0-.2-.12-.35-.47-.43-1.36-.32-2.7-.65-4-1a.7.7,0,0,0-.87.26l-.59.76c-.87,1.14-1.74,2.29-2.63,3.42a1.46,1.46,0,0,1-.82.5l-.38.09a3.42,3.42,0,0,1-1.56.11,3,3,0,0,1-1.17-.73,3.39,3.39,0,0,0-.42-.35L66.56,38l-.32-.24a1,1,0,0,0-1.24,0c-.94.61-1.93,1.17-2.88,1.7l-.6.34c-.26.15-.31.29-.3.46.05.8.1,1.6.21,2.39.06.51.14,1,.23,1.52s.16,1,.23,1.5a1.63,1.63,0,0,1-.21.9,3.49,3.49,0,0,1-3.13,1.91,23.35,23.35,0,0,0-2.86.47l-1.27.26c-.14,0-.28.09-.36.37l-.19.71c-.33,1.18-.67,2.4-1,3.6a.56.56,0,0,0,.07.32,21.5,21.5,0,0,0,1.84,1.55c.45.33.91.66,1.36,1l1.21.85a1.53,1.53,0,0,1,.48.75A3.34,3.34,0,0,1,57,61.84a22.44,22.44,0,0,0-1.81,2.37l-.42.61a2.49,2.49,0,0,0-.26.59l-.06.16,2.37,4.07.19,0a2.22,2.22,0,0,0,.65.07c.94-.13,1.88-.28,2.8-.42l2.2-.33a1.47,1.47,0,0,1,1,.23l.3.19a3.29,3.29,0,0,1,1.14,1,2.94,2.94,0,0,1,.29,1.3,4.06,4.06,0,0,0,0,.51c.08.57.17,1.15.26,1.72l.3,2a.87.87,0,0,0,.82.85c1.09.23,2.18.52,3.23.8l.51.14a.68.68,0,0,0,.84-.24l.76-1,2.51-3.27A1.47,1.47,0,0,1,75,72.89Zm3-9.42h0a8,8,0,0,1-6.07.83,7.65,7.65,0,0,1-5.46-9.4,8,8,0,0,1,14.45-2.14,7.62,7.62,0,0,1,.78,5.84A8,8,0,0,1,78,63.47Zm-7.4-12.68a7.1,7.1,0,0,0-3.31,4.33,6.78,6.78,0,0,0,4.86,8.36,7.1,7.1,0,0,0,5.42-.74h0a7.1,7.1,0,0,0,3.31-4.36,6.76,6.76,0,0,0-.69-5.19,7,7,0,0,0-9.57-2.41Z"/><path class="cls-2" d="M7.36,80.86,4.92,75.62a6.08,6.08,0,0,1,.6-1.13,32.18,32.18,0,0,1,2.87-3.17A3.33,3.33,0,0,0,9.61,67.9a1.22,1.22,0,0,0-.32-.64c-.89-.79-1.83-1.52-2.71-2.32a26,26,0,0,1-1.95-2,1,1,0,0,1-.14-.84c.56-1.59,1.17-3.17,1.77-4.75a1,1,0,0,1,.84-.69,45.72,45.72,0,0,1,4.79-.4,3.47,3.47,0,0,0,3.32-1.6,1.39,1.39,0,0,0,.25-.72c-.05-1.16-.17-2.31-.21-3.46,0-.91,0-1.83,0-2.74a1,1,0,0,1,.67-.91c1.37-.63,2.76-1.23,4.1-1.93a1.54,1.54,0,0,1,1.93.22l3.09,2.68c.51.45.94,1.09,1.53,1.3a4.85,4.85,0,0,0,2,0,1.2,1.2,0,0,0,.68-.34c1.36-1.45,2.7-2.91,4.05-4.38A1.29,1.29,0,0,1,34.85,44c1.45.53,2.91,1,4.37,1.53a1,1,0,0,1,.82,1c.12,1.53.22,3.07.33,4.6a5.65,5.65,0,0,0,.15,2c.25.55.9.93,1.4,1.35a1,1,0,0,0,.63.22c1.22-.08,2.43-.21,3.65-.28.87-.05,1.73,0,2.6,0a1.08,1.08,0,0,1,1.06.75c.58,1.32,1.16,2.65,1.85,3.93a1.54,1.54,0,0,1-.25,2,39.38,39.38,0,0,1-2.88,3.17,3.3,3.3,0,0,0-1.21,3.41,1.16,1.16,0,0,0,.29.61c.89.78,1.83,1.52,2.71,2.32a26.15,26.15,0,0,1,2,2,1,1,0,0,1,.14.88c-.55,1.59-1.16,3.17-1.76,4.74a1,1,0,0,1-.85.7,44.53,44.53,0,0,1-4.74.39,3.54,3.54,0,0,0-3.39,1.65,1.14,1.14,0,0,0-.22.63c0,1.19.17,2.37.22,3.56,0,.86,0,1.73,0,2.59a1.09,1.09,0,0,1-.74,1c-1.36.61-2.74,1.21-4.06,1.9A1.54,1.54,0,0,1,35,90.28l-3.1-2.68c-.5-.44-.94-1.09-1.52-1.29a5.27,5.27,0,0,0-2.05,0,1,1,0,0,0-.59.3c-1.39,1.48-2.76,3-4.13,4.45a1.23,1.23,0,0,1-1.49.3c-1.36-.49-2.71-1-4.1-1.43a1.47,1.47,0,0,1-1.18-1.47l-.24-4.23a5.62,5.62,0,0,0-.14-1.9,4.56,4.56,0,0,0-1.37-1.32,1.19,1.19,0,0,0-.72-.25c-1.91.1-3.81.25-5.72.33A5.58,5.58,0,0,1,7.36,80.86ZM32,75.25a8.31,8.31,0,1,0-11.21-4A8.43,8.43,0,0,0,32,75.25Z"/><path d="M37,91a2,2,0,0,1-2.33-.35l-.56-.48L31.6,88c-.18-.15-.34-.33-.5-.49a2.69,2.69,0,0,0-.87-.71,3.29,3.29,0,0,0-1.33,0l-.52.07a.54.54,0,0,0-.29.15C27,88.11,26,89.25,24.92,90.39l-1,1a1.7,1.7,0,0,1-2,.43l-.57-.2c-1.14-.43-2.33-.86-3.51-1.22a2,2,0,0,1-1.52-1.91c0-.75-.08-1.51-.13-2.26s-.07-1.31-.11-2c0-.21,0-.44,0-.66a2.49,2.49,0,0,0-.1-1.06,2.87,2.87,0,0,0-.89-.88l-.35-.27a.69.69,0,0,0-.39-.14l-2.5.15c-1.06.06-2.15.13-3.22.17a3.19,3.19,0,0,1-1-.17l-.38-.1-.23,0L4.38,75.6l.11-.21c.06-.11.11-.22.17-.34a3.49,3.49,0,0,1,.5-.87l.53-.63A23.36,23.36,0,0,1,8.08,71a2.86,2.86,0,0,0,1.06-3A.79.79,0,0,0,9,67.62c-.41-.37-.83-.72-1.25-1.07s-1-.82-1.46-1.26a23.67,23.67,0,0,1-2-2A1.43,1.43,0,0,1,4,62c.47-1.34,1-2.68,1.48-4l.29-.78a1.43,1.43,0,0,1,1.25-1l1.44-.15a27.34,27.34,0,0,1,3.4-.25,3,3,0,0,0,2.9-1.38A.92.92,0,0,0,15,54c0-.56-.06-1.13-.1-1.69s-.08-1.18-.11-1.77c0-.93,0-1.86,0-2.76a1.46,1.46,0,0,1,1-1.35l.71-.32c1.12-.5,2.27-1,3.37-1.6a2,2,0,0,1,2.46.29l.35.3,2.75,2.38c.17.15.34.32.5.49a2.74,2.74,0,0,0,.87.72,3.11,3.11,0,0,0,1.32,0l.47-.06a.72.72,0,0,0,.38-.19C30,47.22,31.13,46,32.23,44.83L33,44a1.75,1.75,0,0,1,2-.46c1.4.52,2.87,1,4.36,1.53a1.5,1.5,0,0,1,1.14,1.37c.12,1.54.23,3.07.33,4.61,0,.23,0,.47,0,.7a2.38,2.38,0,0,0,.1,1.07,2.89,2.89,0,0,0,.89.89l.39.3a.46.46,0,0,0,.29.11c.59,0,1.17-.08,1.76-.13s1.26-.11,1.89-.15,1.56,0,2.32,0h.31a1.56,1.56,0,0,1,1.5,1l.13.31c.53,1.2,1.07,2.43,1.7,3.59a2,2,0,0,1-.31,2.51c-.29.32-.58.65-.86,1a20.52,20.52,0,0,1-2.06,2.22,2.83,2.83,0,0,0-1.06,3,.8.8,0,0,0,.14.35c.41.36.83.71,1.25,1.06s1,.83,1.46,1.26a25.16,25.16,0,0,1,2,2,1.51,1.51,0,0,1,.25,1.35c-.48,1.36-1,2.72-1.5,4l-.27.72a1.44,1.44,0,0,1-1.25,1l-1.43.16a25.1,25.1,0,0,1-3.37.24,3.05,3.05,0,0,0-3,1.42.77.77,0,0,0-.14.36c0,.56.06,1.12.1,1.69s.09,1.24.12,1.87,0,1.51,0,2.25v.37a1.51,1.51,0,0,1-1,1.45l-.46.21c-1.19.53-2.41,1.08-3.58,1.69Zm-9.17-5a1.39,1.39,0,0,1,.44-.13l.48-.05a3.73,3.73,0,0,1,1.76,0,3.23,3.23,0,0,1,1.25,1,5.93,5.93,0,0,0,.44.43l2.53,2.19.56.49a1.08,1.08,0,0,0,1.4.16c1.19-.62,2.43-1.18,3.63-1.72l.45-.2c.39-.17.45-.35.46-.59v-.38c0-.72,0-1.47,0-2.19s-.07-1.23-.11-1.85S41.07,82,41,81.44a1.62,1.62,0,0,1,.3-.91,4,4,0,0,1,3.8-1.87,25.21,25.21,0,0,0,3.24-.23c.48-.06,1-.12,1.45-.16.16,0,.32-.07.44-.39l.28-.72c.5-1.31,1-2.67,1.48-4a.59.59,0,0,0-.05-.4,25.1,25.1,0,0,0-1.93-1.94c-.47-.42-1-.83-1.44-1.23L47.35,68.5a1.64,1.64,0,0,1-.45-.86,3.8,3.8,0,0,1,1.36-3.88,20.86,20.86,0,0,0,2-2.12l.87-1a1.06,1.06,0,0,0,.18-1.42c-.64-1.19-1.19-2.44-1.72-3.65l-.14-.31c-.17-.39-.36-.46-.62-.46h-.31c-.75,0-1.51,0-2.26,0s-1.25.09-1.87.14l-1.78.14a1.48,1.48,0,0,1-1-.33,3.44,3.44,0,0,0-.36-.28,3.76,3.76,0,0,1-1.17-1.24,3.24,3.24,0,0,1-.19-1.51c0-.2,0-.41,0-.61-.1-1.53-.21-3.06-.33-4.6,0-.23-.11-.4-.49-.53-1.5-.51-3-1-4.38-1.54a.83.83,0,0,0-1,.21l-.73.8c-1.11,1.2-2.21,2.39-3.33,3.58a1.58,1.58,0,0,1-1,.48l-.44.06a3.79,3.79,0,0,1-1.77,0,3.41,3.41,0,0,1-1.24-1l-.44-.44L22,45.8l-.34-.29a1.07,1.07,0,0,0-1.4-.17c-1.12.59-2.29,1.11-3.42,1.62l-.71.32c-.31.14-.38.3-.39.49,0,.9,0,1.82,0,2.71,0,.58.06,1.16.1,1.74s.08,1.15.11,1.72a1.76,1.76,0,0,1-.33,1,3.93,3.93,0,0,1-3.72,1.83A24.13,24.13,0,0,0,8.61,57l-1.46.16c-.16,0-.32.07-.44.38l-.3.78c-.49,1.29-1,2.63-1.47,4a.61.61,0,0,0,0,.36,21.94,21.94,0,0,0,1.92,1.94c.46.43,1,.84,1.43,1.24s.85.71,1.27,1.08a1.75,1.75,0,0,1,.47.9,3.8,3.8,0,0,1-1.37,3.87,23.46,23.46,0,0,0-2.28,2.49l-.54.64a2.83,2.83,0,0,0-.36.65,1.3,1.3,0,0,0-.08.17L7.7,80.45l.21.06a2.29,2.29,0,0,0,.73.14c1.07-.05,2.15-.11,3.2-.18l2.52-.14a1.62,1.62,0,0,1,1,.35l.32.25a3.6,3.6,0,0,1,1.18,1.24,3.29,3.29,0,0,1,.19,1.49,5.61,5.61,0,0,0,0,.58c0,.65.07,1.31.11,2s.09,1.51.13,2.27a1,1,0,0,0,.84,1c1.21.37,2.41.81,3.57,1.24l.55.2a.76.76,0,0,0,1-.18l.95-1c1.06-1.14,2.11-2.28,3.18-3.42A1.52,1.52,0,0,1,27.86,86Zm4.35-10.32h0a9.06,9.06,0,0,1-6.93.31A8.65,8.65,0,0,1,20.1,64.83a9,9,0,0,1,16.51-.92,8.64,8.64,0,0,1,.28,6.66A9,9,0,0,1,32.21,75.68Zm-7-15.06A8,8,0,0,0,21,65.16a7.69,7.69,0,0,0,4.61,9.93,8,8,0,0,0,6.19-.28h0A8,8,0,0,0,36,70.25a7.67,7.67,0,0,0-.25-5.93A7.93,7.93,0,0,0,25.2,60.61Z"/><path class="cls-3" d="M26.69,32l-.78-4.26a4.32,4.32,0,0,1,.65-.7,24.6,24.6,0,0,1,2.67-1.76,2.47,2.47,0,0,0,1.53-2.24.93.93,0,0,0-.12-.52c-.49-.74-1-1.45-1.52-2.19a17.88,17.88,0,0,1-1-1.8.74.74,0,0,1,.06-.63c.7-1.05,1.44-2.07,2.17-3.1a.74.74,0,0,1,.74-.35c1.18.2,2.39.3,3.54.61a2.58,2.58,0,0,0,2.7-.53,1,1,0,0,0,.31-.47c.19-.85.32-1.7.51-2.55.14-.66.33-1.32.52-2A.74.74,0,0,1,39.29,9c1.11-.19,2.23-.37,3.33-.62A1.14,1.14,0,0,1,44,8.93l1.74,2.52c.28.42.47,1,.86,1.22A3.4,3.4,0,0,0,48,13a.92.92,0,0,0,.56-.11c1.25-.79,2.5-1.6,3.75-2.41a1,1,0,0,1,1.17,0c1,.66,1.91,1.3,2.88,1.93a.78.78,0,0,1,.41.84l-.63,3.4a4.38,4.38,0,0,0-.26,1.43,3.66,3.66,0,0,0,.76,1.25.79.79,0,0,0,.42.27c.89.18,1.8.31,2.69.49.64.12,1.26.29,1.89.45a.83.83,0,0,1,.63.74c.17,1.07.34,2.14.59,3.19a1.15,1.15,0,0,1-.55,1.38,29.18,29.18,0,0,1-2.67,1.75,2.45,2.45,0,0,0-1.52,2.24.81.81,0,0,0,.1.49c.49.74,1,1.45,1.52,2.19a18,18,0,0,1,1.05,1.8.77.77,0,0,1-.06.66c-.7,1.05-1.43,2.07-2.17,3.1a.7.7,0,0,1-.74.34,31.19,31.19,0,0,1-3.5-.6,2.62,2.62,0,0,0-2.76.55.89.89,0,0,0-.28.42c-.18.87-.32,1.75-.51,2.61-.14.64-.32,1.26-.49,1.88a.8.8,0,0,1-.73.6c-1.1.19-2.21.37-3.29.62A1.17,1.17,0,0,1,44.92,44c-.58-.84-1.16-1.67-1.73-2.52-.29-.41-.48-1-.86-1.22a4,4,0,0,0-1.49-.35.7.7,0,0,0-.49.11c-1.28.8-2.55,1.62-3.82,2.44a.93.93,0,0,1-1.13-.06c-.89-.62-1.78-1.25-2.7-1.81a1.1,1.1,0,0,1-.58-1.29c.21-1,.41-2.07.62-3.1a4,4,0,0,0,.26-1.4,3.37,3.37,0,0,0-.75-1.22.89.89,0,0,0-.47-.31c-1.4-.29-2.8-.54-4.2-.84A4.28,4.28,0,0,1,26.69,32Zm18.88.56a6.21,6.21,0,1,0-7.36-5A6.3,6.3,0,0,0,45.57,32.59Z"/><path d="M46.25,44.93a1.49,1.49,0,0,1-1.62-.69l-.32-.46-1.42-2.06c-.1-.15-.18-.31-.27-.46a1.91,1.91,0,0,0-.49-.67,2.46,2.46,0,0,0-1-.25l-.39-.05a.37.37,0,0,0-.24.06c-1,.62-2,1.24-2.93,1.87l-.89.57a1.28,1.28,0,0,1-1.53-.07l-.37-.25c-.75-.52-1.52-1.06-2.31-1.54a1.47,1.47,0,0,1-.74-1.67c.12-.55.22-1.11.33-1.66s.19-1,.29-1.44a4.27,4.27,0,0,1,.13-.48,2,2,0,0,0,.12-.79,2,2,0,0,0-.48-.8,2.56,2.56,0,0,0-.2-.26.49.49,0,0,0-.25-.18l-1.84-.36c-.78-.15-1.58-.31-2.36-.48a2.63,2.63,0,0,1-.72-.32l-.26-.14-.16-.08-.84-4.61.12-.13.18-.21a2.65,2.65,0,0,1,.52-.54l.51-.36A18.08,18.08,0,0,1,29.07,25a2.14,2.14,0,0,0,1.33-1.94.66.66,0,0,0,0-.31c-.23-.34-.47-.67-.71-1s-.55-.78-.82-1.18a19,19,0,0,1-1.06-1.84,1.07,1.07,0,0,1,.08-1c.59-.88,1.22-1.76,1.82-2.61l.36-.5a1.07,1.07,0,0,1,1.09-.49l1.07.16a19.6,19.6,0,0,1,2.5.46A2.24,2.24,0,0,0,37,14.3a.87.87,0,0,0,.22-.29l.24-1.24c.08-.43.16-.87.26-1.3.15-.68.34-1.35.52-2a1.11,1.11,0,0,1,.95-.79l.57-.1c.9-.15,1.84-.31,2.74-.52a1.5,1.5,0,0,1,1.73.67l.19.28L46,11.25a4.12,4.12,0,0,1,.27.45,2.1,2.1,0,0,0,.5.68,2.54,2.54,0,0,0,.95.24l.36,0a.56.56,0,0,0,.31-.06l3.07-2,.68-.44a1.29,1.29,0,0,1,1.56.06c.92.63,1.88,1.28,2.87,1.92a1.14,1.14,0,0,1,.57,1.21c-.2,1.13-.42,2.26-.63,3.39a3.8,3.8,0,0,1-.13.51,1.9,1.9,0,0,0-.13.8,2.3,2.3,0,0,0,.48.8l.22.3a.41.41,0,0,0,.2.13c.43.09.86.16,1.29.23l1.4.25c.57.12,1.14.27,1.68.41l.23.06a1.15,1.15,0,0,1,.89,1l0,.25c.16,1,.32,2,.55,2.91a1.5,1.5,0,0,1-.7,1.75l-.8.56A16.31,16.31,0,0,1,59.82,28a2.11,2.11,0,0,0-1.32,1.94.46.46,0,0,0,0,.27c.22.34.46.68.7,1s.55.78.82,1.18a20.51,20.51,0,0,1,1.07,1.84,1.12,1.12,0,0,1-.08,1c-.6.89-1.23,1.78-1.84,2.63l-.33.48a1.09,1.09,0,0,1-1.1.49l-1.06-.16a18,18,0,0,1-2.48-.46,2.29,2.29,0,0,0-2.42.47.5.5,0,0,0-.17.23c-.09.41-.17.83-.24,1.24s-.17.92-.27,1.38-.27,1.1-.42,1.63l-.08.27a1.15,1.15,0,0,1-1,.86l-.36.06c-1,.16-2,.33-2.91.55Zm-5.69-5.34a1.29,1.29,0,0,1,.34,0l.35.05a2.93,2.93,0,0,1,1.27.37,2.36,2.36,0,0,1,.73.92c.07.13.15.27.23.39l1.42,2.06.32.46a.8.8,0,0,0,1,.38c1-.23,2-.39,2.95-.56l.36-.06c.31-.05.39-.17.44-.34L50,43c.15-.52.3-1,.41-1.58s.18-.9.26-1.36.16-.84.25-1.26a1.22,1.22,0,0,1,.38-.6,3,3,0,0,1,3.11-.64,17.21,17.21,0,0,0,2.38.44l1.08.16a.36.36,0,0,0,.39-.19l.34-.48c.61-.85,1.24-1.74,1.83-2.62a.45.45,0,0,0,0-.3,15.93,15.93,0,0,0-1-1.76c-.26-.39-.54-.79-.81-1.17s-.48-.67-.71-1a1.16,1.16,0,0,1-.16-.7,2.85,2.85,0,0,1,1.71-2.55,15.32,15.32,0,0,0,1.83-1.17c.27-.19.54-.38.82-.56a.79.79,0,0,0,.39-1c-.23-1-.4-2-.56-3l0-.25c0-.31-.17-.4-.36-.45l-.23-.06c-.54-.14-1.09-.29-1.64-.39s-.92-.17-1.38-.25L57,20a1.06,1.06,0,0,1-.64-.42,2.47,2.47,0,0,0-.21-.27,2.75,2.75,0,0,1-.61-1.11,2.54,2.54,0,0,1,.14-1.13,3.6,3.6,0,0,0,.12-.44c.21-1.13.42-2.26.62-3.39,0-.17,0-.31-.25-.48-1-.65-2-1.3-2.88-1.93a.61.61,0,0,0-.77-.05l-.69.44c-1,.66-2,1.32-3.07,2a1.26,1.26,0,0,1-.8.17l-.33,0A2.86,2.86,0,0,1,46.37,13a2.48,2.48,0,0,1-.72-.92c-.08-.14-.15-.27-.24-.4L43.87,9.41l-.19-.27a.81.81,0,0,0-1-.39c-.92.22-1.87.38-2.78.53l-.57.1c-.25,0-.34.15-.37.28-.19.65-.38,1.31-.52,2-.1.43-.18.85-.26,1.28s-.15.84-.25,1.26a1.23,1.23,0,0,1-.42.66,3,3,0,0,1-3,.62A19.46,19.46,0,0,0,32.08,15L31,14.84c-.11,0-.24,0-.39.19l-.36.51c-.6.84-1.22,1.72-1.8,2.59a.44.44,0,0,0,0,.27,17.56,17.56,0,0,0,1,1.77c.26.39.54.78.81,1.16s.48.67.71,1a1.23,1.23,0,0,1,.17.74,2.85,2.85,0,0,1-1.71,2.54A19.25,19.25,0,0,0,27.27,27c-.16.12-.33.25-.5.36a2.2,2.2,0,0,0-.39.41l-.09.11L27,31.79l.13.08a1.66,1.66,0,0,0,.51.24l2.34.48,1.85.36a1.23,1.23,0,0,1,.69.45l.19.24a2.81,2.81,0,0,1,.62,1.12,2.37,2.37,0,0,1-.15,1.12c0,.14-.08.28-.11.42-.09.48-.19,1-.28,1.44s-.22,1.11-.34,1.66a.75.75,0,0,0,.42.92c.8.49,1.58,1,2.34,1.56l.37.25a.58.58,0,0,0,.74.06l.88-.57,2.94-1.88A1.38,1.38,0,0,1,40.56,39.59ZM45.64,33h0a6.79,6.79,0,0,1-5.07-1.08,6.47,6.47,0,0,1-2.71-4.18,6.41,6.41,0,0,1,1.06-4.87A6.73,6.73,0,0,1,51,25.26a6.49,6.49,0,0,1-1,4.87A6.72,6.72,0,0,1,45.64,33ZM43.38,20.73a6,6,0,0,0-3.87,2.5,5.72,5.72,0,0,0-.95,4.33A5.8,5.8,0,0,0,41,31.28a6,6,0,0,0,4.53,1h0a6,6,0,0,0,3.89-2.51,5.78,5.78,0,0,0,.93-4.34,5.92,5.92,0,0,0-6.93-4.66Z"/></svg>