<svg id="Слой_1" data-name="Слой 1" xmlns="http://www.w3.org/2000/svg" xmlns:xlink="http://www.w3.org/1999/xlink" viewBox="0 0 100 100"><defs><style>.cls-1{fill:url(#Безымянный_градиент_15);}</style><linearGradient id="Безымянный_градиент_15" x1="31.86" y1="34.14" x2="68.86" y2="27.05" gradientUnits="userSpaceOnUse"><stop offset="0.57" stop-color="#00b6e5"/><stop offset="0.66" stop-color="#00a2d6"/><stop offset="0.77" stop-color="#008fc9"/><stop offset="0.88" stop-color="#0084c1"/><stop offset="1" stop-color="#0080be"/></linearGradient></defs><title>Продукти</title><path d="M5.6,69.71a.6.6,0,0,1-.4-1C6.59,67.43,8,66.08,9.31,64.78c3.72-3.63,7.57-7.38,12.37-9.61C26.74,52.82,32,53.82,37,54.79c1.5.29,3,.58,4.55.78A77.82,77.82,0,0,0,51.68,56c1.29,0,2.58,0,3.86,0,2.83.06,8.09.16,8.91,5.46a5.23,5.23,0,0,1-1,4.4c-2.19,2.55-7,2.56-10.11,2.55h-12a.6.6,0,0,1,0-1.2h12c2.79,0,7.37,0,9.2-2.13a4,4,0,0,0,.75-3.44c-.55-3.57-3.49-4.36-7.74-4.44-1.28,0-2.56,0-3.84,0a80.63,80.63,0,0,1-10.27-.46c-1.54-.2-3.1-.5-4.61-.79-5.09-1-9.9-1.9-14.61.29s-8.39,5.82-12,9.38C8.8,67,7.41,68.3,6,69.56A.62.62,0,0,1,5.6,69.71Z"/><path d="M16,86.38a.6.6,0,0,1-.42-1c8.3-7.95,20.82-7.29,31.86-6.71,2.55.13,5,.26,7.26.28h.07c2.33,0,4.41-1.3,6.42-2.55l.73-.45c2.75-1.69,5.59-3.29,8.27-4.79,3.16-1.77,6.4-3.52,9.53-5.22,2.9-1.57,5.9-3.2,8.84-4.83,4.16-2.32,5.82-4.76,5.06-7.46a4.16,4.16,0,0,0-2.49-3c-4.58-1.79-13.65,3.83-18.52,6.85-.94.59-1.76,1.09-2.36,1.43a.59.59,0,0,1-.82-.22.6.6,0,0,1,.23-.82c.58-.33,1.39-.83,2.32-1.41,5.4-3.35,14.44-9,19.59-7a5.36,5.36,0,0,1,3.2,3.83c1.38,4.92-3.89,7.86-5.63,8.82C86.2,63.76,83.2,65.39,80.29,67c-3.13,1.7-6.36,3.45-9.52,5.22-2.66,1.49-5.49,3.08-8.22,4.76l-.72.45c-2.18,1.35-4.47,2.75-7.14,2.73-2.34,0-4.75-.15-7.31-.29-10.8-.56-23-1.21-31,6.38A.6.6,0,0,1,16,86.38Z"/><polygon class="cls-1" points="48.18 30.18 32.22 35.99 50 46.99 66.76 41.86 67.68 41.4 68.65 25.93 50 14.35 48.18 30.18"/><polygon points="49.54 48.02 49.54 13.62 68.61 20.8 68.61 27.13 67.69 27.13 67.69 21.56 50.46 15.07 50.46 46.52 67.28 41.07 67.69 29.1 68.61 29.1 68.2 42.03 49.54 48.02"/><polygon points="50 14.35 54.37 28.48 71.42 28.48 68.6 20.83 50 14.35"/><path d="M50,13.9l-4.32,14H28.58l2.93-7.94,18-6.29C49.6,13.62,50,13.83,50,13.9Z"/><polygon points="45.95 29.09 31.77 29.09 32.36 43.02 49.54 48.02 49.59 17.74 45.95 29.09"/></svg>