<svg id="Слой_1" data-name="Слой 1" xmlns="http://www.w3.org/2000/svg" xmlns:xlink="http://www.w3.org/1999/xlink" viewBox="0 0 400 400"><defs><style>.cls-1{fill:url(#Безымянный_градиент_5);}</style><linearGradient id="Безымянный_градиент_5" x1="78.01" y1="243.8" x2="278.69" y2="205.32" gradientUnits="userSpaceOnUse"><stop offset="0" stop-color="#1bb6e4"/><stop offset="1" stop-color="#3d7fbb"/></linearGradient></defs><title>Монтажная область 5 копия 15</title><polygon class="cls-1" points="93.61 149.4 135.78 109.19 260.26 109.19 260.26 332.39 95 332.39 93.61 149.4"/><path d="M262.88,335H92.4L91,148.29l43.75-41.72H262.88ZM97.6,329.77h160v-218H136.83L96.24,150.52Z"/><path d="M282.26,312.48a2.62,2.62,0,0,1-2.62-2.62V90.35H160.73a2.62,2.62,0,1,1,0-5.24H284.88V309.86A2.63,2.63,0,0,1,282.26,312.48Z"/><path d="M306.4,292.36a2.62,2.62,0,0,1-2.62-2.62V70.23H184.87a2.62,2.62,0,0,1,0-5.24H309V289.74A2.62,2.62,0,0,1,306.4,292.36Z"/><path d="M145.64,162.78H116.46a2.62,2.62,0,1,1,0-5.24H140.4V135.21a2.62,2.62,0,1,1,5.24,0Z"/><path d="M221.49,223.41H133.36a2.62,2.62,0,0,1,0-5.24h88.13a2.62,2.62,0,0,1,0,5.24Z"/><path d="M221.49,255.34H133.36a2.62,2.62,0,0,1,0-5.24h88.13a2.62,2.62,0,0,1,0,5.24Z"/><path d="M221.49,287.26H133.36a2.62,2.62,0,0,1,0-5.24h88.13a2.62,2.62,0,0,1,0,5.24Z"/></svg>