<svg id="Слой_1" data-name="Слой 1" xmlns="http://www.w3.org/2000/svg" xmlns:xlink="http://www.w3.org/1999/xlink" viewBox="0 0 100 100"><defs><style>.cls-1{fill:url(#Безымянный_градиент_5);}.cls-2{fill:url(#Безымянный_градиент_5-2);}.cls-3{fill:url(#Безымянный_градиент_5-3);}</style><linearGradient id="Безымянный_градиент_5" x1="70.19" y1="64.23" x2="95.91" y2="64.23" gradientUnits="userSpaceOnUse"><stop offset="0" stop-color="#00b6e5"/><stop offset="1" stop-color="#0080be"/></linearGradient><linearGradient id="Безымянный_градиент_5-2" x1="4.21" y1="64.23" x2="29.94" y2="64.23" xlink:href="#Безымянный_градиент_5"/><linearGradient id="Безымянный_градиент_5-3" x1="26.81" y1="50" x2="68.94" y2="50" xlink:href="#Безымянный_градиент_5"/></defs><title>Запитання</title><path class="cls-1" d="M81.54,49.55a15.94,15.94,0,0,0-4.26.56,25.13,25.13,0,0,0-4.46,1.82l-2.63-7.09A19.53,19.53,0,0,1,76,42.43a26.14,26.14,0,0,1,6.53-.85,17.67,17.67,0,0,1,6.62,1.07,11.52,11.52,0,0,1,4.11,2.69,9.32,9.32,0,0,1,2.1,3.58,12.88,12.88,0,0,1,.59,3.7,9.37,9.37,0,0,1-.53,3.24A13.53,13.53,0,0,1,94,58.58,16.32,16.32,0,0,1,92.15,61q-1.07,1.13-2.07,2.13l-1.57,1.6A14.64,14.64,0,0,0,87,66.49a11.26,11.26,0,0,0-1.09,2,5.21,5.21,0,0,0-.44,2.1v.75a5.61,5.61,0,0,0,.06.88H77.28a8.3,8.3,0,0,1-.16-1.41q0-.78,0-1.35a10.43,10.43,0,0,1,.44-3.17,12.21,12.21,0,0,1,1.16-2.63,14.37,14.37,0,0,1,1.66-2.29q.95-1.08,2-2.07c1-1,1.84-1.92,2.63-2.86a4.84,4.84,0,0,0,1.19-3.23A3.35,3.35,0,0,0,85,50.62,4.84,4.84,0,0,0,81.54,49.55Zm5.84,31.56a5.28,5.28,0,0,1-1.79,4.27,6.17,6.17,0,0,1-8.09,0,6,6,0,0,1,0-8.53,6.17,6.17,0,0,1,8.09,0A5.26,5.26,0,0,1,87.38,81.11Z"/><path d="M81.54,87.44a6.7,6.7,0,0,1-4.4-1.63,6.53,6.53,0,0,1,0-9.39,6.74,6.74,0,0,1,8.81,0,6.53,6.53,0,0,1,0,9.39A6.71,6.71,0,0,1,81.54,87.44Zm0-11.54a5.52,5.52,0,0,0-3.68,1.37,5.43,5.43,0,0,0,0,7.68,5.61,5.61,0,0,0,7.37,0,5.43,5.43,0,0,0,0-7.68A5.54,5.54,0,0,0,81.54,75.9Zm4.68-3.14h-9.4l-.09-.45a9.13,9.13,0,0,1-.17-1.5c0-.53,0-1,0-1.37A11.45,11.45,0,0,1,77,66.11a13.45,13.45,0,0,1,1.22-2.76A15.71,15.71,0,0,1,79.93,61c.65-.73,1.31-1.44,2-2.1q1.42-1.43,2.61-2.82a4.32,4.32,0,0,0,1.06-2.87,2.79,2.79,0,0,0-1-2.16,4.41,4.41,0,0,0-3-.92,15.23,15.23,0,0,0-4.11.54,24,24,0,0,0-4.35,1.78l-.56.29-3-8.11.38-.24a20.09,20.09,0,0,1,5.93-2.48A26.8,26.8,0,0,1,82.49,41a18.18,18.18,0,0,1,6.83,1.11A12,12,0,0,1,93.63,45a9.87,9.87,0,0,1,2.22,3.79,13.26,13.26,0,0,1,.62,3.86A10.18,10.18,0,0,1,95.91,56a14.27,14.27,0,0,1-1.41,2.85,17.33,17.33,0,0,1-1.94,2.46c-.73.77-1.43,1.49-2.09,2.15l-1.56,1.59a14.4,14.4,0,0,0-1.42,1.72,9.93,9.93,0,0,0-1,1.88,4.8,4.8,0,0,0-.39,1.88v.75a4.56,4.56,0,0,0,0,.79Zm-8.47-1.12H85c0-.1,0-.21,0-.32v-.75a6,6,0,0,1,.48-2.32,11.22,11.22,0,0,1,1.16-2.08,14.87,14.87,0,0,1,1.53-1.85c.54-.57,1.07-1.11,1.57-1.61s1.34-1.36,2.06-2.12a16.33,16.33,0,0,0,1.82-2.31,13,13,0,0,0,1.3-2.61,9,9,0,0,0,.5-3.05,12.16,12.16,0,0,0-.58-3.54,8.61,8.61,0,0,0-2-3.36,10.81,10.81,0,0,0-3.91-2.56,17.12,17.12,0,0,0-6.4-1A26,26,0,0,0,76.1,43a19.33,19.33,0,0,0-5.23,2.11l2.26,6.08a23.38,23.38,0,0,1,4-1.58A16.2,16.2,0,0,1,81.54,49a5.47,5.47,0,0,1,3.8,1.21,3.94,3.94,0,0,1,1.34,3,5.42,5.42,0,0,1-1.32,3.59c-.8.95-1.7,1.92-2.67,2.89-.65.65-1.29,1.34-1.92,2a14.37,14.37,0,0,0-1.6,2.2,11.9,11.9,0,0,0-1.11,2.52,10.27,10.27,0,0,0-.41,3c0,.37,0,.81,0,1.33A7.67,7.67,0,0,0,77.75,71.64Z"/><path class="cls-2" d="M15.57,49.55a16,16,0,0,0-4.27.56,25.44,25.44,0,0,0-4.46,1.82L4.21,44.84A19.53,19.53,0,0,1,10,42.43a26.14,26.14,0,0,1,6.53-.85,17.67,17.67,0,0,1,6.62,1.07,11.52,11.52,0,0,1,4.11,2.69,9.32,9.32,0,0,1,2.1,3.58,12.57,12.57,0,0,1,.6,3.7,9.37,9.37,0,0,1-.54,3.24,12.55,12.55,0,0,1-1.35,2.72A16.32,16.32,0,0,1,26.17,61Q25.11,62.1,24.1,63.1l-1.57,1.6a15.52,15.52,0,0,0-1.47,1.79,10.7,10.7,0,0,0-1.1,2,5.21,5.21,0,0,0-.44,2.1v.75a5.61,5.61,0,0,0,.06.88H11.3a8.3,8.3,0,0,1-.16-1.41q0-.78,0-1.35a10.75,10.75,0,0,1,.44-3.17,12.21,12.21,0,0,1,1.16-2.63,15,15,0,0,1,1.66-2.29q.95-1.08,2-2.07c1-1,1.84-1.92,2.63-2.86a4.85,4.85,0,0,0,1.2-3.23A3.38,3.38,0,0,0,19,50.62,4.87,4.87,0,0,0,15.57,49.55ZM21.4,81.11a5.25,5.25,0,0,1-1.79,4.27,6.17,6.17,0,0,1-8.09,0,6,6,0,0,1,0-8.53,6.17,6.17,0,0,1,8.09,0A5.23,5.23,0,0,1,21.4,81.11Z"/><path d="M15.57,87.44a6.71,6.71,0,0,1-4.41-1.63,6.53,6.53,0,0,1,0-9.39,6.74,6.74,0,0,1,8.81,0,6.53,6.53,0,0,1,0,9.39A6.7,6.7,0,0,1,15.57,87.44Zm0-11.54a5.54,5.54,0,0,0-3.69,1.37,5.43,5.43,0,0,0,0,7.68,5.61,5.61,0,0,0,7.37,0,5.43,5.43,0,0,0,0-7.68A5.52,5.52,0,0,0,15.57,75.9Zm4.67-3.14h-9.4l-.09-.45a10.37,10.37,0,0,1-.17-1.5c0-.53,0-1,0-1.37A11.12,11.12,0,0,1,11,66.11a12.9,12.9,0,0,1,1.21-2.76A15.71,15.71,0,0,1,14,61c.65-.73,1.31-1.44,2-2.1,1-1,1.83-1.89,2.61-2.82a4.32,4.32,0,0,0,1.06-2.87,2.79,2.79,0,0,0-1-2.16,4.4,4.4,0,0,0-3-.92,15.25,15.25,0,0,0-4.12.54A24,24,0,0,0,7.1,52.43l-.56.29-3-8.11.38-.24a20.09,20.09,0,0,1,5.93-2.48A26.86,26.86,0,0,1,16.51,41a18.18,18.18,0,0,1,6.83,1.11A12,12,0,0,1,27.65,45a9.87,9.87,0,0,1,2.22,3.79,12.93,12.93,0,0,1,.62,3.86A10.18,10.18,0,0,1,29.93,56a13.76,13.76,0,0,1-1.41,2.85,17.33,17.33,0,0,1-1.94,2.46c-.73.77-1.43,1.49-2.09,2.15l-1.56,1.59a15.43,15.43,0,0,0-1.42,1.72,11.18,11.18,0,0,0-1,1.88,4.8,4.8,0,0,0-.39,1.88v.75a5.83,5.83,0,0,0,.05.79Zm-8.47-1.12H19c0-.1,0-.21,0-.32v-.75a6,6,0,0,1,.48-2.32,11.83,11.83,0,0,1,1.16-2.08,14.87,14.87,0,0,1,1.53-1.85c.54-.57,1.07-1.11,1.58-1.61l2.06-2.12a17.92,17.92,0,0,0,1.82-2.31,13.49,13.49,0,0,0,1.29-2.61,9,9,0,0,0,.5-3.05,12.48,12.48,0,0,0-.57-3.54,8.86,8.86,0,0,0-2-3.36,10.94,10.94,0,0,0-3.92-2.56,17.12,17.12,0,0,0-6.4-1,26,26,0,0,0-6.39.83,19.33,19.33,0,0,0-5.23,2.11l2.26,6.08a23.38,23.38,0,0,1,4-1.58A16.22,16.22,0,0,1,15.57,49a5.46,5.46,0,0,1,3.79,1.21,3.94,3.94,0,0,1,1.34,3,5.42,5.42,0,0,1-1.32,3.59c-.8.95-1.7,1.92-2.67,2.89-.64.65-1.29,1.34-1.92,2a14.37,14.37,0,0,0-1.6,2.2,11.9,11.9,0,0,0-1.11,2.52,10.27,10.27,0,0,0-.41,3c0,.37,0,.81,0,1.33C11.71,71.08,11.74,71.37,11.77,71.64Z"/><path class="cls-3" d="M45.41,26a25.94,25.94,0,0,0-7,.92,40.24,40.24,0,0,0-7.29,3L26.81,18.25a32.68,32.68,0,0,1,9.46-3.95A43.39,43.39,0,0,1,47,12.91a28.93,28.93,0,0,1,10.84,1.75,18.73,18.73,0,0,1,6.73,4.42A15.15,15.15,0,0,1,68,24.93a20.8,20.8,0,0,1,1,6.07,15.53,15.53,0,0,1-.88,5.29,21.31,21.31,0,0,1-2.21,4.46,27.54,27.54,0,0,1-3.08,3.91c-1.16,1.23-2.29,2.4-3.39,3.49-.82.82-1.68,1.69-2.57,2.62A23.89,23.89,0,0,0,54.4,53.7a17.69,17.69,0,0,0-1.8,3.23,8.79,8.79,0,0,0-.72,3.45v1.23a8.71,8.71,0,0,0,.1,1.44H38.42a15.42,15.42,0,0,1-.25-2.31c0-.86-.05-1.6-.05-2.21a17.42,17.42,0,0,1,.71-5.19A21,21,0,0,1,40.73,49a24.94,24.94,0,0,1,2.73-3.75q1.55-1.74,3.18-3.39c1.58-1.57,3-3.13,4.32-4.67a8,8,0,0,0,1.95-5.29A5.54,5.54,0,0,0,51,27.71,8,8,0,0,0,45.41,26ZM55,77.63a8.62,8.62,0,0,1-2.92,7,10.13,10.13,0,0,1-13.26,0,8.62,8.62,0,0,1-2.92-7,8.62,8.62,0,0,1,2.92-7,10.13,10.13,0,0,1,13.26,0A8.62,8.62,0,0,1,55,77.63Z"/><path d="M45.41,88a10.91,10.91,0,0,1-7.21-2.68,9.54,9.54,0,0,1-3.26-7.69A9.53,9.53,0,0,1,38.2,70a11,11,0,0,1,14.42,0,9.53,9.53,0,0,1,3.26,7.68,9.54,9.54,0,0,1-3.26,7.69A10.93,10.93,0,0,1,45.41,88Zm0-18.9a9,9,0,0,0-6,2.25,7.68,7.68,0,0,0-2.6,6.28,7.69,7.69,0,0,0,2.6,6.29,9.23,9.23,0,0,0,12.08,0,7.69,7.69,0,0,0,2.6-6.29,7.68,7.68,0,0,0-2.6-6.28A9,9,0,0,0,45.41,69.1ZM53.06,64H37.68l-.15-.73a15.6,15.6,0,0,1-.28-2.46c0-.87,0-1.62,0-2.24A18.52,18.52,0,0,1,38,53.07a21.52,21.52,0,0,1,2-4.51,24.68,24.68,0,0,1,2.82-3.89c1-1.19,2.14-2.35,3.23-3.43,1.54-1.55,3-3.1,4.26-4.62A7,7,0,0,0,52,31.92a4.6,4.6,0,0,0-1.61-3.54,7.2,7.2,0,0,0-5-1.51,24.94,24.94,0,0,0-6.74.89,39.18,39.18,0,0,0-7.12,2.92l-.92.47L25.7,17.88l.62-.4A33.66,33.66,0,0,1,36,13.41,44.76,44.76,0,0,1,47,12a29.93,29.93,0,0,1,11.18,1.81,19.7,19.7,0,0,1,7.06,4.65,16.09,16.09,0,0,1,3.64,6.2,21.63,21.63,0,0,1,1,6.34,16.41,16.41,0,0,1-.93,5.6,22.88,22.88,0,0,1-2.3,4.65,29.55,29.55,0,0,1-3.18,4c-1.2,1.26-2.34,2.44-3.41,3.51-.82.81-1.67,1.68-2.56,2.6a24.63,24.63,0,0,0-2.32,2.82,16.6,16.6,0,0,0-1.71,3.07,7.85,7.85,0,0,0-.64,3.09v1.23a8,8,0,0,0,.09,1.29ZM39.2,62.13H51c0-.16,0-.34,0-.52V60.38a9.55,9.55,0,0,1,.79-3.8,18.34,18.34,0,0,1,1.89-3.4,25.88,25.88,0,0,1,2.5-3c.9-.93,1.76-1.81,2.59-2.64,1-1,2.19-2.22,3.37-3.47a27.7,27.7,0,0,0,3-3.77A21.13,21.13,0,0,0,67.2,36,14.44,14.44,0,0,0,68,31a20,20,0,0,0-.93-5.8,14.34,14.34,0,0,0-3.24-5.5,17.85,17.85,0,0,0-6.41-4.19A28,28,0,0,0,47,13.83a42.09,42.09,0,0,0-10.46,1.36,31.86,31.86,0,0,0-8.56,3.45l3.7,10A39.13,39.13,0,0,1,38.18,26a26.92,26.92,0,0,1,7.23-.95,8.92,8.92,0,0,1,6.22,2,6.47,6.47,0,0,1,2.19,4.89,8.94,8.94,0,0,1-2.16,5.88c-1.32,1.55-2.79,3.15-4.37,4.73-1.06,1.06-2.12,2.19-3.15,3.35a23.54,23.54,0,0,0-2.62,3.61,19.29,19.29,0,0,0-1.81,4.12A16.58,16.58,0,0,0,39,58.53c0,.6,0,1.33,0,2.17C39.1,61.21,39.14,61.69,39.2,62.13Z"/></svg>