<svg id="Слой_1" data-name="Слой 1" xmlns="http://www.w3.org/2000/svg" xmlns:xlink="http://www.w3.org/1999/xlink" viewBox="0 0 400 400"><defs><style>.cls-1{fill:url(#Безымянный_градиент_5);}.cls-2{fill:url(#Безымянный_градиент_5-2);}.cls-3{fill:url(#Безымянный_градиент_5-3);}</style><linearGradient id="Безымянный_градиент_5" x1="187.8" y1="152.04" x2="233.68" y2="143.24" gradientUnits="userSpaceOnUse"><stop offset="0" stop-color="#1bb6e4"/><stop offset="1" stop-color="#3d7fbb"/></linearGradient><linearGradient id="Безымянный_градиент_5-2" x1="257.62" y1="193.73" x2="303.5" y2="184.93" xlink:href="#Безымянный_градиент_5"/><linearGradient id="Безымянный_градиент_5-3" x1="262.14" y1="101.31" x2="308.02" y2="92.51" xlink:href="#Безымянный_градиент_5"/></defs><title>Монтажная область 5 копия 30</title><path d="M125.85,327.45H75.64V225h50.21Zm-46.21-4h42.21V229H79.64Z"/><path d="M100.74,263.16a2,2,0,0,1-2-2V249.1a2,2,0,0,1,4,0v12.06A2,2,0,0,1,100.74,263.16Z"/><path d="M190.52,316.87c-27.07,0-64.32-.21-66.68-.22a2,2,0,0,1,0-4h0c.88,0,87.88.49,94,0,5.7-.46,11.41-2.48,16.93-4.44l3.65-1.28c7.37-2.51,14.77-5.25,22-8.15,10.09-4.06,18.2-10.54,25.46-16.94,9-8,17-15.46,24.38-22.89l.65-.66c3.59-3.6,12-12,8.63-16.8-1.14-1.61-4.11-2-6.49-2.38l-.81-.12a28,28,0,0,0-10.87.27c-6.19,1.54-11.08,6.66-15.81,11.6-1.77,1.86-3.61,3.79-5.48,5.47a52.42,52.42,0,0,1-25.81,12.31l-.76.13c-13.62,2.15-28.41.57-42.76-4.57-8.29-3-16.34-9.11-14-17.42,2.22-8.07,9.4-10.28,16.34-12.42a52,52,0,0,0,7.84-2.88c10.37-5.2,14.65-10.84,13.5-17.72a4.45,4.45,0,0,0-2.2-3.29c-6.77-4.09-25.54,2-32.6,4.32l-2.12.68c-3.25,1-6.58,1.93-9.8,2.81-7.17,2-14.58,4-21.26,7.24-9.4,4.6-16.56,9-23.2,16.91-4.54,5.39-10.91,11.24-19.93,8.58a2,2,0,0,1,1.13-3.84c5.45,1.61,10-.51,15.74-7.32,7.09-8.42,14.64-13.1,24.51-17.92,7-3.43,14.61-5.5,22-7.51,3.19-.87,6.49-1.77,9.66-2.77l2.08-.67c13.64-4.44,28.57-8.38,35.91-3.93a8.38,8.38,0,0,1,4.07,6.05c1.47,8.75-3.64,15.93-15.64,22a55.36,55.36,0,0,1-8.46,3.12c-6.45,2-12,3.7-13.66,9.67-2.06,7.47,10.14,12.08,11.54,12.58,13.72,4.91,27.83,6.43,40.79,4.39l.69-.12a48.34,48.34,0,0,0,23.83-11.35c1.75-1.57,3.46-3.36,5.26-5.25,5.12-5.36,10.42-10.9,17.73-12.72a31.87,31.87,0,0,1,12.44-.35l.78.12c3,.43,7.06,1,9.19,4,5.31,7.52-4.4,17.25-9.06,21.93l-.65.65c-7.42,7.5-15.46,15.05-24.58,23.09-7.53,6.63-16,13.36-26.61,17.64-7.28,2.93-14.74,5.7-22.18,8.23l-3.6,1.26c-5.77,2-11.73,4.15-18,4.65C216,316.81,204.66,316.87,190.52,316.87Z"/><circle class="cls-1" cx="210.74" cy="147.64" r="23.36"/><path d="M210.74,172a24.36,24.36,0,1,1,24.36-24.36A24.38,24.38,0,0,1,210.74,172Zm0-46.72a22.36,22.36,0,1,0,22.36,22.36A22.38,22.38,0,0,0,210.74,125.28Z"/><circle class="cls-2" cx="280.56" cy="189.33" r="23.36"/><path d="M280.56,213.69a24.36,24.36,0,1,1,24.35-24.36A24.39,24.39,0,0,1,280.56,213.69Zm0-46.72a22.36,22.36,0,1,0,22.35,22.36A22.38,22.38,0,0,0,280.56,167Z"/><circle class="cls-3" cx="285.08" cy="96.91" r="23.36"/><path d="M285.08,121.27a24.36,24.36,0,1,1,24.35-24.36A24.39,24.39,0,0,1,285.08,121.27Zm0-46.72a22.36,22.36,0,1,0,22.35,22.36A22.38,22.38,0,0,0,285.08,74.55Z"/><path d="M284.59,104.87a4.27,4.27,0,0,1-4.41-4.1h.75a3.52,3.52,0,0,0,3.66,3.35,3.59,3.59,0,0,0,3.66-3.37c.1-1.72-1.78-2.62-3.78-3.57s-4.29-2.05-4.29-4.23A4.42,4.42,0,0,1,289,93h-.75a3.67,3.67,0,0,0-7.32,0c0,1.7,1.88,2.6,3.87,3.55s4.33,2.07,4.2,4.29A4.34,4.34,0,0,1,284.59,104.87Z"/><rect x="283.24" y="87.5" width="2.7" height="0.75" transform="translate(196.35 372.35) rotate(-89.93)"/><rect x="283.24" y="105.57" width="2.7" height="0.75" transform="translate(178.28 390.4) rotate(-89.93)"/><path d="M210.74,155.6a4.27,4.27,0,0,1-4.41-4.1h.75a3.52,3.52,0,0,0,3.66,3.35,3.59,3.59,0,0,0,3.66-3.37c.1-1.72-1.78-2.62-3.78-3.57s-4.29-2-4.29-4.23a4.42,4.42,0,0,1,8.81,0h-.75a3.67,3.67,0,0,0-7.31,0c0,1.7,1.88,2.6,3.87,3.55s4.33,2.07,4.19,4.3A4.33,4.33,0,0,1,210.74,155.6Z"/><rect x="209.39" y="138.23" width="2.7" height="0.75" transform="translate(71.86 349.16) rotate(-89.93)"/><rect x="209.39" y="156.3" width="2.7" height="0.75" transform="translate(53.79 367.21) rotate(-89.93)"/><path d="M280.56,197.29a4.27,4.27,0,0,1-4.41-4.1h.75a3.52,3.52,0,0,0,3.66,3.35,3.59,3.59,0,0,0,3.65-3.37c.11-1.72-1.78-2.62-3.77-3.57s-4.29-2-4.29-4.23a4.42,4.42,0,0,1,8.81,0h-.75a3.67,3.67,0,0,0-7.31,0c0,1.7,1.88,2.6,3.86,3.55s4.34,2.07,4.2,4.29A4.33,4.33,0,0,1,280.56,197.29Z"/><rect x="279.21" y="179.92" width="2.7" height="0.75" transform="translate(99.9 460.62) rotate(-89.93)"/><rect x="279.21" y="197.99" width="2.7" height="0.75" transform="translate(81.83 478.67) rotate(-89.93)"/></svg>