<svg id="Слой_1" data-name="Слой 1" xmlns="http://www.w3.org/2000/svg" xmlns:xlink="http://www.w3.org/1999/xlink" viewBox="0 0 400 400"><defs><style>.cls-1{fill:url(#Безымянный_градиент_5);}</style><linearGradient id="Безымянный_градиент_5" x1="77.42" y1="223.49" x2="322.18" y2="176.55" gradientUnits="userSpaceOnUse"><stop offset="0" stop-color="#1bb6e4"/><stop offset="1" stop-color="#3d7fbb"/></linearGradient></defs><title>4 </title><path class="cls-1" d="M75.8,215V185.94c1.7-1.3,3.24-3,5.14-3.84,6.53-3,13-6.3,19.82-8.36s11.21-6,12.8-13a6.2,6.2,0,0,0-.11-3.6c-2.37-5.48-5.07-10.81-7.39-16.31a123.08,123.08,0,0,1-4.7-13.19,5,5,0,0,1,1.17-4.09c5.93-6.06,12-11.94,18.13-17.86a4.85,4.85,0,0,1,5.31-1.37c7.59,2.72,15.44,4.87,22.66,8.35,6.55,3.15,12.41,3.66,18.49-.26a6.88,6.88,0,0,0,2.67-2.74c2.25-5.35,4.16-10.85,6.41-16.2,1.79-4.22,3.84-8.34,5.89-12.45,1-2,2.71-2.75,5-2.72,7.6.08,15.21.28,22.79-.07,4.26-.2,6.7,1.55,8.31,5.13q4.2,9.39,8.39,18.77c1.37,3.1,2,6.93,4.21,9.13s6,2.92,9.2,4a5.86,5.86,0,0,0,3.79-.1c9.29-3.69,18.53-7.52,27.77-11.32,3-1.22,5.39-.54,7.66,1.74q8.21,8.25,16.66,16.25c1.87,1.78,2.58,3.71,1.69,6.08q-4.08,10.85-8.28,21.67c-1.2,3.07-3.46,6.11-3.45,9.17s2.11,6.17,3.51,9.16a5,5,0,0,0,2.42,2.33c5.71,2.24,11.52,4.21,17.21,6.47,4,1.61,8,3.49,11.92,5.34,2.35,1.1,3.3,2.95,3.24,5.65-.15,7.27-.35,14.57.06,21.82.25,4.43-1.59,6.82-5.29,8.4-6.6,2.83-13,6.26-19.84,8.32s-11.21,6-12.78,13a5.84,5.84,0,0,0,.07,3.37c2.37,5.48,5.06,10.82,7.38,16.32a123.86,123.86,0,0,1,4.78,13.16,5.28,5.28,0,0,1-1.19,4.3c-5.92,6.08-12,12-18.12,17.87a4.86,4.86,0,0,1-5.33,1.36c-7.5-2.7-15.31-4.78-22.42-8.29-6.72-3.31-12.71-3.65-18.94.3a5.94,5.94,0,0,0-2.35,2.42c-2.27,5.52-4.25,11.16-6.54,16.67-1.68,4-3.64,7.91-5.55,11.82-1.1,2.25-2.95,3.13-5.52,3.1-7.51-.12-15-.3-22.54.05-4.26.2-6.7-1.55-8.31-5.13-2.81-6.25-5.63-12.5-8.41-18.77-1.37-3.09-2-6.94-4.21-9.12s-6.16-3-9.41-4.16a5,5,0,0,0-3.34.12c-9.44,3.76-18.83,7.64-28.23,11.48-2.9,1.19-5.26.42-7.44-1.77-5.13-5.16-10.21-10.38-15.62-15.23-3.1-2.76-3.69-5.6-2.23-9.23,2.63-6.58,5.23-13.18,7.86-19.77,1.2-3,3.39-6,3.39-8.94s-2-6-3.44-8.93a5.82,5.82,0,0,0-2.74-2.63C99,226,90,222.67,81.14,219,79.16,218.16,77.57,216.38,75.8,215Zm124.13,26.75c23.51,0,42.69-18.82,42.65-41.83s-19.1-41.62-42.54-41.69-42.73,18.65-42.76,41.7S176.41,241.78,199.93,241.78Z"/><path d="M189.37,324.16c-4.66,0-7.89-2.15-9.87-6.56L178,314.2c-2.3-5.12-4.61-10.25-6.89-15.38-.48-1.09-.86-2.22-1.23-3.32-.69-2-1.35-4-2.46-5.06-1.35-1.31-3.74-2.07-6-2.8-.85-.26-1.69-.53-2.5-.82a2.73,2.73,0,0,0-1.63.09c-7.25,2.89-14.47,5.85-21.7,8.81L129,298.39c-3.67,1.49-7,.72-10-2.31L116.83,294c-4.32-4.36-8.79-8.87-13.41-13-3.78-3.38-4.71-7.28-2.86-11.92q2.13-5.28,4.22-10.59,1.81-4.59,3.65-9.18c.4-1,.91-2,1.41-3,.93-1.84,1.81-3.57,1.81-5,0-1.75-1.12-3.87-2.2-5.92-.34-.66-.69-1.31-1-2a3.41,3.41,0,0,0-1.49-1.45c-3.9-1.59-7.81-3.13-11.73-4.67-4.93-1.94-10-3.94-15-6a16.49,16.49,0,0,1-4.36-3c-.5-.43-1-.87-1.51-1.26l-1-.72V184.75l1-.72c.5-.38,1-.8,1.47-1.21a17.38,17.38,0,0,1,4.13-2.9l3.78-1.76a122.22,122.22,0,0,1,16.35-6.72c6.37-1.92,9.81-5.38,11.14-11.2a4,4,0,0,0,0-2.11c-1.09-2.52-2.26-5-3.42-7.5-1.34-2.88-2.72-5.85-4-8.84a126.25,126.25,0,0,1-4.8-13.44,7.33,7.33,0,0,1,1.76-6.45c5-5.1,10.18-10.14,15.2-15l3-2.89a7.18,7.18,0,0,1,7.81-1.92c2.28.82,4.58,1.59,6.89,2.36a135.31,135.31,0,0,1,16,6.09c6.41,3.09,11.24,3,16.14-.12a4.62,4.62,0,0,0,1.75-1.64c1.1-2.61,2.11-5.25,3.12-7.89s2.14-5.56,3.3-8.31c1.8-4.28,3.89-8.47,5.92-12.52,1-2,2.94-4.1,7.2-4.13l3.9,0c6.16.08,12.53.17,18.75-.11,5.07-.26,8.53,1.91,10.61,6.55l.93,2.07q3.75,8.35,7.47,16.71c.46,1,.85,2.18,1.23,3.3.69,2.05,1.35,4,2.47,5.09,1.31,1.3,3.69,2,6,2.73.78.24,1.55.48,2.3.73a3.53,3.53,0,0,0,2.11-.05c7.59-3,15.15-6.13,22.7-9.24l5.05-2.07c3.78-1.55,7.24-.79,10.28,2.27,5.27,5.3,10.86,10.75,16.6,16.2,3.38,3.2,3.11,6.48,2.29,8.66-2.72,7.25-5.5,14.48-8.29,21.69-.43,1.11-1,2.17-1.48,3.2-.93,1.86-1.81,3.61-1.81,5.11,0,1.74,1.1,3.86,2.17,5.9.39.75.77,1.5,1.12,2.24a2.65,2.65,0,0,0,1.12,1.11c2.74,1.08,5.51,2.09,8.27,3.11,3,1.09,6,2.19,9,3.37,3.62,1.44,7.18,3.11,10.63,4.72l1.42.67c3.15,1.47,4.7,4.12,4.62,7.88l0,1.71c-.14,6.56-.28,13.33.09,19.92.3,5.17-1.91,8.68-6.74,10.76-2,.85-4,1.77-6,2.68a110.47,110.47,0,0,1-14.11,5.73c-6.39,1.92-9.82,5.38-11.13,11.21a3.81,3.81,0,0,0-.08,1.89c1.1,2.51,2.25,5,3.41,7.49,1.34,2.88,2.72,5.85,4,8.84a123.9,123.9,0,0,1,4.86,13.42,7.52,7.52,0,0,1-1.77,6.66c-5,5.17-10.28,10.26-15.36,15.19L280.86,296a7.27,7.27,0,0,1-7.81,1.89c-2.26-.81-4.54-1.56-6.82-2.32a122.71,122.71,0,0,1-15.85-6.07c-6.43-3.17-11.4-3.12-16.6.17a3.78,3.78,0,0,0-1.41,1.31c-1.07,2.62-2.08,5.26-3.1,7.91-1.12,2.93-2.24,5.87-3.44,8.76-1.46,3.5-3.14,6.93-4.77,10.25l-.83,1.7c-1.47,3-4,4.53-7.73,4.45l-2.49,0c-6.54-.1-13.3-.21-19.9.1Zm-31.15-42.23a6.87,6.87,0,0,1,2.26.36c.74.28,1.52.52,2.31.77,2.84.9,5.79,1.83,8,3.94,1.94,1.89,2.81,4.47,3.65,7,.34,1,.67,2,1.08,2.91q3.42,7.69,6.88,15.36l1.52,3.4c1.28,2.85,2.91,3.86,6,3.71,6.74-.31,13.58-.2,20.2-.1l2.49,0c2.09.06,2.79-.64,3.32-1.75l.84-1.71c1.6-3.25,3.25-6.61,4.65-10,1.18-2.85,2.29-5.74,3.39-8.63,1-2.68,2.05-5.36,3.15-8a8.22,8.22,0,0,1,3.28-3.54c6.61-4.19,13.38-4.32,21.3-.42A117.77,117.77,0,0,0,267.74,291c2.32.77,4.64,1.54,6.94,2.37.75.27,1.62.36,2.83-.82l2.81-2.73c5.06-4.9,10.28-10,15.27-15.1a3.17,3.17,0,0,0,.6-1.95,120.1,120.1,0,0,0-4.68-12.89c-1.23-2.91-2.6-5.85-3.92-8.69-1.17-2.53-2.35-5-3.46-7.61a8.08,8.08,0,0,1-.2-4.86c1.69-7.51,6.41-12.34,14.43-14.76a108.61,108.61,0,0,0,13.49-5.48c2-.94,4-1.87,6.09-2.75,3-1.29,4-2.87,3.84-6.06-.39-6.77-.24-13.65-.1-20.29l0-1.71c0-2.11-.68-2.87-1.86-3.42l-1.42-.67c-3.38-1.59-6.88-3.23-10.36-4.61-2.92-1.16-5.88-2.24-8.83-3.33s-5.6-2.05-8.38-3.14a7.36,7.36,0,0,1-3.71-3.55c-.32-.68-.68-1.37-1-2.06-1.27-2.44-2.71-5.2-2.71-8.12,0-2.64,1.18-5,2.32-7.27a30,30,0,0,0,1.29-2.77q4.19-10.82,8.28-21.65c.41-1.11.38-2.08-1.1-3.48-5.77-5.48-11.39-11-16.7-16.3-1.67-1.68-3.08-2-5-1.21l-5,2.07c-7.57,3.12-15.14,6.23-22.75,9.26a8.41,8.41,0,0,1-5.47.13c-.68-.24-1.4-.46-2.12-.68-2.73-.83-5.83-1.78-8-3.91-1.93-1.9-2.8-4.47-3.64-7-.34-1-.67-2-1.08-2.9q-3.7-8.36-7.46-16.69L216,84.38c-1.28-2.86-2.9-3.86-6-3.72-6.36.29-12.8.21-19,.12l-3.89,0c-1.73,0-2.39.54-2.82,1.4-2,4.05-4.08,8.17-5.82,12.31-1.14,2.69-2.19,5.43-3.24,8.16s-2.06,5.38-3.17,8a9,9,0,0,1-3.58,3.83c-6.32,4.07-12.94,4.2-20.84.4A133.17,133.17,0,0,0,132.16,109c-2.34-.78-4.68-1.56-7-2.39-.74-.27-1.6-.35-2.82.83l-3,2.9c-5,4.85-10.17,9.87-15.11,14.92a2.94,2.94,0,0,0-.58,1.76,121.65,121.65,0,0,0,4.61,12.91c1.22,2.9,2.59,5.83,3.91,8.66,1.18,2.53,2.36,5.07,3.47,7.63a8.62,8.62,0,0,1,.24,5.09c-1.72,7.5-6.45,12.33-14.44,14.73a117.88,117.88,0,0,0-15.7,6.47L82,184.29a14.23,14.23,0,0,0-3,2.18c-.24.21-.48.42-.73.62v26.79l.81.69a12.33,12.33,0,0,0,3.06,2.19c4.94,2.06,10,4.06,14.92,6,3.94,1.54,7.87,3.09,11.79,4.69a8.13,8.13,0,0,1,4,3.8c.3.6.61,1.21.94,1.82,1.29,2.45,2.75,5.22,2.75,8.16,0,2.62-1.19,4.95-2.33,7.21-.44.87-.88,1.74-1.23,2.62q-1.84,4.59-3.65,9.18-2.11,5.29-4.22,10.6c-1.12,2.78-.7,4.49,1.6,6.54,4.72,4.23,9.24,8.79,13.61,13.2l2.11,2.12c1.89,1.9,3.3,1.87,4.83,1.25l6.51-2.67c7.24-3,14.47-5.93,21.73-8.82A7.57,7.57,0,0,1,158.22,281.93Zm41.71-37.74h0a45.19,45.19,0,0,1-32.18-13.3,43.46,43.46,0,0,1,.09-61.85,45,45,0,0,1,32.21-13.19c24.73.08,44.88,19.85,44.93,44.09a43.41,43.41,0,0,1-12.87,30.93A45.14,45.14,0,0,1,199.93,244.19Zm0-83.53a40.33,40.33,0,0,0-28.67,11.79,38.65,38.65,0,0,0-.08,55,40.42,40.42,0,0,0,28.78,11.89h0a40.39,40.39,0,0,0,28.78-11.9A38.68,38.68,0,0,0,240.17,200c0-21.6-18-39.22-40.14-39.29Z"/></svg>