<svg id="Слой_1" data-name="Слой 1" xmlns="http://www.w3.org/2000/svg" xmlns:xlink="http://www.w3.org/1999/xlink" viewBox="0 0 100 100"><defs><style>.cls-1{fill:url(#Безымянный_градиент_25);}.cls-2{fill:url(#Безымянный_градиент_25-2);}.cls-3{fill:url(#Безымянный_градиент_25-3);}.cls-4{fill:url(#Безымянный_градиент_25-4);}.cls-5{fill:url(#Безымянный_градиент_25-5);}.cls-6{fill:url(#Безымянный_градиент_25-6);}.cls-7{fill:url(#Безымянный_градиент_25-7);}</style><linearGradient id="Безымянный_градиент_25" x1="6.46" y1="82.66" x2="28.23" y2="82.66" gradientUnits="userSpaceOnUse"><stop offset="0" stop-color="#04b4e4"/><stop offset="1" stop-color="#0280bc"/></linearGradient><linearGradient id="Безымянный_градиент_25-2" x1="6.46" y1="60.89" x2="28.23" y2="60.89" xlink:href="#Безымянный_градиент_25"/><linearGradient id="Безымянный_градиент_25-3" x1="6.46" y1="40.01" x2="28.23" y2="40.01" xlink:href="#Безымянный_градиент_25"/><linearGradient id="Безымянный_градиент_25-4" x1="6.46" y1="17.35" x2="28.23" y2="17.35" xlink:href="#Безымянный_градиент_25"/><linearGradient id="Безымянный_градиент_25-5" x1="28.23" y1="17.35" x2="50" y2="17.35" xlink:href="#Безымянный_градиент_25"/><linearGradient id="Безымянный_градиент_25-6" x1="50" y1="17.35" x2="71.77" y2="17.35" xlink:href="#Безымянный_градиент_25"/><linearGradient id="Безымянный_градиент_25-7" x1="71.77" y1="17.35" x2="93.54" y2="17.35" xlink:href="#Безымянный_градиент_25"/></defs><title>Специфікації</title><rect class="cls-1" x="6.46" y="71.77" width="21.77" height="21.77"/><rect class="cls-2" x="6.46" y="50" width="21.77" height="21.77"/><rect class="cls-3" x="6.46" y="29.12" width="21.77" height="21.77"/><rect class="cls-4" x="6.46" y="6.46" width="21.77" height="21.77"/><rect class="cls-5" x="28.23" y="6.46" width="21.77" height="21.77"/><rect class="cls-6" x="50" y="6.46" width="21.77" height="21.77"/><rect class="cls-7" x="71.77" y="6.46" width="21.77" height="21.77"/><path d="M95,95H5V5H95ZM7.92,92.08H92.08V7.92H7.92Z"/><rect x="12.14" y="12.14" width="10.41" height="10.41"/><rect x="33.91" y="12.14" width="10.41" height="10.41"/><rect x="55.68" y="12.14" width="10.41" height="10.41"/><rect x="77.45" y="12.14" width="10.41" height="10.41"/><rect x="12.14" y="33.91" width="10.41" height="10.41"/><rect x="12.14" y="55.68" width="10.41" height="10.41"/><rect x="12.14" y="77.45" width="10.41" height="10.41"/><path d="M51.46,29.69H26.77V5H51.46ZM29.69,26.77H48.54V7.92H29.69Z"/><path d="M73.23,29.69H48.54V5H73.23ZM51.46,26.77H70.31V7.92H51.46Z"/><path d="M95,29.69H70.31V5H95ZM73.23,26.77H92.08V7.92H73.23Z"/><path d="M29.69,29.69H5V5H29.69ZM7.92,26.77H26.77V7.92H7.92Z"/><path d="M51.46,51.46H26.77V26.77H51.46ZM29.69,48.54H48.54V29.69H29.69Z"/><path d="M73.23,51.46H48.54V26.77H73.23ZM51.46,48.54H70.31V29.69H51.46Z"/><path d="M95,51.46H70.31V26.77H95ZM73.23,48.54H92.08V29.69H73.23Z"/><path d="M29.69,51.46H5V26.77H29.69ZM7.92,48.54H26.77V29.69H7.92Z"/><path d="M51.46,73.23H26.77V48.54H51.46ZM29.69,70.31H48.54V51.46H29.69Z"/><path d="M73.23,73.23H48.54V48.54H73.23ZM51.46,70.31H70.31V51.46H51.46Z"/><path d="M95,73.23H70.31V48.54H95ZM73.23,70.31H92.08V51.46H73.23Z"/><path d="M29.69,73.23H5V48.54H29.69ZM7.92,70.31H26.77V51.46H7.92Z"/><path d="M51.46,95H26.77V70.31H51.46ZM29.69,92.08H48.54V73.23H29.69Z"/><path d="M73.23,95H48.54V70.31H73.23ZM51.46,92.08H70.31V73.23H51.46Z"/><path d="M95,95H70.31V70.31H95ZM73.23,92.08H92.08V73.23H73.23Z"/><path d="M29.69,95H5V70.31H29.69ZM7.92,92.08H26.77V73.23H7.92Z"/></svg>