<svg id="Слой_1" data-name="Слой 1" xmlns="http://www.w3.org/2000/svg" xmlns:xlink="http://www.w3.org/1999/xlink" viewBox="0 0 400 400"><defs><style>.cls-1{fill:url(#Безымянный_градиент_5);}</style><linearGradient id="Безымянный_градиент_5" x1="110.53" y1="156.76" x2="258.84" y2="128.32" gradientUnits="userSpaceOnUse"><stop offset="0" stop-color="#1bb6e4"/><stop offset="1" stop-color="#3d7fbb"/></linearGradient></defs><title>Монтажная область 5 копия 39</title><path class="cls-1" d="M184.71,67.19a75.48,75.48,0,0,0-38,140.71c4.07.63,9,2.6,15.2,6.76a75.35,75.35,0,0,0,16.47,3.26c.5-26.17,1.5-66.62,3.16-82.31,12.19-20.32,23.87,0,23.87,0V215.3l.66-39.08s23-8.48,28.28,23.3c.86-.75-.81.78,0,0l-1-7.68a28.76,28.76,0,0,1,9.65-1.2A75.46,75.46,0,0,0,184.71,67.19Z"/><path d="M109.21,142.55a75.5,75.5,0,1,1,134.36,47.23,3.28,3.28,0,0,1,2.35.8,77.83,77.83,0,1,0-103.88,17,2.91,2.91,0,0,1,1.11-.39,9.59,9.59,0,0,1,2.62,0A75.52,75.52,0,0,1,109.21,142.55Z"/><path d="M179,217.83A75.3,75.3,0,0,1,163.49,215a6.85,6.85,0,0,1,2.66,3.13,76.9,76.9,0,0,0,12.87,2C179,219.36,179,218.56,179,217.83Z"/><path d="M145,155.28q7.45,0,7.45-5.1a5.13,5.13,0,0,0-.66-2.67A6.48,6.48,0,0,0,150,145.6a12.81,12.81,0,0,0-2.57-1.4c-1-.39-2-.78-3.07-1.17a32,32,0,0,1-3.52-1.45,12.09,12.09,0,0,1-2.89-1.91,8,8,0,0,1-1.94-2.62,8.67,8.67,0,0,1-.71-3.67,8.5,8.5,0,0,1,3-7q3-2.51,8.38-2.5a22.26,22.26,0,0,1,5.61.66A12.76,12.76,0,0,1,156,126l-1.51,3.87a13.3,13.3,0,0,0-3.07-1.25,16.33,16.33,0,0,0-4.72-.61,10.26,10.26,0,0,0-2.55.29,6.64,6.64,0,0,0-2.06.88,4.37,4.37,0,0,0-1.4,1.5,4.25,4.25,0,0,0-.51,2.13,4.53,4.53,0,0,0,.54,2.3,5.23,5.23,0,0,0,1.52,1.64,12.28,12.28,0,0,0,2.28,1.3c.86.39,1.82.78,2.86,1.18,1.47.58,2.82,1.17,4,1.76a13.1,13.1,0,0,1,3.19,2.11,8.3,8.3,0,0,1,2.08,2.91,10.24,10.24,0,0,1,.74,4.09,8,8,0,0,1-3.26,6.86q-3.27,2.4-9.19,2.4a23.55,23.55,0,0,1-3.7-.27,28.6,28.6,0,0,1-3-.63,18.09,18.09,0,0,1-2.28-.79,14.5,14.5,0,0,1-1.49-.71l1.42-3.92a20.52,20.52,0,0,0,3.43,1.42A17.36,17.36,0,0,0,145,155.28Z"/><path d="M167.1,133.18h9.65V137H167.1v11.76a13.93,13.93,0,0,0,.29,3.16,4.82,4.82,0,0,0,.88,2,3.15,3.15,0,0,0,1.47,1,6.74,6.74,0,0,0,2.06.29,9.73,9.73,0,0,0,3.31-.47l1.74-.66.88,3.78a18.23,18.23,0,0,1-2.4.85,13.44,13.44,0,0,1-3.92.52,11.94,11.94,0,0,1-4.29-.66,6.35,6.35,0,0,1-2.72-2,7.92,7.92,0,0,1-1.44-3.26,21.26,21.26,0,0,1-.42-4.48V126.08l4.56-.79Z"/><path d="M214.57,132.64c.39,0,.84,0,1.35.07s1,.12,1.49.2.94.16,1.35.25a7.18,7.18,0,0,1,.91.22l-.79,4a13.23,13.23,0,0,0-1.79-.47,15.61,15.61,0,0,0-3.21-.27,11.86,11.86,0,0,0-2.52.27c-.83.18-1.38.3-1.64.37v21.41h-4.56v-24.4a31,31,0,0,1,4-1.1A25.34,25.34,0,0,1,214.57,132.64Z"/><path d="M228.34,133.18H238V137h-9.65v11.76a14.53,14.53,0,0,0,.29,3.16,4.82,4.82,0,0,0,.88,2,3.25,3.25,0,0,0,1.47,1,6.74,6.74,0,0,0,2.06.29,9.69,9.69,0,0,0,3.31-.47l1.74-.66.88,3.78a18.23,18.23,0,0,1-2.4.85,13.39,13.39,0,0,1-3.92.52,11.94,11.94,0,0,1-4.29-.66,6.41,6.41,0,0,1-2.72-2,7.92,7.92,0,0,1-1.44-3.26,21.26,21.26,0,0,1-.42-4.48V126.08l4.56-.79Z"/><path d="M254.77,335.29H206.93c-6.63,0-12-2.31-16-6.85-10.43-11.82-7.71-34.66-7.59-35.63a1.79,1.79,0,0,1,3.56.45c0,.22-2.65,22.22,6.72,32.82,3.29,3.73,7.78,5.63,13.34,5.63h47.84a21.26,21.26,0,0,0,12.71-4.16c5.91-4.45,9.72-10.76,11.32-18.78l.09-.31c5.64-14.08,11.56-30.68,10.54-49.51-.11-2.06-.18-4.37-.25-6.8-.41-13.9-1-32.93-10.65-41.31-4.13-3.56-9.52-4.9-16.48-4.09a1.79,1.79,0,0,1-.41-3.56c7.89-.91,14.36.74,19.23,4.95,10.88,9.4,11.46,29.34,11.89,43.9.07,2.42.14,4.7.24,6.72,1.06,19.49-5,36.47-10.72,50.88-2.24,11-8.11,17.35-12.65,20.77A24.87,24.87,0,0,1,254.77,335.29Z"/><path d="M271.56,307.48a29.26,29.26,0,0,1-2.94-.13,1.79,1.79,0,0,1,.39-3.56c3.18.34,11.75.29,13.24-4.08a1.79,1.79,0,1,1,3.39,1.16C283.67,306.65,275.89,307.48,271.56,307.48Z"/><path d="M263.29,239.32l-.24,0a1.78,1.78,0,0,1-1.53-2c2.86-20.72.31-34.51-7.56-41-8.29-6.82-19.93-2.94-20-2.9a1.79,1.79,0,1,1-1.17-3.39c.56-.19,13.66-4.56,23.48,3.52,8.9,7.33,11.87,22.21,8.83,44.24A1.79,1.79,0,0,1,263.29,239.32Z"/><path d="M234.22,234.75H234a1.79,1.79,0,0,1-1.56-2c4-34.15-2.8-47.34-9.21-52.39-7.45-5.86-16.46-2.62-16.55-2.59a1.79,1.79,0,1,1-1.24-3.36c.44-.16,11-3.94,20,3.14,10.37,8.17,13.92,26.88,10.55,55.62A1.79,1.79,0,0,1,234.22,234.75Z"/><path d="M178,243.34h0a1.79,1.79,0,0,1-1.77-1.81s.07-6,.23-15.2c.46-26.53,1.5-73.65,3.33-91.05l.05-.39.2-.34c3.94-6.57,8.36-9.89,13.13-9.89h.1c8,.07,13.49,9.52,13.72,9.92l.24.41V228.9a1.79,1.79,0,0,1-3.58,0V136c-1-1.61-5.26-7.71-10.42-7.75-3.4,0-6.72,2.61-9.92,7.83-1.8,17.57-2.82,64.06-3.27,90.33-.16,9.2-.23,15.18-.23,15.18A1.79,1.79,0,0,1,178,243.34Z"/><path d="M197.79,304.78a1.82,1.82,0,0,1-1-.28c-.94-.61-23.37-15.21-38.64-40.66-15-24.91-26.58-37.67-26.7-37.79l-.07-.09c-.16-.19-3.85-4.8-3.27-9.72a8.69,8.69,0,0,1,3.57-6c7.9-6.08,20.38-9.76,47,16a1.79,1.79,0,1,1-2.48,2.57c-27.83-26.91-37.64-19.36-42.35-15.74a5.23,5.23,0,0,0-2.2,3.61c-.37,3.21,2.19,6.65,2.47,7,.94,1,12.26,13.62,27.08,38.32s37.29,39.34,37.52,39.49a1.79,1.79,0,0,1-1,3.29Z"/></svg>