<svg id="Слой_1" data-name="Слой 1" xmlns="http://www.w3.org/2000/svg" xmlns:xlink="http://www.w3.org/1999/xlink" viewBox="0 0 100 100"><defs><style>.cls-1{fill:url(#Безымянный_градиент_5);}.cls-2{fill:url(#Безымянный_градиент_5-2);}</style><linearGradient id="Безымянный_градиент_5" x1="13.47" y1="45.52" x2="84.82" y2="45.52" gradientUnits="userSpaceOnUse"><stop offset="0" stop-color="#1bb6e4"/><stop offset="1" stop-color="#3d7fbb"/></linearGradient><linearGradient id="Безымянный_градиент_5-2" x1="65.88" y1="68.07" x2="93.92" y2="68.07" xlink:href="#Безымянный_градиент_5"/></defs><title>позиції на складі</title><path d="M93.47,82.67H6.53a1.19,1.19,0,0,1,0-2.37H93.47a1.19,1.19,0,0,1,0,2.37Z"/><path d="M76.54,9.66H22.24a1.19,1.19,0,1,1,0-2.37h54.3a1.19,1.19,0,1,1,0,2.37Z"/><path class="cls-1" d="M13.47,18.82V72.28H84.82V18.76Zm62.83,44H22V49.14H76.3Zm0-21.19H22V28H76.3Z"/><path d="M84.82,73.46a1.18,1.18,0,0,1-1.18-1.18V20h-69V72.28a1.19,1.19,0,0,1-2.37,0V17.58H86v54.7A1.18,1.18,0,0,1,84.82,73.46Z"/><path d="M77.73,64H67.29a1.19,1.19,0,0,1,0-2.37h8.07V50.33H23.42V61.59H53.65a1.19,1.19,0,1,1,0,2.37H21.05V48H77.73Z"/><path d="M77.73,42.78H67.29a1.19,1.19,0,0,1,0-2.37h8.07V29.14H23.42V40.41H53.65a1.19,1.19,0,1,1,0,2.37H21.05v-16H77.73Z"/><path class="cls-2" d="M79.9,44.67c-7.74,0-14,8.2-14,15.39s14,31.41,14,31.41,14-24.23,14-31.41S87.65,44.67,79.9,44.67Zm4.23,20c-9,4.4-11.95-3.9-10.61-7.91,0,0,3-3.91,3.84-3.54,0,.2,4-1.59,6.39.33C85.09,54.93,90.19,59.42,84.13,64.71Z"/><path d="M79.9,92.71l-.63-1.12C76,85.74,65.15,66.15,65.15,59.66c0-7.33,6.58-16.19,14.75-16.19s14.75,8.86,14.75,16.19c0,6.49-10.8,26.08-14.11,31.93Zm0-47.78c-7.36,0-13.28,8.06-13.28,14.73,0,4.72,6.74,18.41,13.28,30.08,6.54-11.67,13.29-25.36,13.29-30.08C93.19,53,87.26,44.93,79.9,44.93Z"/><path d="M79.9,66.79a7.56,7.56,0,1,1,7.56-7.56A7.56,7.56,0,0,1,79.9,66.79Zm0-13.66a6.1,6.1,0,1,0,6.1,6.1A6.1,6.1,0,0,0,79.9,53.13Z"/></svg>