<svg id="Слой_1" data-name="Слой 1" xmlns="http://www.w3.org/2000/svg" xmlns:xlink="http://www.w3.org/1999/xlink" viewBox="0 0 400 400"><defs><style>.cls-1{fill:url(#Безымянный_градиент_5);}</style><linearGradient id="Безымянный_градиент_5" x1="87.93" y1="201.66" x2="306.84" y2="201.66" gradientUnits="userSpaceOnUse"><stop offset="0" stop-color="#1bb6e4"/><stop offset="1" stop-color="#3d7fbb"/></linearGradient></defs><title>Монтажная область 5 копия 20</title><path d="M333.36,315.63H66.64a3.64,3.64,0,0,1,0-7.27H333.36a3.64,3.64,0,0,1,0,7.27Z"/><path d="M281.44,91.64H114.83a3.64,3.64,0,1,1,0-7.27H281.44a3.64,3.64,0,0,1,0,7.27Z"/><path class="cls-1" d="M87.93,119.74v164H306.84V119.57ZM280.69,254.61H114.08V212.77H280.69Zm0-65H114.08V147.77H280.69Z"/><path d="M306.84,287.38a3.64,3.64,0,0,1-3.64-3.64V123.2H91.57V283.74a3.64,3.64,0,1,1-7.27,0V115.93H310.47V283.74A3.63,3.63,0,0,1,306.84,287.38Z"/><path d="M285.07,258.24h-32a3.64,3.64,0,1,1,0-7.27H277.8V216.4H118.47V251H211.2a3.64,3.64,0,1,1,0,7.27h-100V209.13H285.07Z"/><path d="M285.07,193.24h-32a3.64,3.64,0,1,1,0-7.27H277.8V151.41H118.47V186H211.2a3.64,3.64,0,1,1,0,7.27h-100v-49.1H285.07Z"/></svg>