<svg id="Слой_1" data-name="Слой 1" xmlns="http://www.w3.org/2000/svg" xmlns:xlink="http://www.w3.org/1999/xlink" viewBox="0 0 100 100"><defs><style>.cls-1{fill:url(#Безымянный_градиент_5);}.cls-2{fill:url(#Безымянный_градиент_5-2);}.cls-3{fill:url(#Безымянный_градиент_5-3);}</style><linearGradient id="Безымянный_градиент_5" x1="34.19" y1="42.24" x2="85.93" y2="32.32" gradientUnits="userSpaceOnUse"><stop offset="0" stop-color="#1bb6e4"/><stop offset="1" stop-color="#3d7fbb"/></linearGradient><linearGradient id="Безымянный_градиент_5-2" x1="17.8" y1="92.06" x2="53.86" y2="85.14" xlink:href="#Безымянный_градиент_5"/><linearGradient id="Безымянный_градиент_5-3" x1="43.34" y1="47.95" x2="75.51" y2="47.95" xlink:href="#Безымянный_градиент_5"/></defs><title>заявки на склад</title><path class="cls-1" d="M44.34,47.13a4.44,4.44,0,0,1,4.24,1c1.66,1.43-.27,5.93.66,4.72a10.18,10.18,0,0,0,.59-3l21.92-.13c.39,0,.2,3.65.2,4s0,2-.4,2l-23.49.11c-.26.32-.39-.72-.69-.44l-8.88,9.32A6.17,6.17,0,0,1,40.3,66H81V6.84H48.27l-11,10.5.28,35.71,4.11-4.28A5.92,5.92,0,0,1,44.34,47.13Zm26.89-1.36H47.33a.7.7,0,0,1-.71-.71c0-.39.49-4.89.88-4.89h24c.39,0,.46,4.5.46,4.89A.71.71,0,0,1,71.23,45.77ZM72,36.4a.71.71,0,0,1-.72.71H47.33a.71.71,0,1,1,0-1.42h23.9A.71.71,0,0,1,72,36.4ZM42.74,19.24h6.5v-6a.71.71,0,1,1,1.42,0v7.47H42.74a.71.71,0,0,1,0-1.42Z"/><path d="M82.46,5.42H47.7L35.83,16.73l.29,37.39c.42-.5.86-1.13,1.4-1.75l-.26-35,11-10.5H81V66H40.35a12.83,12.83,0,0,1,.81,1.42h41.3Z"/><path d="M50.66,20.66H42.74a.71.71,0,0,1,0-1.42h6.5v-6a.71.71,0,1,1,1.42,0Z"/><polygon points="22.15 83.2 20.87 83.2 20.87 54.15 36.14 40.62 36.99 41.57 22.15 54.72 22.15 83.2"/><rect class="cls-2" x="18.17" y="83.21" width="35.31" height="10.79"/><path d="M50.53,83.21H49.25V77.37l.53-.09c.3-.06,7.33-1.45,6.61-9.84l1.27-.11c.7,8.16-5.29,10.54-7.13,11.07Z"/><polygon points="18.81 94.58 17.54 94.58 17.54 82.57 54.13 82.57 54.13 94 52.85 94 52.85 83.84 18.81 83.84 18.81 94.58"/><circle cx="24.85" cy="89.55" r="1.24"/><path d="M79.41,64.7H40.21a.53.53,0,0,1-.54-.53.54.54,0,0,1,.54-.53h39.2a.53.53,0,0,1,.53.53A.53.53,0,0,1,79.41,64.7Z"/><path d="M71.78,31.78H47.29a.54.54,0,1,1,0-1.07H71.78a.54.54,0,0,1,0,1.07Z"/><path class="cls-3" d="M43.34,35.91V47.62l4-.42L49.92,50l-2.23,5.12-4.35,4.14V60H75.51V35.89ZM71.67,55.74H47.18l1.14-1.43,1.09-2.21-.16-2.51H71.67Zm0-9.56H47.18V40H71.67Z"/><path d="M75.51,60.55A.54.54,0,0,1,75,60V36.42H43.87v11a.54.54,0,0,1-1.07,0V35.35H76V60A.53.53,0,0,1,75.51,60.55Z"/><path d="M72.31,56.27H67.6a.54.54,0,0,1,0-1.07h3.64V50.12H50l-.35,2.75L47.82,55.2H61.45a.54.54,0,1,1,0,1.07H46.75l2.69-3.61.28-3.61H72.31Z"/><path d="M72.31,46.72H67.6a.54.54,0,0,1,0-1.07h3.64V40.57H47.82v5.08H61.45a.54.54,0,1,1,0,1.07H46.75V39.5H72.31Z"/><path d="M40.49,76.29l-1.08-.68c1.74-2.78,2.31-5.18,1.69-7.15a5.56,5.56,0,0,0-2.86-3.21l-.85-.36,9.52-10a7.6,7.6,0,0,0,1.75-2.36c.77-1.68.61-3-.49-4a3.8,3.8,0,0,0-3.66-.82,4.47,4.47,0,0,0-1.18.49,5.59,5.59,0,0,0-1.22,1l-14.45,15-.92-.88,14.44-15a6.57,6.57,0,0,1,3-1.82A5.11,5.11,0,0,1,49,47.6c1.53,1.33,1.82,3.27.82,5.47a8.79,8.79,0,0,1-2,2.73l-8.3,8.71a6.71,6.71,0,0,1,2.8,3.57C43.06,70.42,42.44,73.18,40.49,76.29Z"/></svg>