<svg id="Слой_1" data-name="Слой 1" xmlns="http://www.w3.org/2000/svg" xmlns:xlink="http://www.w3.org/1999/xlink" viewBox="0 0 100 100"><defs><style>.cls-1{fill:url(#Безымянный_градиент_5);}.cls-2{fill:url(#Безымянный_градиент_5-2);}</style><linearGradient id="Безымянный_градиент_5" x1="11.94" y1="50.11" x2="86.28" y2="50.11" gradientUnits="userSpaceOnUse"><stop offset="0" stop-color="#1bb6e4"/><stop offset="1" stop-color="#3d7fbb"/></linearGradient><linearGradient id="Безымянный_градиент_5-2" x1="47.72" y1="69.92" x2="95.47" y2="69.92" xlink:href="#Безымянный_градиент_5"/></defs><title>наіменування на складі</title><path d="M95.29,88.81H4.71a1.24,1.24,0,0,1,0-2.47H95.29a1.24,1.24,0,0,1,0,2.47Z"/><path d="M77.66,12.74H21.08a1.23,1.23,0,1,1,0-2.46H77.66a1.23,1.23,0,1,1,0,2.46Z"/><path class="cls-1" d="M11.94,22.29V78H86.28V22.23ZM77.4,68.09H20.82V53.88H77.4ZM77.4,46H20.82V31.81H77.4Z"/><path d="M86.28,79.22A1.23,1.23,0,0,1,85.05,78V23.46H13.18V78a1.24,1.24,0,1,1-2.47,0V21H87.52V78A1.24,1.24,0,0,1,86.28,79.22Z"/><path d="M78.89,69.32H68a1.24,1.24,0,0,1,0-2.47h8.41V55.12H22.31V66.85H53.8a1.24,1.24,0,1,1,0,2.47h-34V52.65H78.89Z"/><path d="M78.89,47.25H68a1.24,1.24,0,0,1,0-2.47h8.41V33H22.31V44.78H53.8a1.24,1.24,0,1,1,0,2.47h-34V30.57H78.89Z"/><rect class="cls-2" x="47.72" y="51.16" width="47.75" height="37.51"/><path d="M96.52,89.72H46.67V50.11H96.52Zm-47.74-2.1H94.41V52.22H48.78Z"/><path d="M82.53,62.12H55.78a.7.7,0,1,1,0-1.39H82.53a.7.7,0,1,1,0,1.39Z"/><path d="M82.53,63.18H55.78a1.75,1.75,0,1,1,0-3.5H82.53a1.75,1.75,0,1,1,0,3.5Z"/><path d="M82.53,70.61H55.78a.7.7,0,1,1,0-1.39H82.53a.7.7,0,1,1,0,1.39Z"/><path d="M82.53,71.67H55.78a1.75,1.75,0,1,1,0-3.5H82.53a1.75,1.75,0,1,1,0,3.5Z"/><path d="M82.53,79.1H55.78a.7.7,0,1,1,0-1.39H82.53a.7.7,0,1,1,0,1.39Z"/><path d="M82.53,80.16H55.78a1.76,1.76,0,1,1,0-3.51H82.53a1.76,1.76,0,1,1,0,3.51Z"/><path d="M88.16,62.12H86.72a2.33,2.33,0,0,1,0-.69,2.37,2.37,0,0,1,0-.7h1.44a3.22,3.22,0,0,1,0,.7A3.17,3.17,0,0,1,88.16,62.12Z"/><path d="M88.16,63.18H86.72c-1.1,0-1.1-1.14-1.1-1.75s0-1.75,1.1-1.75h1.44c1.1,0,1.1,1.14,1.1,1.75S89.26,63.18,88.16,63.18Z"/><path d="M88.16,70.61H86.72a2.33,2.33,0,0,1,0-.69,2.37,2.37,0,0,1,0-.7h1.44a3.22,3.22,0,0,1,0,.7A3.17,3.17,0,0,1,88.16,70.61Z"/><path d="M88.16,71.67H86.72c-1.1,0-1.1-1.14-1.1-1.75s0-1.75,1.1-1.75h1.44c1.1,0,1.1,1.13,1.1,1.75S89.26,71.67,88.16,71.67Z"/><path d="M88.16,79.1H86.72a2.33,2.33,0,0,1,0-.69,2.37,2.37,0,0,1,0-.7h1.44a3.22,3.22,0,0,1,0,.7A3.17,3.17,0,0,1,88.16,79.1Z"/><path d="M88.16,80.16H86.72c-1.1,0-1.1-1.14-1.1-1.75s0-1.76,1.1-1.76h1.44c1.1,0,1.1,1.14,1.1,1.76S89.26,80.16,88.16,80.16Z"/></svg>