<svg id="Слой_1" data-name="Слой 1" xmlns="http://www.w3.org/2000/svg" xmlns:xlink="http://www.w3.org/1999/xlink" viewBox="0 0 400 400"><defs><style>.cls-1{fill:none;}.cls-2{clip-path:url(#clip-path);}.cls-3{fill:#1bb6e4;}.cls-4{fill:#1db3e2;}.cls-5{fill:#1eb1e0;}.cls-6{fill:#20aede;}.cls-7{fill:#21acdc;}.cls-8{fill:#23a9da;}.cls-9{fill:#25a6d8;}.cls-10{fill:#26a4d6;}.cls-11{fill:#28a1d4;}.cls-12{fill:#2a9ed2;}.cls-13{fill:#2b9cd0;}.cls-14{fill:#2d99cf;}.cls-15{fill:#2e97cd;}.cls-16{fill:#3094cb;}.cls-17{fill:#3291c9;}.cls-18{fill:#338fc7;}.cls-19{fill:#358cc5;}.cls-20{fill:#3789c3;}.cls-21{fill:#3887c1;}.cls-22{fill:#3a84bf;}.cls-23{fill:#3b82bd;}.cls-24{fill:#3d7fbb;}</style><clipPath id="clip-path"><path class="cls-1" d="M295.18,276.93a46.59,46.59,0,0,1-91.53,12.28c-.62-2.25,9.48-11.17,9.2-13.55L202,276.93a46.59,46.59,0,0,1,91.28-13.18c.61,2.09-9.28,11-9,13.18S295.18,274.64,295.18,276.93Z"/></clipPath></defs><title>Монтажная область 5 копия 17</title><path d="M190.83,304.28h-108L81.45,124.49l40.72-38.82H243.33V213.78a13.54,13.54,0,0,1,1.6-.16,11.94,11.94,0,0,1,3.66.6V80.41H120.06L76.18,122.26l1.43,187.28H191.33a13.72,13.72,0,0,1-.05-2.31A12.76,12.76,0,0,1,190.83,304.28Z"/><path d="M265.4,216.2a11.72,11.72,0,0,1,5,1.45c.09,0,.16.12.25.17V58.89H146.14a2.63,2.63,0,1,0,0,5.26H265.4Z"/><path d="M131,136.79H101.74a2.63,2.63,0,1,1,0-5.25h24v-22.4a2.63,2.63,0,1,1,5.26,0Z"/><path d="M207.08,197.6H118.69a2.63,2.63,0,1,1,0-5.25h88.39a2.63,2.63,0,1,1,0,5.25Z"/><path d="M207.08,229.63H118.69a2.63,2.63,0,0,1,0-5.26h88.39a2.63,2.63,0,1,1,0,5.26Z"/><path d="M189.24,256.39H118.69a2.63,2.63,0,1,0,0,5.25H188A12.19,12.19,0,0,1,189.24,256.39Z"/><g class="cls-2"><polygon class="cls-3" points="202.01 280.7 210.22 323.52 202.01 323.52 202.01 280.7"/><polygon class="cls-3" points="202.01 258.29 214.52 323.52 210.22 323.52 202.01 280.7 202.01 258.29"/><polygon class="cls-4" points="202.01 235.88 218.82 323.52 214.52 323.52 202.01 258.29 202.01 235.88"/><polygon class="cls-5" points="205.25 230.35 223.11 323.52 218.82 323.52 202.01 235.88 202.01 230.35 205.25 230.35"/><polygon class="cls-6" points="209.54 230.35 227.41 323.52 223.11 323.52 205.25 230.35 209.54 230.35"/><polygon class="cls-7" points="213.84 230.35 231.71 323.52 227.41 323.52 209.54 230.35 213.84 230.35"/><polygon class="cls-8" points="218.14 230.35 236 323.52 231.71 323.52 213.84 230.35 218.14 230.35"/><polygon class="cls-9" points="222.44 230.35 240.3 323.52 236 323.52 218.14 230.35 222.44 230.35"/><polygon class="cls-10" points="226.73 230.35 244.6 323.52 240.3 323.52 222.44 230.35 226.73 230.35"/><polygon class="cls-11" points="231.03 230.35 248.9 323.52 244.6 323.52 226.73 230.35 231.03 230.35"/><polygon class="cls-12" points="235.32 230.35 253.19 323.52 248.9 323.52 231.03 230.35 235.32 230.35"/><polygon class="cls-13" points="239.62 230.35 257.49 323.52 253.19 323.52 235.32 230.35 239.62 230.35"/><polygon class="cls-14" points="243.92 230.35 261.79 323.52 257.49 323.52 239.62 230.35 243.92 230.35"/><polygon class="cls-15" points="248.22 230.35 266.08 323.52 261.79 323.52 243.92 230.35 248.22 230.35"/><polygon class="cls-16" points="252.51 230.35 270.38 323.52 266.08 323.52 248.22 230.35 252.51 230.35"/><polygon class="cls-17" points="256.81 230.35 274.68 323.52 270.38 323.52 252.51 230.35 256.81 230.35"/><polygon class="cls-18" points="261.11 230.35 278.97 323.52 274.68 323.52 256.81 230.35 261.11 230.35"/><polygon class="cls-19" points="265.4 230.35 283.27 323.52 278.97 323.52 261.11 230.35 265.4 230.35"/><polygon class="cls-20" points="269.7 230.35 287.57 323.52 283.27 323.52 265.4 230.35 269.7 230.35"/><polygon class="cls-21" points="274 230.35 291.86 323.52 287.57 323.52 269.7 230.35 274 230.35"/><polygon class="cls-22" points="278.29 230.35 295.18 318.41 295.18 323.52 291.86 323.52 274 230.35 278.29 230.35"/><polygon class="cls-23" points="282.59 230.35 295.18 296.01 295.18 318.41 278.29 230.35 282.59 230.35"/><polygon class="cls-24" points="286.89 230.35 295.18 273.6 295.18 296.01 282.59 230.35 286.89 230.35"/><polygon class="cls-24" points="295.18 273.6 286.89 230.35 295.18 230.35 295.18 273.6"/></g><path class="cls-1" d="M301.49,244.79l-4.15,3.2-6.46-8.38,4.36-3.37a61.73,61.73,0,0,0-108.4,39.42h123.5A61.37,61.37,0,0,0,301.49,244.79Z"/><path class="cls-1" d="M186.84,275.66c0,.34,0,.68,0,1a61.78,61.78,0,1,0,123.56,0c0-.34,0-.67,0-1Z"/><path d="M310.34,275.66c0,.35,0,.68,0,1A61.74,61.74,0,0,1,202,317.21l-2.1,1.61A64.38,64.38,0,0,0,313,276.68c0-.34,0-.67,0-1Z"/><path d="M248.6,214.9a61.63,61.63,0,0,1,46.64,21.34l2.1-1.61a64.37,64.37,0,0,0-113.14,41h2.64A61.85,61.85,0,0,1,248.6,214.9Z"/><path d="M248.6,231.9a44.74,44.74,0,0,1,37.72,20.76l1.87-2a47.37,47.37,0,0,0-87,25h2.65A44.81,44.81,0,0,1,248.6,231.9Z"/><path d="M293.33,275.66c0,.35.05.68.05,1A44.75,44.75,0,0,1,211,301l-1.87,2A47.41,47.41,0,0,0,296,276.68c0-.34,0-.67,0-1Z"/><polygon points="193.32 306.78 173.36 274.34 186.84 274.34 186.84 276.99 178.09 276.99 193.43 301.91 210.36 276.99 201.22 276.99 201.22 274.34 215.35 274.34 193.32 306.78"/><polygon points="323.82 278.26 310.34 278.26 310.34 275.61 319.09 275.61 303.75 250.69 286.82 275.61 295.96 275.61 295.96 278.26 281.83 278.26 303.87 245.82 323.82 278.26"/></svg>