<svg id="Слой_1" data-name="Слой 1" xmlns="http://www.w3.org/2000/svg" xmlns:xlink="http://www.w3.org/1999/xlink" viewBox="0 0 100 100"><defs><style>.cls-1{fill:url(#Безымянный_градиент_5);}</style><linearGradient id="Безымянный_градиент_5" x1="6.25" y1="50" x2="93.75" y2="50" gradientUnits="userSpaceOnUse"><stop offset="0" stop-color="#00b6e5"/><stop offset="1" stop-color="#0080be"/></linearGradient></defs><title>Телеграм</title><path class="cls-1" d="M6.25,46.91V45.23A13.1,13.1,0,0,1,8.7,43.59Q49.07,28,89.43,12.4c1.74-.67,3.12-.64,4.32.86v2c-.22.8-.48,1.6-.65,2.41q-7,33.58-14,67.16c-.72,3.43-2.21,4-5,2q-9.27-6.69-18.51-13.43c-2.22-1.62-3.38-1.63-5.55.12-3.27,2.64-6.52,5.31-9.78,8-2.35,1.91-3.93,1.42-4.81-1.44-2.36-7.6-4.74-15.19-7.06-22.8a2.7,2.7,0,0,0-1.85-1.92c-6-2.19-12-4.41-18-6.72A11.3,11.3,0,0,1,6.25,46.91ZM32.62,55.4a4.16,4.16,0,0,0,.1.58c1.41,5,2.81,10,4.28,15,.12.4.75.66,1.14,1,.31-.41.81-.8.89-1.26.36-2.09.69-4.2.87-6.32a9.21,9.21,0,0,1,3.15-6.27C53,49,62.85,39.77,72.74,30.58a20.51,20.51,0,0,0,1.57-1.52,4.06,4.06,0,0,0,.46-1.13,3.82,3.82,0,0,0-1.21-.05,5,5,0,0,0-1.15.67q-7.3,4.5-14.6,9-11.45,7.06-22.9,14.09A4.32,4.32,0,0,0,32.62,55.4Z"/><path d="M76.77,89.27a6.19,6.19,0,0,1-3.37-1.39q-9.27-6.7-18.51-13.44c-1.79-1.31-2.32-1.3-4,.09-2.19,1.76-4.36,3.54-6.54,5.31l-3.24,2.65c-1.53,1.24-2.88,1.67-4.11,1.29s-2.11-1.46-2.69-3.33l-2.41-7.77q-2.34-7.52-4.65-15a1.4,1.4,0,0,0-1.08-1.1c-6.87-2.51-12.58-4.65-18-6.73a7,7,0,0,1-2-1.35c-.22-.19-.44-.38-.66-.55L5,47.54v-3l.54-.37c.24-.16.48-.35.71-.53a8.1,8.1,0,0,1,2-1.25L45.83,27.91Q67.4,19.59,89,11.24c1.55-.6,3.84-1.13,5.74,1.24l.28.34,0,2.79-.23.77c-.15.52-.3,1-.41,1.57l-14,67.15c-.29,1.4-.87,3.34-2.51,4A3,3,0,0,1,76.77,89.27ZM52.87,71a6.08,6.08,0,0,1,3.49,1.44q9.24,6.74,18.51,13.44c1.45,1.05,2,.93,2.07.89s.59-.31,1-2.15l14-67.15c.13-.6.29-1.18.46-1.76l.17-.58V13.73c-.57-.55-1.23-.69-2.62-.16Q68.31,21.93,46.73,30.24L9.15,44.75a6,6,0,0,0-1.37.9l-.28.22v.44l.3.25a5.07,5.07,0,0,0,1.28.92c5.36,2.07,11.06,4.2,17.92,6.71a3.88,3.88,0,0,1,2.61,2.72q2.3,7.52,4.65,15l2.41,7.78c.44,1.4.89,1.64,1,1.68s.66.09,1.81-.84l3.24-2.65c2.18-1.77,4.35-3.56,6.55-5.32A5.79,5.79,0,0,1,52.87,71ZM38.36,73.8l-1-.84a3.21,3.21,0,0,0-.3-.21,2.57,2.57,0,0,1-1.24-1.39c-1.24-4.19-2.42-8.39-3.6-12.59l-.69-2.45a4.53,4.53,0,0,1-.11-.64l0-.32a5.52,5.52,0,0,1,2.89-4.78L56,37.21,72,27.3a4.27,4.27,0,0,1,1.21-.62,3.17,3.17,0,0,1,1.33,0l2,.13-.7,1.87a3.17,3.17,0,0,1-.58,1.21A12.79,12.79,0,0,1,74,31.13l-7.55,7Q55.19,48.62,43.89,59.06a8,8,0,0,0-2.74,5.46c-.2,2.3-.56,4.54-.89,6.43a3,3,0,0,1-.87,1.5l-.25.29ZM33.88,55.35v0c0,.07,0,.17,0,.26l.69,2.45C35.7,62,36.8,65.88,37.94,69.76c.26-1.61.55-3.52.72-5.46a10.5,10.5,0,0,1,3.54-7.08q11.29-10.41,22.53-20.9l5-4.64L57.3,39.34Q46.43,46,35.56,52.71A3.05,3.05,0,0,0,33.88,55.35Z"/></svg>