<svg id="Слой_1" data-name="Слой 1" xmlns="http://www.w3.org/2000/svg" xmlns:xlink="http://www.w3.org/1999/xlink" viewBox="0 0 400 400"><defs><style>.cls-1{fill:url(#Безымянный_градиент_5);}.cls-2,.cls-4{fill:none;}.cls-3,.cls-4{stroke:#000;stroke-miterlimit:10;}.cls-3{stroke-width:0.5px;}.cls-4{stroke-width:1.5px;}</style><linearGradient id="Безымянный_градиент_5" x1="46.29" y1="226.67" x2="278.83" y2="182.07" gradientUnits="userSpaceOnUse"><stop offset="0" stop-color="#1bb6e4"/><stop offset="1" stop-color="#3d7fbb"/></linearGradient></defs><title>Монтажная область 5 копия 23</title><path class="cls-1" d="M243.5,307.68c-19.32-5.64-39.89-16.14-47.11-35.62-11.4-18.43-17.47-44.93-3.57-61.78,8.09-27.65,34.8-51.22,64.65-48.45V70.68H113.22L64.36,117.27,66,329.32h191.5V316.45A62.8,62.8,0,0,1,243.5,307.68Z"/><path d="M252.63,314v12.34H67.18L65.6,118.57l47-44.86h140v87.9a49.08,49.08,0,0,1,5.26.24c.28,0,.53.1.81.14V67.64H110.2L59.5,116l1.66,216.38H258.7V317C256.58,316,254.53,315,252.63,314Z"/><path d="M122.85,132.78H89a3,3,0,1,1,0-6.07h27.74V100.83a3,3,0,0,1,6.07,0Z"/><path class="cls-2" d="M296.72,169.92l-3.53,5.26,10.65,7.13,3.71-5.54a74.74,74.74,0,0,1-38.81,134.16l-10-149.2A74.34,74.34,0,0,1,296.72,169.92Z"/><path class="cls-2" d="M268.74,310.93c-.41,0-.82.09-1.23.11a74.8,74.8,0,0,1-10.05-149.27c.42,0,.82,0,1.24,0Z"/><path class="cls-3" d="M258.7,161.73c-.42,0-.82,0-1.24,0A74.76,74.76,0,0,0,217.32,296l-1.79,2.66a78,78,0,0,1,41.72-140.06c.41,0,.82,0,1.23,0Z"/><path class="cls-3" d="M337.12,231.38a74.6,74.6,0,0,0-29.57-54.61l1.78-2.67a77.94,77.94,0,0,1-40.38,140l-.21-3.2A74.89,74.89,0,0,0,337.12,231.38Z"/><path class="cls-3" d="M316.58,232.77a54.15,54.15,0,0,0-28.13-43.89l2.28-2.42a57.36,57.36,0,0,1-23.16,107.1l-.21-3.2A54.24,54.24,0,0,0,316.58,232.77Z"/><path class="cls-3" d="M260.08,182.28c-.41,0-.82,0-1.24,0a54.18,54.18,0,0,0-22.66,101.45l-2.29,2.41a57.4,57.4,0,0,1,24.74-107.06c.41,0,.82,0,1.24,0Z"/><polyline class="cls-4" points="268.67 309.89 269.64 324.36 233.56 305.37 266.62 279.5 267.64 294.6"/><polyline class="cls-4" points="257.24 162.91 256.26 148.4 292.35 167.39 259.28 193.26 258.33 177.95"/></svg>