<svg id="Слой_1" data-name="Слой 1" xmlns="http://www.w3.org/2000/svg" xmlns:xlink="http://www.w3.org/1999/xlink" viewBox="0 0 400 400"><defs><style>.cls-1{fill:url(#Безымянный_градиент_5);}</style><linearGradient id="Безымянный_градиент_5" x1="87.81" y1="178.3" x2="268.85" y2="143.58" gradientUnits="userSpaceOnUse"><stop offset="0" stop-color="#1bb6e4"/><stop offset="1" stop-color="#3d7fbb"/></linearGradient></defs><title>Монтажная область 5 копия 25</title><path class="cls-1" d="M102.88,98.36l38-36.28h112.3l-1,110.36-53.46.17a3.17,3.17,0,0,0-3.17,3.22l1.14,87.61H104.14Z"/><path d="M141.14,59.06,102.88,96.85,104.12,266h93.1c0-.32.05-.64.06-1a11.76,11.76,0,0,1,0-3.79H108.67L107.48,98.87,143,63.81H248.63V172.43c.71,0,4.25,0,4.59,0V59.06Z"/><path d="M150.69,109.35H125.17a2.35,2.35,0,0,1,0-4.69H146.1v-20a2.3,2.3,0,1,1,4.59,0Z"/><polygon points="225.61 340.94 154.04 258.69 200.94 258.69 200.94 266.25 170.67 266.25 225.6 329.39 280.5 266.25 249.24 266.25 249.24 258.69 297.12 258.69 225.61 340.94"/><path d="M197.12,173.28a3.79,3.79,0,0,1-3.79-3.78V153.3a3.8,3.8,0,0,1,7.59,0v16.2A3.79,3.79,0,0,1,197.12,173.28Z"/><path d="M250.84,203.61a3.79,3.79,0,0,1-3.8-3.78V178.77a3.8,3.8,0,0,1,7.59,0v21.06A3.79,3.79,0,0,1,250.84,203.61Z"/><path d="M197.12,221.43a3.79,3.79,0,0,1-3.79-3.78V187.82a3.8,3.8,0,0,1,7.59,0v29.83A3.79,3.79,0,0,1,197.12,221.43Z"/><path d="M253.08,264.09a3.79,3.79,0,0,1-3.79-3.78V220.08a3.8,3.8,0,0,1,7.59,0v40.23A3.79,3.79,0,0,1,253.08,264.09Z"/><path d="M197.12,264.09a3.79,3.79,0,0,1-3.79-3.78V237.49a3.8,3.8,0,0,1,7.59,0v22.82A3.79,3.79,0,0,1,197.12,264.09Z"/><path d="M228.13,250.3a3.38,3.38,0,0,1-3.38-3.38v-48a3.38,3.38,0,0,1,6.76,0v48A3.38,3.38,0,0,1,228.13,250.3Z"/><path d="M228.13,184.69a3.38,3.38,0,0,1-3.38-3.38V156.7a3.38,3.38,0,0,1,6.76,0v24.61A3.38,3.38,0,0,1,228.13,184.69Z"/><path d="M228.13,143.62a3.37,3.37,0,0,1-3.38-3.37v-9.12a3.38,3.38,0,0,1,6.76,0v9.12A3.37,3.37,0,0,1,228.13,143.62Z"/></svg>