<svg id="Слой_1" data-name="Слой 1" xmlns="http://www.w3.org/2000/svg" xmlns:xlink="http://www.w3.org/1999/xlink" viewBox="0 0 100 100"><defs><style>.cls-1{fill:url(#Безымянный_градиент_5);}</style><linearGradient id="Безымянный_градиент_5" x1="0.56" y1="59.48" x2="99.44" y2="40.52" gradientUnits="userSpaceOnUse"><stop offset="0" stop-color="#00b6e5"/><stop offset="1" stop-color="#0080be"/></linearGradient></defs><title>Відеоурок</title><rect class="cls-1" x="5.46" y="14.96" width="89.08" height="70.08"/><path d="M96,86.5H4v-73H96ZM6.92,83.58H93.08V16.42H6.92Z"/><path d="M15.9,25.09H4.19V14H15.9ZM6.13,23.15H14V15.93H6.13Z"/><path d="M29.17,25.09H14V14H29.17ZM15.9,23.15H27.22V15.93H15.9Z"/><path d="M42.44,25.09H27.22V14H42.44ZM29.17,23.15H40.49V15.93H29.17Z"/><path d="M55.71,25.09H40.49V14H55.71ZM42.44,23.15H53.76V15.93H42.44Z"/><path d="M69,25.09H53.76V14H69ZM55.71,23.15H67V15.93H55.71Z"/><path d="M82.24,25.09H67V14H82.24ZM69,23.15H80.3V15.93H69Z"/><path d="M95.51,25.09H80.3V14H95.51ZM82.24,23.15H93.57V15.93H82.24Z"/><path d="M15.9,86H4.19V74.91H15.9ZM6.13,84.07H14V76.85H6.13Z"/><path d="M29.17,86H14V74.91H29.17ZM15.9,84.07H27.22V76.85H15.9Z"/><path d="M42.44,86H27.22V74.91H42.44ZM29.17,84.07H40.49V76.85H29.17Z"/><path d="M55.71,86H40.49V74.91H55.71ZM42.44,84.07H53.76V76.85H42.44Z"/><path d="M69,86H53.76V74.91H69ZM55.71,84.07H67V76.85H55.71Z"/><path d="M82.24,86H67V74.91H82.24ZM69,84.07H80.3V76.85H69Z"/><path d="M95.51,86H80.3V74.91H95.51ZM82.24,84.07H93.57V76.85H82.24Z"/><path d="M41.23,61.88a1.76,1.76,0,0,1-.86-.23,1.7,1.7,0,0,1-.86-1.49l0-20.32a1.72,1.72,0,0,1,2.57-1.49L59.66,48.48a1.73,1.73,0,0,1,0,3L42.09,61.64A1.7,1.7,0,0,1,41.23,61.88Zm.2-21.64,0,19.52L58.35,50Z"/></svg>