<svg id="Слой_1" data-name="Слой 1" xmlns="http://www.w3.org/2000/svg" xmlns:xlink="http://www.w3.org/1999/xlink" viewBox="0 0 100 100"><defs><style>.cls-1{fill:url(#Безымянный_градиент_5);}</style><linearGradient id="Безымянный_градиент_5" x1="7.85" y1="58.4" x2="93.81" y2="41.91" gradientUnits="userSpaceOnUse"><stop offset="0" stop-color="#00b6e5"/><stop offset="1" stop-color="#0080be"/></linearGradient></defs><title>Віртуальний</title><circle class="cls-1" cx="50.83" cy="50.15" r="43.76"/><path d="M92.93,51.84H7.07a2.09,2.09,0,1,1,0-4.17H92.93a2.09,2.09,0,1,1,0,4.17Z"/><path d="M34.55,39.58h-.06a2.1,2.1,0,0,1-2-2.15C33,18.62,47.24,5.13,47.84,4.56a2.09,2.09,0,0,1,2.85,3.06c-.14.12-13.6,12.9-14.06,29.93A2.09,2.09,0,0,1,34.55,39.58Z"/><path d="M65.13,39.29a2.08,2.08,0,0,1-2.07-1.89C63,37.22,61.15,18.76,47.94,8a2.09,2.09,0,0,1,2.64-3.24C65.17,16.65,67.14,36.19,67.21,37a2.07,2.07,0,0,1-1.88,2.27Z"/><path d="M49.42,96a2.07,2.07,0,0,1-1.65-.82c-.6-.78-14.65-19.47-15.15-45.39a2.08,2.08,0,0,1,2.05-2.12,2.12,2.12,0,0,1,2.12,2C37.26,74.22,51,92.46,51.08,92.65A2.09,2.09,0,0,1,49.42,96Z"/><path d="M49.42,95.6a2.12,2.12,0,0,1-1.37-.51,2.09,2.09,0,0,1-.2-3C61.31,76.71,63.19,50.28,63.21,50a2.14,2.14,0,0,1,2.22-2,2.09,2.09,0,0,1,1.95,2.22c-.08,1.14-2,28.11-16.38,44.6A2.08,2.08,0,0,1,49.42,95.6Z"/><path d="M50,96A45.85,45.85,0,1,1,95.85,50.15,45.9,45.9,0,0,1,50,96ZM50,8.48A41.67,41.67,0,1,0,91.67,50.15,41.72,41.72,0,0,0,50,8.48Z"/></svg>