<svg id="Слой_1" data-name="Слой 1" xmlns="http://www.w3.org/2000/svg" xmlns:xlink="http://www.w3.org/1999/xlink" viewBox="0 0 400 400"><defs><style>.cls-1{fill:url(#Безымянный_градиент_5);}.cls-2{fill:url(#Безымянный_градиент_5-2);}</style><linearGradient id="Безымянный_градиент_5" x1="105.35" y1="217.11" x2="189.88" y2="200.9" gradientUnits="userSpaceOnUse"><stop offset="0" stop-color="#1bb6e4"/><stop offset="1" stop-color="#3d7fbb"/></linearGradient><linearGradient id="Безымянный_градиент_5-2" x1="209.82" y1="217.11" x2="294.35" y2="200.9" xlink:href="#Безымянный_градиент_5"/></defs><title>Монтажная область 5 копия 6</title><polygon class="cls-1" points="177.7 285.57 116.15 273.42 129.87 196.18 114.15 157.24 142.51 127.65 181.74 158.42 165.08 196.18 177.7 285.57"/><polygon class="cls-2" points="282.17 285.57 220.62 273.42 234.34 196.18 218.62 157.24 246.97 127.65 286.2 158.42 269.55 196.18 282.17 285.57"/><path d="M329.6,284.83c-1.57-10.58-9.79-55.25-17.63-66.41s-28.6-15.09-32.13-15.87a15.62,15.62,0,0,0-6.66-5.49s12.34-14.3,16.26-25.66c1.68-3.92,5.12-13.52,1.68-20.58,0-7.24,5.18-46.43-38.71-47.41-43.89,1-38.71,40.17-38.71,47.41-3.44,7.06,0,16.66,1.68,20.58,3.92,11.36,16.26,25.66,16.26,25.66a15.62,15.62,0,0,0-6.66,5.49c-3.53.78-24.29,4.7-32.13,15.87s-16.06,55.83-17.63,66.41,5.48,11.76,5.48,11.76H324.12S331.17,295.41,329.6,284.83Zm-83.47-56.64c-.68,4.17-4.07,1.45-4.07,1.45l-6.3-9.1v-14c1.46-3.29,5.14-.48,7.66.58s2.51,2.13,2.51,2.13l.2,5.43C248.45,215.5,246.81,224,246.13,228.19Zm-.86-32c-16.42-8.87-19.48-30.38-19.48-30.38-1.74.15-3.63-2.17-3.48-5.37s3.48-3.2,3.48-3.2c-.39-10.62,14.83-9.73,20.06-9.3s10.9,7.41,15.55,9.3,7.12,2.18,15.11-1c8.57-.58,5.81,8.58,4.65,8.87s-1.74,1.89-1.74,1.89c-4.95,22.52-19.91,29.21-19.91,29.21Zm24.63,24.36-6.3,9.1s-3.39,2.72-4.06-1.45-2.33-12.69,0-13.56l.19-5.43s0-1.06,2.52-2.13,6.2-3.87,7.65-.58Z"/><path d="M224.78,284.83c-1.57-10.58-9.79-55.25-17.63-66.41s-28.6-15.09-32.13-15.87a15.62,15.62,0,0,0-6.66-5.49s12.34-14.3,16.26-25.66c1.68-3.92,5.12-13.52,1.68-20.58,0-7.24,5.18-46.43-38.71-47.41-43.89,1-38.71,40.17-38.71,47.41-3.44,7.06,0,16.66,1.68,20.58,3.92,11.36,16.26,25.66,16.26,25.66a15.62,15.62,0,0,0-6.66,5.49c-3.53.78-24.29,4.7-32.13,15.87S72,274.25,70.4,284.83s5.48,11.76,5.48,11.76H219.3S226.35,295.41,224.78,284.83Zm-83.47-56.64c-.68,4.17-4.07,1.45-4.07,1.45l-6.3-9.1v-14c1.46-3.29,5.14-.48,7.66.58s2.51,2.13,2.51,2.13l.2,5.43C143.63,215.5,142,224,141.31,228.19Zm-.86-32C124,187.31,121,165.8,121,165.8c-1.74.15-3.63-2.17-3.48-5.37s3.48-3.2,3.48-3.2c-.39-10.62,14.83-9.73,20.06-9.3s10.9,7.41,15.55,9.3,7.12,2.18,15.11-1c8.57-.58,5.81,8.58,4.65,8.87S174.6,167,174.6,167c-4.95,22.52-19.91,29.21-19.91,29.21Zm24.63,24.36-6.3,9.1s-3.39,2.72-4.06-1.45-2.33-12.69,0-13.56l.19-5.43s0-1.06,2.52-2.13,6.2-3.87,7.65-.58Z"/></svg>