<svg id="Слой_1" data-name="Слой 1" xmlns="http://www.w3.org/2000/svg" xmlns:xlink="http://www.w3.org/1999/xlink" viewBox="0 0 400 400"><defs><style>.cls-1{fill:url(#Безымянный_градиент_5);}</style><linearGradient id="Безымянный_градиент_5" x1="72.39" y1="147.45" x2="327.61" y2="98.51" gradientUnits="userSpaceOnUse"><stop offset="0" stop-color="#1bb6e4"/><stop offset="1" stop-color="#3d7fbb"/></linearGradient></defs><title>Монтажная область 5 копия 24</title><rect class="cls-1" x="73.07" y="94.98" width="253.86" height="56"/><path d="M330.11,333.51H69.89V88.41H330.11ZM76.24,327.16H323.76V94.75H76.24Z"/><path d="M123.69,123.46h0a3.16,3.16,0,0,1-3.12-3.22l.75-50.62a3.28,3.28,0,0,1,3.22-3.13,3.18,3.18,0,0,1,3.13,3.23l-.76,50.62A3.17,3.17,0,0,1,123.69,123.46Z"/><path d="M199.62,123.46h0a3.16,3.16,0,0,1-3.13-3.22l.75-50.62a3.27,3.27,0,0,1,3.23-3.13,3.17,3.17,0,0,1,3.12,3.23l-.75,50.62A3.18,3.18,0,0,1,199.62,123.46Z"/><path d="M277.51,123.46h-.05a3.16,3.16,0,0,1-3.13-3.22l.76-50.62a3.32,3.32,0,0,1,3.22-3.13,3.19,3.19,0,0,1,3.13,3.23l-.76,50.62A3.17,3.17,0,0,1,277.51,123.46Z"/><path d="M326.93,155.2H73.07a3.18,3.18,0,1,1,0-6.35H326.93a3.18,3.18,0,1,1,0,6.35Z"/><rect x="113.02" y="182.72" width="22.1" height="20.4" rx="1.02"/><rect x="113.02" y="229.18" width="22.1" height="20.4" rx="1.02"/><rect x="113.02" y="278.29" width="22.1" height="20.4" rx="1.02"/><rect x="151.93" y="182.72" width="22.1" height="20.4" rx="1.02"/><rect x="151.93" y="229.18" width="22.1" height="20.4" rx="1.02"/><rect x="151.93" y="278.29" width="22.1" height="20.4" rx="1.02"/><rect x="191.59" y="182.72" width="22.1" height="20.4" rx="1.02"/><rect x="191.59" y="229.18" width="22.1" height="20.4" rx="1.02"/><rect x="191.59" y="278.29" width="22.1" height="20.4" rx="1.02"/><rect x="227.86" y="182.72" width="22.1" height="20.4" rx="1.02"/><rect x="227.86" y="229.18" width="22.1" height="20.4" rx="1.02"/><rect x="227.86" y="278.29" width="22.1" height="20.4" rx="1.02"/><rect x="267.53" y="182.72" width="22.1" height="20.4" rx="1.02"/><rect x="267.53" y="229.18" width="22.1" height="20.4" rx="1.02"/><rect x="267.53" y="278.29" width="22.1" height="20.4" rx="1.02"/></svg>