<svg id="Слой_1" data-name="Слой 1" xmlns="http://www.w3.org/2000/svg" xmlns:xlink="http://www.w3.org/1999/xlink" viewBox="0 0 400 400"><defs><style>.cls-1{fill:none;}.cls-2{clip-path:url(#clip-path);}.cls-3{fill:#1bb6e4;}.cls-4{fill:#1db3e2;}.cls-5{fill:#1eb1e0;}.cls-6{fill:#20aede;}.cls-7{fill:#21acdc;}.cls-8{fill:#23a9da;}.cls-9{fill:#25a6d8;}.cls-10{fill:#26a4d6;}.cls-11{fill:#28a1d4;}.cls-12{fill:#2a9ed2;}.cls-13{fill:#2b9cd0;}.cls-14{fill:#2d99cf;}.cls-15{fill:#2e97cd;}.cls-16{fill:#3094cb;}.cls-17{fill:#3291c9;}.cls-18{fill:#338fc7;}.cls-19{fill:#358cc5;}.cls-20{fill:#3789c3;}.cls-21{fill:#3887c1;}.cls-22{fill:#3a84bf;}.cls-23{fill:#3b82bd;}.cls-24{fill:#3d7fbb;}</style><clipPath id="clip-path"><path class="cls-1" d="M297.15,278.52a47.56,47.56,0,0,1-93.43,12.54c-.62-2.3,9.68-11.41,9.4-13.83l-11.07,1.29a47.56,47.56,0,0,1,93.17-13.45c.62,2.13-9.48,11.21-9.15,13.45S297.15,276.19,297.15,278.52Z"/></clipPath></defs><title>Монтажная область 5 копия 38</title><path d="M190.64,306.44H80.4L79,122.93l41.56-39.62H244.23V214.07a12,12,0,0,1,1.63-.17,12.21,12.21,0,0,1,3.74.62V77.94H118.41L73.62,120.65,75.08,311.8H191.15a14.19,14.19,0,0,1-.05-2.35A13.87,13.87,0,0,1,190.64,306.44Z"/><path d="M266.75,216.53a12,12,0,0,1,5.1,1.48c.1.06.17.13.27.18V56H145a2.69,2.69,0,0,0,0,5.37H266.75Z"/><path d="M129.58,135.49H99.71a2.69,2.69,0,0,1,0-5.37h24.51V107.27a2.68,2.68,0,1,1,5.36,0Z"/><path d="M207.23,197.56H117a2.69,2.69,0,0,1,0-5.37h90.22a2.69,2.69,0,0,1,0,5.37Z"/><path d="M207.23,230.24H117a2.69,2.69,0,0,1,0-5.37h90.22a2.69,2.69,0,0,1,0,5.37Z"/><path d="M189,257.55H117a2.69,2.69,0,0,0,0,5.37h70.73A12.6,12.6,0,0,1,189,257.55Z"/><path d="M224.85,146.48a5.09,5.09,0,0,1-5.09-5.09V72.32a5.09,5.09,0,0,1,10.18,0v69.07A5.09,5.09,0,0,1,224.85,146.48Z"/><path d="M259.39,111.94H190.31a5.09,5.09,0,0,1,0-10.17h69.08a5.09,5.09,0,1,1,0,10.17Z"/><g class="cls-2"><polygon class="cls-3" points="202.05 282.36 210.44 326.07 202.05 326.07 202.05 282.36"/><polygon class="cls-3" points="202.05 259.5 214.82 326.07 210.44 326.07 202.05 282.36 202.05 259.5"/><polygon class="cls-4" points="202.05 236.63 219.21 326.07 214.82 326.07 202.05 259.5 202.05 236.63"/><polygon class="cls-5" points="205.36 230.98 223.59 326.07 219.21 326.07 202.05 236.63 202.05 230.98 205.36 230.98"/><polygon class="cls-6" points="209.74 230.98 227.98 326.07 223.59 326.07 205.36 230.98 209.74 230.98"/><polygon class="cls-7" points="214.13 230.98 232.36 326.07 227.98 326.07 209.74 230.98 214.13 230.98"/><polygon class="cls-8" points="218.51 230.98 236.75 326.07 232.36 326.07 214.13 230.98 218.51 230.98"/><polygon class="cls-9" points="222.9 230.98 241.13 326.07 236.75 326.07 218.51 230.98 222.9 230.98"/><polygon class="cls-10" points="227.28 230.98 245.52 326.07 241.13 326.07 222.9 230.98 227.28 230.98"/><polygon class="cls-11" points="231.67 230.98 249.91 326.07 245.52 326.07 227.28 230.98 231.67 230.98"/><polygon class="cls-12" points="236.06 230.98 254.29 326.07 249.91 326.07 231.67 230.98 236.06 230.98"/><polygon class="cls-13" points="240.44 230.98 258.68 326.07 254.29 326.07 236.06 230.98 240.44 230.98"/><polygon class="cls-14" points="244.83 230.98 263.06 326.07 258.68 326.07 240.44 230.98 244.83 230.98"/><polygon class="cls-15" points="249.21 230.98 267.45 326.07 263.06 326.07 244.83 230.98 249.21 230.98"/><polygon class="cls-16" points="253.6 230.98 271.83 326.07 267.45 326.07 249.21 230.98 253.6 230.98"/><polygon class="cls-17" points="257.98 230.98 276.22 326.07 271.83 326.07 253.6 230.98 257.98 230.98"/><polygon class="cls-18" points="262.37 230.98 280.6 326.07 276.22 326.07 257.98 230.98 262.37 230.98"/><polygon class="cls-19" points="266.75 230.98 284.99 326.07 280.6 326.07 262.37 230.98 266.75 230.98"/><polygon class="cls-20" points="271.14 230.98 289.38 326.07 284.99 326.07 266.75 230.98 271.14 230.98"/><polygon class="cls-21" points="275.52 230.98 293.76 326.07 289.38 326.07 271.14 230.98 275.52 230.98"/><polygon class="cls-22" points="279.91 230.98 297.15 320.86 297.15 326.07 293.76 326.07 275.52 230.98 279.91 230.98"/><polygon class="cls-23" points="284.3 230.98 297.15 297.99 297.15 320.86 279.91 230.98 284.3 230.98"/><polygon class="cls-24" points="288.68 230.98 297.15 275.12 297.15 297.99 284.3 230.98 288.68 230.98"/><polygon class="cls-24" points="297.15 275.12 288.68 230.98 297.15 230.98 297.15 275.12"/></g><path class="cls-1" d="M303.58,245.71,299.35,249l-6.59-8.55,4.45-3.44a63,63,0,0,0-110.64,40.24H312.62A62.67,62.67,0,0,0,303.58,245.71Z"/><path class="cls-1" d="M186.57,277.23c0,.34,0,.69,0,1a63.06,63.06,0,0,0,126.12,0c0-.35,0-.69,0-1Z"/><path d="M312.62,277.23c0,.35,0,.69,0,1a63,63,0,0,1-110.6,41.36l-2.14,1.65a65.72,65.72,0,0,0,115.44-43c0-.35,0-.69,0-1Z"/><path d="M249.6,215.21A62.91,62.91,0,0,1,297.21,237l2.14-1.65a65.7,65.7,0,0,0-115.48,41.89h2.7A63.12,63.12,0,0,1,249.6,215.21Z"/><path d="M249.6,232.56a45.68,45.68,0,0,1,38.51,21.18l1.9-2.06a48.35,48.35,0,0,0-88.76,25.55H204A45.73,45.73,0,0,1,249.6,232.56Z"/><path d="M295.26,277.23c0,.35.05.69.05,1a45.67,45.67,0,0,1-84,24.81l-1.91,2.06A48.39,48.39,0,0,0,298,278.27c0-.35-.05-.69-.06-1Z"/><polygon points="193.18 308.99 172.81 275.88 186.57 275.88 186.57 278.58 177.64 278.58 193.29 304.02 210.57 278.58 201.25 278.58 201.25 275.88 215.67 275.88 193.18 308.99"/><polygon points="326.38 279.87 312.62 279.87 312.62 277.17 321.55 277.17 305.9 251.73 288.62 277.17 297.94 277.17 297.94 279.87 283.52 279.87 306.01 246.76 326.38 279.87"/></svg>