<svg id="Слой_1" data-name="Слой 1" xmlns="http://www.w3.org/2000/svg" xmlns:xlink="http://www.w3.org/1999/xlink" viewBox="0 0 400 400"><defs><style>.cls-1{fill:url(#Безымянный_градиент_5);}.cls-2{fill:none;stroke:#000;stroke-linecap:round;stroke-miterlimit:10;stroke-width:3px;}</style><linearGradient id="Безымянный_градиент_5" x1="58.23" y1="244.15" x2="334.62" y2="191.15" gradientUnits="userSpaceOnUse"><stop offset="0" stop-color="#1bb6e4"/><stop offset="1" stop-color="#3d7fbb"/></linearGradient></defs><title>Монтажная область 5 копия 42</title><path class="cls-1" d="M119.49,271.64a74.94,74.94,0,0,0,48.45,17.76H262.3a75.56,75.56,0,0,0,75.34-75.34h0a75.56,75.56,0,0,0-75.34-75.33H167.94A75.56,75.56,0,0,0,92.6,214.06h0a74.84,74.84,0,0,0,3.69,23.24L63.8,273.21Z"/><path d="M262.3,291.48H167.94a77.35,77.35,0,0,1-49.18-17.75L59,275.42l35-38.63a77.39,77.39,0,0,1,74-100.14H262.3a77.42,77.42,0,0,1,0,154.83ZM120.22,269.54l.61.51a73.17,73.17,0,0,0,47.11,17.28H262.3a73.27,73.27,0,0,0,0-146.53H167.94a73.23,73.23,0,0,0-69.68,95.85l.38,1.15L68.6,271Z"/><path d="M300.23,190.06a5.24,5.24,0,0,1-5.24-5.24V113.76a5.24,5.24,0,1,1,10.47,0v71.06A5.24,5.24,0,0,1,300.23,190.06Z"/><path d="M335.76,154.52H264.69a5.24,5.24,0,0,1,0-10.47h71.07a5.24,5.24,0,1,1,0,10.47Z"/><line class="cls-2" x1="166.75" y1="198.75" x2="265.8" y2="198.75"/><line class="cls-2" x1="166.75" y1="221.39" x2="224.02" y2="221.39"/><line class="cls-2" x1="244.55" y1="221.39" x2="265.8" y2="221.39"/><line class="cls-2" x1="265.8" y1="240.34" x2="208.53" y2="240.34"/><line class="cls-2" x1="187.99" y1="240.34" x2="166.75" y2="240.34"/></svg>