<svg id="Слой_1" data-name="Слой 1" xmlns="http://www.w3.org/2000/svg" xmlns:xlink="http://www.w3.org/1999/xlink" viewBox="0 0 400 400"><defs><style>.cls-1{fill:url(#Безымянный_градиент_5);}</style><linearGradient id="Безымянный_градиент_5" x1="67.05" y1="225.99" x2="295.97" y2="182.1" gradientUnits="userSpaceOnUse"><stop offset="0" stop-color="#1bb6e4"/><stop offset="1" stop-color="#3d7fbb"/></linearGradient></defs><title>Монтажная область 5 копия 18</title><path class="cls-1" d="M133,72.69l-48.1,45.87,1.59,208.75h95.59V325a3.44,3.44,0,0,1-.45-1.89c.2-2.75.22-5.5.23-8.26,0-.06,0-.1,0-.16a3.74,3.74,0,0,1-.72-2.14c-.1-35,.3-71.09-.23-106.76a4.47,4.47,0,0,1,4.28-4.28c4.79-.4,16.12,2,20.34-.56a4.32,4.32,0,0,1,6.45,3.7,84.08,84.08,0,0,1-.69,13.08,4.28,4.28,0,0,1-.68,2c4,33.58,1,68.92,1.6,102.74a3.93,3.93,0,0,1-.92,2.73,9.62,9.62,0,0,1-.15,3.08l11,.83c0-.35-.3-2.45-.25-2.81-.05-.74-.12-1.48-.14-2.23a4.45,4.45,0,0,1,.2-1.41,5.34,5.34,0,0,1-.2-1.11c-.29-10.12.41-20.22.39-30.34-1.07-.67-.85-2-.85-3.64v-28.7a4.39,4.39,0,0,1,.37-1.81,3.9,3.9,0,0,1,3.92-2.94,3,3,0,0,1,.32.06,2.2,2.2,0,0,1,.37-.06c3.8.26,7.56.72,11.31.83a4,4,0,0,1,.49,0,33.55,33.55,0,0,0,9.1-.91c2.12-.55,4.81.69,5.27,3,2.48,12.27.35,26.69.15,39.25,0,1.32.38,2.53-.3,3.22-.06,7.34-.31,14.23-.54,21.82a7.88,7.88,0,0,1-.22,2.69,4.42,4.42,0,0,1,.22,2.11c0,.41.43,1.74.39,2.15l10.86.83s.19-1.79.2-1.81a8.38,8.38,0,0,1-1-3.92c-.23-24.73.94-49.41.92-74.15a8.69,8.69,0,0,1,.32-2.3,9.66,9.66,0,0,1,.07-8.41c0-.15,0-.3,0-.45a4.82,4.82,0,0,1-.09-3.18c-2.4-2.29-1.55-7.4,2.75-7.4a4.21,4.21,0,0,1,1.21.18,3.89,3.89,0,0,1,.85-.18,4.15,4.15,0,0,1,1.68.36,4.39,4.39,0,0,1,1.77-.36,3.87,3.87,0,0,1,2.4.82,4,4,0,0,1,.82-.49V72.69Z"/><path d="M131.8,69.7,81.89,117.29l1.62,213h98.58a.24.24,0,0,0,0-.08,11.1,11.1,0,0,1,0-1.73V325a4.12,4.12,0,0,1-.24-.67H89.44L87.89,119.84l46.3-44.16H272V227.49a4,4,0,0,1,2.17.77,4,4,0,0,1,2.42-.82,4.29,4.29,0,0,1,1.39.28V69.7Z"/><path d="M144.25,133.83H111a3,3,0,1,1,0-6h27.31V102.38a3,3,0,0,1,6,0Z"/><path d="M315.46,328.16H166.39a1.2,1.2,0,0,1-1.17-1.23c0-.68,1.05,0,1.7,0H315.24a.87.87,0,0,1,.83.58C316.07,328.19,316.11,328.16,315.46,328.16Z"/><path d="M315.6,330.2h-.06l-.08-2v2H166.4a3.25,3.25,0,0,1-3.22-3.27v-1l.92-.86a2.83,2.83,0,0,1,2.64-.23l148.5.08a2.91,2.91,0,0,1,2.78,2l.09.62a2.6,2.6,0,0,1-.66,2A2.49,2.49,0,0,1,315.6,330.2Z"/><path d="M212.76,328.16l-32.83-.26V200h32.83Zm-30.48-1.23h28.13V202.46H182.28Z"/><path d="M212.76,329.18h0l-32.82-.26a1,1,0,0,1-1-1V200a1,1,0,0,1,1-1h32.83a1,1,0,0,1,1,1V328.16a1,1,0,0,1-.3.72A1,1,0,0,1,212.76,329.18Zm-1.35-2.05h.33V201H181V326.89h.31V202.46a1,1,0,0,1,1-1h28.13a1,1,0,0,1,1,1V326.93A1.36,1.36,0,0,1,211.41,327.13Zm-28.11-1.22h26.09V203.48H183.3Z"/><path d="M253.65,326.63l-32.83.3v-74h32.83Zm-30.48.3H251.3V255.39H223.17Z"/><path d="M220.82,328a1,1,0,0,1-.72-.3,1,1,0,0,1-.3-.72v-74a1,1,0,0,1,1-1h32.83a1,1,0,0,1,1,1v73.7a1,1,0,0,1-1,1H252a1,1,0,0,1-.7.29H223.17l-.2,0-2.15,0Zm32.83-1.32h0ZM221.84,254V325.9h.31V255.39a1,1,0,0,1,1-1H251.3a1,1,0,0,1,1,1v70.23h.31V254Zm2.35,2.46v69.47l26.09-.24V256.41Z"/><path d="M294.53,327.39l-32.83.77V226.67h32.83Zm-30.48-.46h28.13v-97.8H264.05Z"/><path d="M261.7,329.18a1,1,0,0,1-.72-.29,1,1,0,0,1-.3-.73V226.67a1,1,0,0,1,1-1h32.83a1,1,0,0,1,1,1V327.39a1,1,0,0,1-1,1l-32.83.77Zm1-101.49v99.43h.33a.55.55,0,0,1,0-.18v-97.8a1,1,0,0,1,1-1h28.13a1,1,0,0,1,1,1V326.4h.31V227.69Zm2.35,98.22h26.09V230.15H265.07Z"/></svg>