<svg id="Слой_1" data-name="Слой 1" xmlns="http://www.w3.org/2000/svg" viewBox="0 0 100 100"><title>Колишні клієнти</title><path d="M77.09,79.69c-.55-3.7-3.43-19.33-6.18-23.24s-10-5.28-11.24-5.56A5.56,5.56,0,0,0,57.34,49s4.32-5,5.69-9c.59-1.37,1.79-4.73.59-7.2,0-2.54,1.81-16.26-13.55-16.6-15.36.34-13.55,14.06-13.55,16.6-1.21,2.47,0,5.83.59,7.2,1.37,4,5.69,9,5.69,9a5.48,5.48,0,0,0-2.33,1.92c-1.24.28-8.51,1.65-11.25,5.56S23.6,76,23.05,79.69,25,83.81,25,83.81h50.2S77.63,83.4,77.09,79.69ZM47.87,59.87c-.24,1.46-1.43.51-1.43.51l-2.2-3.19V52.27c.51-1.15,1.8-.17,2.68.21s.88.74.88.74l.07,1.9C48.68,55.43,48.11,58.41,47.87,59.87Zm-.3-11.21C41.82,45.56,40.75,38,40.75,38c-.61,0-1.27-.76-1.22-1.88A1.19,1.19,0,0,1,40.75,35c-.14-3.72,5.19-3.41,7-3.26s3.81,2.6,5.44,3.26,2.49.76,5.29-.36c3-.2,2,3,1.63,3.11s-.61.66-.61.66c-1.73,7.88-7,10.22-7,10.22Zm8.62,8.53L54,60.38s-1.19.95-1.43-.51-.81-4.44,0-4.75l.07-1.9s0-.37.88-.74,2.17-1.36,2.68-.21Z"/><path d="M36.22,81.36c-.33-2.21-2-11.51-3.68-13.84s-6-3.15-6.69-3.31a3.29,3.29,0,0,0-1.39-1.14,21.41,21.41,0,0,0,3.39-5.35c.35-.82,1.07-2.82.35-4.29,0-1.51,1.08-9.67-8.07-9.88-9.14.21-8.06,8.37-8.06,9.88-.72,1.47,0,3.47.35,4.29a21.11,21.11,0,0,0,3.39,5.35,3.29,3.29,0,0,0-1.39,1.14c-.74.16-5.07,1-6.7,3.31S4.37,79.15,4.05,81.36s1.14,2.45,1.14,2.45H35.08S36.55,83.56,36.22,81.36ZM18.82,69.55c-.14.87-.84.31-.84.31L16.66,68V65c.31-.68,1.07-.1,1.6.12s.52.45.52.45l0,1.13C19.31,66.91,19,68.69,18.82,69.55Zm-.18-6.67c-3.42-1.84-4.05-6.33-4.05-6.33-.37,0-.76-.45-.73-1.12a.71.71,0,0,1,.73-.66c-.08-2.21,3.09-2,4.18-1.94S21,54.37,22,54.77s1.48.45,3.15-.21c1.78-.13,1.21,1.78,1,1.84s-.36.4-.36.4c-1,4.69-4.15,6.08-4.15,6.08ZM23.78,68l-1.31,1.9s-.71.56-.85-.31-.49-2.64,0-2.82l0-1.13s0-.22.52-.45,1.3-.8,1.6-.12Z"/><path d="M96,81.36c-.32-2.21-2-11.51-3.67-13.84s-6-3.15-6.7-3.31a3.29,3.29,0,0,0-1.39-1.14,21.11,21.11,0,0,0,3.39-5.35c.35-.82,1.07-2.82.35-4.29,0-1.51,1.08-9.67-8.06-9.88-9.15.21-8.07,8.37-8.07,9.88-.72,1.47,0,3.47.35,4.29a21.41,21.41,0,0,0,3.39,5.35,3.29,3.29,0,0,0-1.39,1.14c-.73.16-5.06,1-6.69,3.31s-3.35,11.63-3.68,13.84,1.14,2.45,1.14,2.45H94.81S96.28,83.56,96,81.36ZM78.56,69.55c-.14.87-.85.31-.85.31L76.4,68V65c.3-.68,1.07-.1,1.59.12s.53.45.53.45l0,1.13C79,66.91,78.7,68.69,78.56,69.55Zm-.18-6.67C75,61,74.32,56.55,74.32,56.55c-.36,0-.76-.45-.73-1.12a.71.71,0,0,1,.73-.66c-.08-2.21,3.09-2,4.18-1.94s2.27,1.54,3.24,1.94,1.48.45,3.15-.21c1.79-.13,1.21,1.78,1,1.84s-.37.4-.37.4c-1,4.69-4.14,6.08-4.14,6.08ZM83.51,68l-1.31,1.9s-.71.56-.85-.31-.48-2.64,0-2.82l0-1.13s0-.22.53-.45,1.29-.8,1.59-.12Z"/></svg>