<svg id="Слой_1" data-name="Слой 1" xmlns="http://www.w3.org/2000/svg" xmlns:xlink="http://www.w3.org/1999/xlink" viewBox="0 0 400 400"><defs><style>.cls-1{fill:url(#Безымянный_градиент_5);}</style><linearGradient id="Безымянный_градиент_5" x1="140.98" y1="287.8" x2="267.51" y2="263.53" gradientUnits="userSpaceOnUse"><stop offset="0" stop-color="#1bb6e4"/><stop offset="1" stop-color="#3d7fbb"/></linearGradient></defs><title>Монтажная область 5 копия 11</title><circle class="cls-1" cx="204.24" cy="275.66" r="64.41"/><path d="M204.24,343.23a67.57,67.57,0,1,1,67.57-67.57A67.64,67.64,0,0,1,204.24,343.23Zm0-128.82a61.25,61.25,0,1,0,61.25,61.25A61.32,61.32,0,0,0,204.24,214.41Z"/><path d="M135.76,167.58c-31.17,0-55.58-11.79-55.58-26.83s24.41-26.83,55.58-26.83,55.57,11.78,55.57,26.83S166.92,167.58,135.76,167.58Zm0-47.35c-29,0-49.26,10.82-49.26,20.52s20.23,20.51,49.26,20.51S185,150.45,185,140.75,164.78,120.23,135.76,120.23Z"/><path d="M135.76,198.8C104.59,198.8,80.18,187,80.18,172a3.16,3.16,0,0,1,6.32,0c0,9.71,20.23,20.52,49.26,20.52S185,181.68,185,172a3.16,3.16,0,0,1,6.32,0C191.33,187,166.92,198.8,135.76,198.8Z"/><path d="M135.76,230.56c-31.17,0-55.58-11.78-55.58-26.82a3.16,3.16,0,0,1,6.32,0c0,9.7,20.23,20.51,49.26,20.51a3.16,3.16,0,0,1,0,6.31Z"/><path d="M123.17,258.77a2.06,2.06,0,0,1-.35,0c-25.5-2.83-42.64-13.33-42.64-26.12a3.16,3.16,0,0,1,6.32,0c0,9,15.91,17.5,37,19.85a3.16,3.16,0,0,1-.35,6.29Z"/><path d="M134.32,291.2c-24.6,0-54.19-16.2-54.19-26.38a3.16,3.16,0,0,1,6.31,0c.42,4.64,23.57,20.08,47.88,20.08a3.16,3.16,0,1,1,0,6.31ZM86.44,264.82h0Z"/><path d="M83.34,270a3.16,3.16,0,0,1-3.16-3.15V167.3a3.16,3.16,0,1,1,6.32,0v99.5A3.16,3.16,0,0,1,83.34,270Z"/><path d="M188.17,197.05A3.16,3.16,0,0,1,185,193.9V140.75a3.16,3.16,0,0,1,6.32,0V193.9A3.16,3.16,0,0,1,188.17,197.05Z"/><path d="M180.31,310.11a3.15,3.15,0,0,1-2.58-5l47-67a3.16,3.16,0,0,1,5.17,3.63l-47,67A3.17,3.17,0,0,1,180.31,310.11Z"/><path d="M225.51,313.37A16.52,16.52,0,1,1,242,296.85,16.54,16.54,0,0,1,225.51,313.37Zm0-26.72a10.2,10.2,0,1,0,10.2,10.2A10.21,10.21,0,0,0,225.51,286.65Z"/><path d="M180.31,266.46a16.52,16.52,0,1,1,16.52-16.52A16.54,16.54,0,0,1,180.31,266.46Zm0-26.72a10.21,10.21,0,1,0,10.2,10.2A10.22,10.22,0,0,0,180.31,239.74Z"/><polygon points="260.44 216.08 200.97 147.4 239.94 147.4 239.94 153.71 214.78 153.71 260.44 206.43 306.06 153.71 280.08 153.71 280.08 147.4 319.87 147.4 260.44 216.08"/><path d="M236.77,76.61a3.15,3.15,0,0,1-3.16-3.15V59.93a3.16,3.16,0,1,1,6.31,0V73.46A3.15,3.15,0,0,1,236.77,76.61Z"/><path d="M281.4,101.41a3.15,3.15,0,0,1-3.15-3.16V80.67a3.16,3.16,0,1,1,6.31,0V98.25A3.15,3.15,0,0,1,281.4,101.41Z"/><path d="M236.77,116.29a3.15,3.15,0,0,1-3.16-3.16V88.22a3.16,3.16,0,1,1,6.31,0v24.91A3.15,3.15,0,0,1,236.77,116.29Z"/><path d="M283.27,151.91a3.17,3.17,0,0,1-3.16-3.16V115.16a3.16,3.16,0,0,1,6.32,0v33.59A3.17,3.17,0,0,1,283.27,151.91Z"/><path d="M236.77,151.91a3.16,3.16,0,0,1-3.16-3.16V129.7a3.16,3.16,0,0,1,6.31,0v19.05A3.16,3.16,0,0,1,236.77,151.91Z"/></svg>