<svg id="Слой_1" data-name="Слой 1" xmlns="http://www.w3.org/2000/svg" xmlns:xlink="http://www.w3.org/1999/xlink" viewBox="0 0 400 400"><defs><style>.cls-1{fill:url(#Безымянный_градиент_5);}.cls-2,.cls-3{fill:none;}.cls-3{stroke:#000;stroke-miterlimit:10;}</style><linearGradient id="Безымянный_градиент_5" x1="105.57" y1="218.63" x2="294.29" y2="182.45" gradientUnits="userSpaceOnUse"><stop offset="0" stop-color="#1bb6e4"/><stop offset="1" stop-color="#3d7fbb"/></linearGradient></defs><title>1 </title><path class="cls-1" d="M296.35,200.52c0,54-43.13,97.85-96.34,97.85-44.42,0-81.82-30.53-93-72.05-1.27-4.74,19.6-23.47,19-28.47l-22.42,2.67c0-54,43.13-97.84,96.34-97.84,43.74,0,80.67,29.6,92.43,70.15,1.27,4.39-19.19,23.07-18.53,27.69S296.35,195.71,296.35,200.52Z"/><path class="cls-2" d="M309.39,133l-8.57,6.73-13.37-17.6,9-7.08C273,87.63,238.5,70.23,200,70.23c-69.74,0-126.58,57.06-127.72,127.62H327.71A130.45,130.45,0,0,0,309.39,133Z"/><path class="cls-2" d="M72.29,197.85c0,.72-.05,1.43-.05,2.15,0,71.55,57.32,129.77,127.77,129.77S327.78,271.55,327.78,200c0-.72-.06-1.43-.07-2.15Z"/><path d="M327.71,197.85c0,.72.07,1.43.07,2.15,0,71.55-57.32,129.77-127.77,129.77-38.41,0-72.88-17.33-96.32-44.66l-4.34,3.4c24.45,28.64,60.49,46.81,100.66,46.81,73.47,0,133.24-60.7,133.24-135.32,0-.72-.06-1.43-.07-2.15Z"/><path d="M200,70.23c38.49,0,73,17.4,96.47,44.82l4.33-3.39c-24.45-28.74-60.56-47-100.8-47-72.76,0-132,59.55-133.19,133.17h5.47C73.43,127.29,130.27,70.23,200,70.23Z"/><path d="M200,105.94c32.77,0,61.56,17.43,78,43.59l3.86-4.24c-17.57-27-47.69-44.91-81.88-44.91-53.37,0-96.84,43.54-98,97.47h5.47C108.64,147,149.66,105.94,200,105.94Z"/><path d="M292.52,197.85c0,.72.1,1.43.1,2.15,0,51.87-41.54,94.06-92.61,94.06-32.54,0-61.15-17.17-77.68-43l-3.85,4.24c17.61,26.7,47.58,44.33,81.53,44.33,54.08,0,98.08-44.69,98.08-99.62,0-.72-.09-1.43-.1-2.15Z"/><polyline class="cls-3" points="72.29 197.85 49.3 197.85 85.8 258.1 126.09 197.85 102.03 197.85"/><polyline class="cls-3" points="327.71 200.53 350.69 200.53 314.2 140.28 273.91 200.53 297.97 200.53"/><path class="cls-3" d="M175.83,223.53c0,12.71,11,23,24.52,23a24.31,24.31,0,0,0,24.51-23c1.47-24.15-49-24.15-49-48.31,0-12.71,11-23,24.52-23s24.51,10.3,24.51,23"/><line class="cls-3" x1="200.36" y1="135.54" x2="200.35" y2="152.21"/><line class="cls-3" x1="200.38" y1="247.14" x2="200.36" y2="263.81"/></svg>