<svg id="Слой_1" data-name="Слой 1" xmlns="http://www.w3.org/2000/svg" xmlns:xlink="http://www.w3.org/1999/xlink" viewBox="0 0 100 100"><defs><style>.cls-1{fill:url(#Безымянный_градиент_5);}.cls-2{fill:url(#Безымянный_градиент_5-2);}</style><linearGradient id="Безымянный_градиент_5" x1="9.11" y1="26.08" x2="79.74" y2="12.54" gradientUnits="userSpaceOnUse"><stop offset="0" stop-color="#00b6e5"/><stop offset="1" stop-color="#0080be"/></linearGradient><linearGradient id="Безымянный_градиент_5-2" x1="44.3" y1="75.75" x2="91.18" y2="66.76" xlink:href="#Безымянный_градиент_5"/></defs><title>Платіжний календар</title><rect class="cls-1" x="9.37" y="11.18" width="70.1" height="16.27"/><path d="M79.87,78.23H7.52V10.05H79.87ZM9.77,76H77.62V12.3H9.77Z"/><path d="M22.62,20.23h0a1.12,1.12,0,0,1-1.1-1.14l.21-14a1.12,1.12,0,1,1,2.24,0l-.2,14A1.13,1.13,0,0,1,22.62,20.23Z"/><path d="M43.59,20.23h0a1.12,1.12,0,0,1-1.1-1.14l.2-14A1.1,1.1,0,0,1,43.81,4a1.12,1.12,0,0,1,1.11,1.14l-.21,14A1.12,1.12,0,0,1,43.59,20.23Z"/><path d="M65.1,20.23h0A1.13,1.13,0,0,1,64,19.09l.21-14A1.11,1.11,0,0,1,65.32,4a1.13,1.13,0,0,1,1.11,1.14l-.21,14A1.12,1.12,0,0,1,65.1,20.23Z"/><path d="M78.75,29H8.64a1.13,1.13,0,0,1,0-2.25H78.75a1.13,1.13,0,0,1,0,2.25Z"/><rect x="19.67" y="36.34" width="6.1" height="5.63" rx="1.02"/><rect x="19.67" y="49.17" width="6.1" height="5.63" rx="1.02"/><rect x="19.67" y="62.74" width="6.1" height="5.63" rx="1.02"/><rect x="30.42" y="36.34" width="6.1" height="5.63" rx="1.02"/><rect x="30.42" y="49.17" width="6.1" height="5.63" rx="1.02"/><rect x="30.42" y="62.74" width="6.1" height="5.63" rx="1.02"/><rect x="41.37" y="36.34" width="6.1" height="5.63" rx="1.02"/><rect x="41.37" y="49.17" width="6.1" height="5.63" rx="1.02"/><rect x="41.37" y="62.74" width="6.1" height="5.63" rx="1.02"/><rect x="51.39" y="36.34" width="6.1" height="5.63" rx="1.02"/><rect x="51.39" y="49.17" width="6.1" height="5.63" rx="1.02"/><rect x="51.39" y="62.74" width="6.1" height="5.63" rx="1.02"/><rect x="62.34" y="36.34" width="6.1" height="5.63" rx="1.02"/><rect x="62.34" y="49.17" width="6.1" height="5.63" rx="1.02"/><rect x="62.34" y="62.74" width="6.1" height="5.63" rx="1.02"/><circle class="cls-2" cx="67.74" cy="71.26" r="23.86"/><path d="M67.74,96A24.74,24.74,0,1,1,92.48,71.26,24.77,24.77,0,0,1,67.74,96Zm0-47.73a23,23,0,1,0,23,23A23,23,0,0,0,67.74,48.27Z"/><path d="M67.74,82a5.94,5.94,0,0,1-6.12-5.72h1.75a4.19,4.19,0,0,0,4.37,4,4.29,4.29,0,0,0,4.36-4c.11-1.84-1.78-2.88-4.68-4.27-2.72-1.3-5.8-2.77-5.8-5.85a6.13,6.13,0,0,1,12.23,0H72.1a4.39,4.39,0,0,0-8.73,0c0,2,2.34,3.09,4.81,4.27,2.75,1.31,5.87,2.8,5.67,6A6,6,0,0,1,67.74,82Z"/><rect x="65.98" y="58.64" width="3.51" height="1.75" transform="translate(8.13 127.18) rotate(-89.93)"/><rect x="65.99" y="82.13" width="3.51" height="1.75" transform="translate(-15.35 150.64) rotate(-89.93)"/></svg>