<svg id="Слой_1" data-name="Слой 1" xmlns="http://www.w3.org/2000/svg" xmlns:xlink="http://www.w3.org/1999/xlink" viewBox="0 0 400 400"><defs><style>.cls-1{fill:url(#Безымянный_градиент_5);}</style><linearGradient id="Безымянный_градиент_5" x1="50.55" y1="217.43" x2="265.87" y2="176.14" gradientUnits="userSpaceOnUse"><stop offset="0" stop-color="#1bb6e4"/><stop offset="1" stop-color="#3d7fbb"/></linearGradient></defs><title>Монтажная область 5 копия 36</title><polygon class="cls-1" points="67.28 116.14 112.53 73 246.09 73 246.09 312.49 68.78 312.49 67.28 116.14"/><path d="M195.24,70.19v5.62h48V309.67H71.57L70.1,117.34l43.56-41.53h81.58V70.19H111.41L64.46,115,66,315.3H248.9V122.37h0V70.19Z"/><path d="M123.12,130.5H91.81a2.81,2.81,0,0,1,0-5.62h25.68v-24a2.82,2.82,0,0,1,5.63,0Z"/><path d="M204.5,195.55H109.94a2.81,2.81,0,0,1,0-5.62H204.5a2.81,2.81,0,0,1,0,5.62Z"/><path d="M204.5,229.81H109.94a2.81,2.81,0,0,1,0-5.62H204.5a2.81,2.81,0,0,1,0,5.62Z"/><path d="M204.5,264.06H109.94a2.81,2.81,0,1,1,0-5.62H204.5a2.81,2.81,0,0,1,0,5.62Z"/><path d="M238.61,329.81l-63.4-69.12a13.22,13.22,0,0,1,19.49-17.88l42.83,46.7,74.58-90.69a13.22,13.22,0,0,1,20.42,16.8Z"/></svg>